<svg width="59" height="45" viewBox="0 0 59 45" fill="none" xmlns="http://www.w3.org/2000/svg">
<path d="M58.4506 15.1554L51.909 8.09574C51.1448 7.27058 49.8574 7.22473 49.0385 7.99488L39.7903 16.7003C38.4938 17.9197 36.3739 16.9937 36.3739 15.2059V2.04456C36.3739 0.916844 35.4641 0 34.3451 0L24.7602 0C23.6411 0 22.7313 0.916844 22.7313 2.04456L22.7313 15.6551C22.7313 17.4659 20.5705 18.3827 19.2831 17.1175L10.144 8.13241C9.34337 7.34392 8.05599 7.35768 7.27355 8.16908L0.577314 15.0821C-0.205126 15.8889 -0.191485 17.1863 0.613701 17.9747L27.4987 44.4165C28.2766 45.1821 29.5094 45.1958 30.3009 44.4486L58.3551 18.0481C59.1739 17.2779 59.2194 15.9806 58.4551 15.1554H58.4506Z" fill="url(#paint0_linear_11_2)"/>
<defs>
<linearGradient id="paint0_linear_11_2" x1="4.89139" y1="1.87942e-07" x2="29.8122" y2="39.549" gradientUnits="userSpaceOnUse">
<stop stop-color="#A7FF22"/>
<stop offset="1" stop-color="#46FFFF"/>
</linearGradient>
</defs>
</svg>
