<svg width="92" height="31" viewBox="0 0 92 31" fill="none" xmlns="http://www.w3.org/2000/svg">
<g clip-path="url(#clip0_130_243)">
<path d="M84.1382 0H8.14857C7.87664 0 7.60471 0 7.32522 0C7.09106 0 6.86445 0 6.63029 0.00753224C6.12419 0.00753224 5.6181 0.0602579 5.11956 0.143113C4.62102 0.225967 4.13759 0.384144 3.68437 0.617643C3.23115 0.851143 2.82325 1.1449 2.46068 1.50645C2.0981 1.86046 1.79596 2.27474 1.56935 2.72667C1.34274 3.1786 1.18411 3.66067 1.10102 4.1578C1.01038 4.65492 0.965058 5.15958 0.965058 5.66424C0.965058 5.89774 0.957505 6.12371 0.949951 6.35721V23.7642C0.949951 23.9977 0.949951 24.2237 0.965058 24.4572C0.965058 24.9618 1.01793 25.4665 1.10102 25.9636C1.18411 26.4608 1.34274 26.9503 1.5769 27.3947C1.80351 27.8467 2.10566 28.2534 2.46823 28.6074C2.82325 28.969 3.2387 29.2627 3.69192 29.4962C4.14514 29.7222 4.62857 29.8879 5.12711 29.9708C5.62565 30.0536 6.13175 30.0988 6.63784 30.1064C6.872 30.1064 7.09861 30.1139 7.33278 30.1139C7.61226 30.1139 7.88419 30.1139 8.15612 30.1139H84.1457C84.4177 30.1139 84.6896 30.1139 84.9615 30.1139C85.1881 30.1139 85.4299 30.1139 85.6565 30.1064C86.1626 30.1064 86.6686 30.0536 87.1672 29.9708C87.6657 29.8879 88.1567 29.7222 88.6099 29.4962C89.0632 29.2703 89.471 28.969 89.8336 28.6074C90.1962 28.2534 90.4908 27.8391 90.725 27.3947C90.9516 26.9428 91.1102 26.4608 91.1933 25.9636C91.2764 25.4665 91.3217 24.9618 91.3368 24.4572C91.3368 24.2237 91.3368 23.9977 91.3368 23.7642C91.3368 23.493 91.3368 23.2219 91.3368 22.9432V7.18575C91.3368 6.90706 91.3368 6.6359 91.3368 6.36474C91.3368 6.13124 91.3368 5.90527 91.3368 5.67178C91.3292 5.16712 91.2839 4.66246 91.1933 4.16533C91.1102 3.6682 90.9516 3.18614 90.725 2.7342C90.2566 1.83033 89.5164 1.09217 88.6099 0.625176C88.1567 0.399209 87.6733 0.241032 87.1672 0.150645C86.6686 0.0677901 86.1626 0.0225967 85.6565 0.0150645C85.4299 0.0150645 85.1881 0.00753224 84.9615 0.00753224C84.6896 0.00753224 84.4177 0.00753224 84.1457 0.00753224L84.1382 0Z" fill="#A6A6A6"/>
<path d="M7.32528 29.4736C7.09867 29.4736 6.87206 29.4736 6.64546 29.4661C6.16958 29.4661 5.70125 29.4209 5.23292 29.3456C4.79481 29.2703 4.37936 29.1347 3.97902 28.9313C3.58623 28.7355 3.23121 28.4718 2.92151 28.163C2.61181 27.8542 2.34743 27.5002 2.15104 27.1085C1.95465 26.7168 1.81113 26.295 1.74314 25.8582C1.66761 25.3912 1.62229 24.9166 1.61473 24.4421C1.61473 24.2839 1.60718 23.7567 1.60718 23.7567V6.35719C1.60718 6.35719 1.60718 5.83746 1.61473 5.68682C1.61473 5.21229 1.66005 4.74529 1.74314 4.27829C1.81868 3.84142 1.95465 3.41962 2.15104 3.02794C2.34743 2.63626 2.60426 2.28225 2.92151 1.97343C3.23121 1.6646 3.58623 1.40098 3.97902 1.20514C4.37181 1.0093 4.79481 0.866187 5.22537 0.798397C5.6937 0.723075 6.16958 0.677881 6.64546 0.677881H7.32528L84.954 0.670349H85.6414C86.1097 0.685414 86.5781 0.723075 87.0464 0.805929C87.4845 0.881252 87.9075 1.01683 88.3079 1.2202C89.0934 1.61941 89.7279 2.25965 90.1358 3.043C90.3322 3.43468 90.4682 3.85649 90.5437 4.28582C90.6193 4.75282 90.6646 5.22735 90.6721 5.70942C90.6721 5.92032 90.6721 6.15382 90.6721 6.37979C90.6721 6.66601 90.6721 6.92964 90.6721 7.2008V22.9658C90.6721 23.2369 90.6721 23.5081 90.6721 23.7793C90.6721 24.0278 90.6721 24.2463 90.6721 24.4798C90.6646 24.9468 90.6193 25.4137 90.5437 25.8732C90.4757 26.3101 90.3322 26.7319 90.1358 27.1311C89.9394 27.5152 89.6751 27.8693 89.3654 28.1781C89.0557 28.4869 88.7006 28.7505 88.3079 28.9464C87.9075 29.1497 87.4845 29.2853 87.0464 29.3606C86.5781 29.436 86.1097 29.4812 85.6339 29.4812C85.4148 29.4812 85.1806 29.4887 84.954 29.4887H84.1382H7.32528V29.4736Z" fill="black"/>
<path d="M19.6604 15.2904C19.6755 14.01 20.3478 12.8349 21.4431 12.1646C20.7481 11.1778 19.6302 10.5753 18.4292 10.5376C17.1601 10.402 15.9289 11.2908 15.2868 11.2908C14.6448 11.2908 13.6326 10.5451 12.56 10.5677C11.1475 10.6129 9.87089 11.3963 9.18351 12.624C7.72565 15.1473 8.81338 18.8532 10.2108 20.8944C10.9133 21.8962 11.7291 23.011 12.8017 22.9658C13.8517 22.9206 14.2444 22.303 15.5059 22.303C16.7674 22.303 17.1224 22.9658 18.2177 22.9432C19.3432 22.9281 20.0532 21.9414 20.7255 20.9321C21.2316 20.2241 21.6168 19.4332 21.8736 18.6046C20.5366 18.0397 19.668 16.7366 19.668 15.2904H19.6604Z" fill="white"/>
<path d="M17.5982 9.19687C18.2101 8.46624 18.5122 7.51718 18.4367 6.56812C17.5001 6.66603 16.6314 7.11044 16.012 7.81847C15.4001 8.51143 15.0904 9.42283 15.1509 10.3493C16.1026 10.3568 17.0015 9.93502 17.5982 9.19687Z" fill="white"/>
<path d="M32.902 20.4425H29.3291L28.468 22.9733H26.9573L30.3413 13.6183H31.9125L35.2965 22.9733H33.7556L32.8944 20.4425H32.902ZM29.6992 19.275H32.5319L31.1344 15.1699H31.0967L29.6992 19.275Z" fill="white"/>
<path d="M42.616 19.5612C42.616 21.6778 41.4754 23.0411 39.7607 23.0411C38.8769 23.0863 38.0385 22.6268 37.6079 21.851H37.5777V25.2255H36.1727V16.1491H37.5324V17.2865H37.555C38.0007 16.5182 38.8392 16.0512 39.7305 16.0813C41.4678 16.0813 42.6084 17.4522 42.6084 19.5612H42.616ZM41.1732 19.5612C41.1732 18.1828 40.4556 17.2714 39.3679 17.2714C38.2802 17.2714 37.5702 18.1979 37.5702 19.5612C37.5702 20.9246 38.2953 21.8586 39.3679 21.8586C40.4405 21.8586 41.1732 20.9547 41.1732 19.5612Z" fill="white"/>
<path d="M50.1394 19.5612C50.1394 21.6778 48.9988 23.0411 47.2841 23.0411C46.4004 23.0863 45.5619 22.6268 45.1314 21.851H45.1011V25.2255H43.6962V16.1491H45.0558V17.2865H45.0785C45.5241 16.5182 46.3626 16.0512 47.2539 16.0813C48.9913 16.0813 50.1319 17.4522 50.1319 19.5612H50.1394ZM48.6967 19.5612C48.6967 18.1828 47.9791 17.2714 46.8914 17.2714C45.8036 17.2714 45.0936 18.1979 45.0936 19.5612C45.0936 20.9246 45.8187 21.8586 46.8914 21.8586C47.964 21.8586 48.6967 20.9547 48.6967 19.5612Z" fill="white"/>
<path d="M55.1172 20.3671C55.223 21.2936 56.1218 21.9037 57.3606 21.9037C58.5994 21.9037 59.3926 21.2936 59.3926 20.4575C59.3926 19.7344 58.8789 19.2976 57.6628 18.9963L56.4466 18.7025C54.7244 18.2882 53.9237 17.4823 53.9237 16.1792C53.9237 14.5673 55.3363 13.4601 57.338 13.4601C59.3397 13.4601 60.6767 14.5673 60.722 16.1792H59.3019C59.2188 15.2452 58.4408 14.6803 57.3153 14.6803C56.1898 14.6803 55.4118 15.2528 55.4118 16.0813C55.4118 16.7441 55.9028 17.1283 57.1114 17.4296L58.1462 17.6857C60.0724 18.1376 60.8731 18.9134 60.8731 20.2768C60.8731 22.0242 59.4757 23.1239 57.2549 23.1239C55.1776 23.1239 53.7727 22.0544 53.682 20.3596H55.1172V20.3671Z" fill="white"/>
<path d="M63.9097 14.5372V16.1491H65.209V17.2563H63.9097V21.0149C63.9097 21.6024 64.1666 21.8736 64.7406 21.8736C64.8917 21.8736 65.0503 21.8585 65.2014 21.8435V22.9432C64.9446 22.9884 64.6802 23.011 64.4234 23.011C63.0411 23.011 62.4972 22.4912 62.4972 21.1731V17.2639H61.5001V16.1566H62.4972V14.5447H63.9097V14.5372Z" fill="white"/>
<path d="M65.9642 19.5612C65.9642 17.4145 67.2332 16.0663 69.2047 16.0663C71.1762 16.0663 72.4453 17.4145 72.4453 19.5612C72.4453 21.7079 71.1914 23.0562 69.2047 23.0562C67.2181 23.0562 65.9642 21.7154 65.9642 19.5612ZM71.0252 19.5612C71.0252 18.0924 70.3453 17.2187 69.2123 17.2187C68.0793 17.2187 67.3994 18.0924 67.3994 19.5612C67.3994 21.03 68.0717 21.9037 69.2123 21.9037C70.3529 21.9037 71.0252 21.0451 71.0252 19.5612Z" fill="white"/>
<path d="M73.6085 16.1491H74.9455V17.3091H74.9757C75.1646 16.5634 75.8519 16.0512 76.6224 16.0738C76.781 16.0738 76.9472 16.0888 77.1059 16.1265V17.4371C76.9019 17.3769 76.6904 17.3467 76.4789 17.3543C75.7009 17.3241 75.0362 17.9267 75.0059 18.7101C75.0059 18.7854 75.0059 18.8532 75.0135 18.9285V22.9733H73.6085V16.1566V16.1491Z" fill="white"/>
<path d="M83.5718 20.9697C83.383 22.205 82.1744 23.0562 80.6259 23.0562C78.6393 23.0562 77.4005 21.7305 77.4005 19.5913C77.4005 17.4522 78.6393 16.0663 80.5655 16.0663C82.4917 16.0663 83.6474 17.3618 83.6474 19.4332V19.9152H78.8206V19.9981C78.7375 20.9773 79.4551 21.8359 80.4371 21.9263C80.5126 21.9263 80.5881 21.9339 80.6561 21.9263C81.336 21.9866 81.978 21.6024 82.2348 20.9697H83.5643H83.5718ZM78.8282 18.936H82.2499C82.3028 18.0322 81.6079 17.2563 80.7015 17.2112C80.6561 17.2112 80.6184 17.2112 80.573 17.2112C79.6137 17.2112 78.8357 17.9719 78.8282 18.9285C78.8282 18.9285 78.8282 18.936 78.8282 18.9436V18.936Z" fill="white"/>
<path d="M29.5254 6.57568C30.6207 6.50036 31.58 7.32137 31.6555 8.41354C31.6631 8.54159 31.6555 8.67717 31.648 8.80522C31.648 10.2439 30.8699 11.0649 29.5254 11.0649H27.8938V6.56815H29.5254V6.57568ZM28.5963 10.4322H29.4423C30.2203 10.4774 30.8926 9.88233 30.9379 9.10651C30.9379 9.00859 30.9379 8.91067 30.9228 8.81275C31.0286 8.03693 30.4847 7.32137 29.7067 7.21592C29.616 7.20085 29.5254 7.20085 29.4347 7.20839H28.5887V10.4322H28.5963Z" fill="white"/>
<path d="M32.4336 9.37012C32.3505 8.48885 33.0001 7.7055 33.8838 7.61511C34.7676 7.53226 35.5532 8.18003 35.6438 9.0613C35.6514 9.16675 35.6514 9.26467 35.6438 9.37012C35.7269 10.2514 35.0849 11.0423 34.1935 11.1251C33.3098 11.208 32.5166 10.5677 32.4336 9.67895C32.426 9.57349 32.426 9.46804 32.4336 9.37012ZM34.9489 9.37012C34.9489 8.63196 34.6166 8.20263 34.0349 8.20263C33.4533 8.20263 33.1209 8.63196 33.1209 9.37012C33.1209 10.1083 33.4457 10.5376 34.0349 10.5376C34.6166 10.5376 34.9489 10.1083 34.9489 9.37012Z" fill="white"/>
<path d="M39.904 11.0724H39.2091L38.5066 8.5717H38.4537L37.7512 11.0724H37.0638L36.1272 7.68289H36.807L37.4189 10.274H37.4717L38.1742 7.68289H38.8163L39.5188 10.274H39.5717L40.1759 7.68289H40.8482L39.9116 11.0724H39.904Z" fill="white"/>
<path d="M41.6263 7.67538H42.276V8.2177H42.3288C42.5026 7.81849 42.9105 7.57746 43.341 7.61512C43.9529 7.56993 44.4816 8.02186 44.5269 8.63197C44.5269 8.71483 44.5269 8.79768 44.5194 8.87301V11.0649H43.8471V9.03872C43.8471 8.49639 43.613 8.22523 43.1144 8.22523C42.6839 8.20264 42.3213 8.53406 42.2986 8.96339C42.2986 9.00105 42.2986 9.04625 42.2986 9.08391V11.0649H41.6263V7.67538Z" fill="white"/>
<path d="M45.5845 6.35724H46.2567V11.0724H45.5845V6.35724Z" fill="white"/>
<path d="M47.1934 9.37012C47.1103 8.48885 47.76 7.7055 48.6437 7.61511C49.5275 7.53226 50.3131 8.18003 50.4037 9.0613C50.4113 9.16675 50.4113 9.26467 50.4037 9.37012C50.4868 10.2514 49.8448 11.0423 48.9534 11.1251C48.0621 11.208 47.2765 10.5677 47.1934 9.67895C47.1859 9.57349 47.1859 9.46804 47.1934 9.37012ZM49.7088 9.37012C49.7088 8.63196 49.3764 8.20263 48.7948 8.20263C48.2132 8.20263 47.8808 8.63196 47.8808 9.37012C47.8808 10.1083 48.2056 10.5376 48.7948 10.5376C49.3764 10.5376 49.7088 10.1083 49.7088 9.37012Z" fill="white"/>
<path d="M51.1061 10.1083C51.1061 9.49817 51.5593 9.14416 52.3675 9.09896L53.2891 9.04624V8.75248C53.2891 8.39093 53.0549 8.19509 52.5941 8.19509C52.2165 8.19509 51.9596 8.33068 51.8841 8.57171H51.2345C51.3025 7.99172 51.8539 7.61511 52.6244 7.61511C53.4779 7.61511 53.9614 8.03692 53.9614 8.75248V11.0724H53.3117V10.5979H53.2589C53.0398 10.9444 52.647 11.1477 52.2391 11.1327C51.6726 11.1929 51.1665 10.7787 51.1136 10.2213C51.1136 10.1911 51.1136 10.1535 51.1136 10.1158L51.1061 10.1083ZM53.2891 9.82206V9.53583L52.4582 9.58856C51.9899 9.61869 51.7784 9.77686 51.7784 10.0782C51.7784 10.3794 52.0427 10.5602 52.4053 10.5602C52.8434 10.6054 53.2362 10.2815 53.2815 9.84465C53.2815 9.83712 53.2815 9.82959 53.2815 9.81453L53.2891 9.82206Z" fill="white"/>
<path d="M54.8452 9.37013C54.8452 8.30056 55.3966 7.62266 56.2577 7.62266C56.6883 7.60006 57.0962 7.83356 57.3001 8.2177H57.353V6.35724H58.0253V11.0724H57.3832V10.5376H57.3304C57.1113 10.9142 56.7034 11.1477 56.2653 11.1327C55.3966 11.1327 54.8528 10.4548 54.8528 9.37767L54.8452 9.37013ZM55.5401 9.37013C55.5401 10.0932 55.8801 10.5226 56.4466 10.5226C57.0131 10.5226 57.3606 10.0857 57.3606 9.37013C57.3606 8.65457 57.0056 8.2177 56.4466 8.2177C55.8876 8.2177 55.5401 8.65457 55.5401 9.37013Z" fill="white"/>
<path d="M60.7974 9.37013C60.7144 8.48886 61.364 7.7055 62.2477 7.61512C63.1315 7.52473 63.9171 8.18004 64.0077 9.06131C64.0153 9.16676 64.0153 9.26468 64.0077 9.37013C64.0908 10.2514 63.4488 11.0423 62.5574 11.1251C61.6737 11.208 60.8805 10.5678 60.7974 9.67895C60.7899 9.5735 60.7899 9.46805 60.7974 9.37013ZM63.3128 9.37013C63.3128 8.63197 62.9804 8.20263 62.3988 8.20263C61.8172 8.20263 61.4848 8.63197 61.4848 9.37013C61.4848 10.1083 61.8096 10.5376 62.3988 10.5376C62.9804 10.5376 63.3128 10.1083 63.3128 9.37013Z" fill="white"/>
<path d="M64.9066 7.67538H65.5562V8.2177H65.6091C65.7828 7.81849 66.1907 7.57746 66.6213 7.61512C67.2331 7.56993 67.7619 8.02186 67.8072 8.63197C67.8072 8.71483 67.8072 8.79768 67.7997 8.87301V11.0649H67.1274V9.03872C67.1274 8.49639 66.8932 8.22523 66.3947 8.22523C65.9641 8.20264 65.6016 8.53406 65.5789 8.96339C65.5789 9.00105 65.5789 9.04625 65.5789 9.08391V11.0649H64.9066V7.67538Z" fill="white"/>
<path d="M71.5917 6.83176V7.69043H72.3319V8.25535H71.5917V10.0028C71.5917 10.3568 71.7352 10.515 72.0751 10.515C72.1582 10.515 72.2488 10.515 72.3319 10.5V11.0573C72.2111 11.0799 72.0902 11.0875 71.9693 11.095C71.2215 11.095 70.9269 10.8314 70.9269 10.1761V8.26288H70.3906V7.69796H70.9269V6.83929H71.5992L71.5917 6.83176Z" fill="white"/>
<path d="M73.2383 6.35724H73.903V8.22523H73.9559C74.1372 7.82603 74.5526 7.58499 74.9907 7.61512C75.6101 7.58499 76.1389 8.05199 76.1691 8.66964C76.1691 8.73743 76.1691 8.81275 76.1615 8.88054V11.0724H75.4893V9.04625C75.4893 8.50393 75.24 8.23277 74.7641 8.23277C74.326 8.19511 73.9408 8.51899 73.9106 8.95586C73.9106 9.00105 73.9106 9.04625 73.9106 9.09144V11.0724H73.2383V6.35724Z" fill="white"/>
<path d="M80.0819 10.1535C79.8931 10.7937 79.2737 11.208 78.609 11.1327C77.7554 11.1553 77.0454 10.4849 77.0227 9.63375C77.0227 9.5509 77.0227 9.46804 77.0378 9.38519C76.9245 8.52651 77.5288 7.74316 78.3824 7.63018C78.4579 7.62264 78.5334 7.61511 78.6014 7.61511C79.5456 7.61511 80.1197 8.26289 80.1197 9.32493V9.55843H77.7176V9.59609C77.6723 10.0932 78.0424 10.5226 78.541 10.5677C78.5712 10.5677 78.6014 10.5677 78.6241 10.5677C78.9489 10.6054 79.2737 10.4472 79.4323 10.1535H80.0819ZM77.7176 9.0613H79.4323C79.4625 8.60937 79.1302 8.21769 78.677 8.18756C78.6467 8.18756 78.6241 8.18756 78.5939 8.18756C78.1104 8.18756 77.7176 8.56417 77.7101 9.04624C77.7101 9.04624 77.7101 9.0613 77.7101 9.06883L77.7176 9.0613Z" fill="white"/>
</g>
<defs>
<clipPath id="clip0_130_243">
<rect width="90.3868" height="30.129" fill="white" transform="translate(0.949951)"/>
</clipPath>
</defs>
</svg>
