<svg width="197" height="58" viewBox="0 0 197 58" fill="none" xmlns="http://www.w3.org/2000/svg">
<g clip-path="url(#clip0_174_2)">
<path d="M189.494 58H7.29184C3.28332 58 0.00366211 54.7376 0.00366211 50.7501V7.25093C0.00366211 3.26348 3.28332 0.00106812 7.29184 0.00106812H189.494C193.502 0.00106812 196.782 3.26348 196.782 7.25093V50.7501C196.782 54.7376 193.502 58 189.494 58Z" fill="black"/>
<path d="M189.494 0.00106812H7.29184C3.28332 0.00106812 0.00366211 3.26348 0.00366211 7.25093V50.7501C0.00366211 54.7376 3.28332 58 7.29184 58H189.494C193.502 58 196.782 54.7376 196.782 50.7501V7.25093C196.782 3.26348 193.502 0.00106812 189.494 0.00106812ZM189.494 1.16046C192.869 1.16046 195.616 3.89282 195.616 7.25093V50.7501C195.616 54.1082 192.87 56.8406 189.494 56.8406H7.29184C3.91598 56.8406 1.17038 54.1082 1.17038 50.7501V7.25093C1.17038 3.89282 3.91598 1.16046 7.29184 1.16046H189.494Z" fill="#A2A2A1"/>
<path d="M155.876 43.5003H158.596V25.3726H155.876V43.5003ZM180.375 31.9031L177.257 39.7618H177.164L173.928 31.9031H170.998L175.852 42.8869L173.084 48.9971H175.921L183.4 31.9036L180.375 31.9031ZM164.949 41.4412C164.06 41.4412 162.817 40.9976 162.817 39.9017C162.817 38.5026 164.365 37.9663 165.7 37.9663C166.895 37.9663 167.459 38.2223 168.185 38.5724C167.974 40.2517 166.52 41.4412 164.949 41.4412ZM165.279 31.5066C163.309 31.5066 161.27 32.3697 160.426 34.282L162.84 35.2845C163.356 34.282 164.316 33.9558 165.325 33.9558C166.732 33.9558 168.162 34.7946 168.185 36.2876V36.474C167.692 36.1941 166.637 35.7745 165.349 35.7745C162.745 35.7745 160.097 37.1966 160.097 39.8552C160.097 42.2806 162.231 43.8432 164.621 43.8432C166.449 43.8432 167.459 43.027 168.09 42.0705H168.185V43.4706H170.812V36.5203C170.812 33.302 168.395 31.5066 165.279 31.5066ZM148.469 34.1097H144.6V27.8965H148.469C150.502 27.8965 151.657 29.5708 151.657 31.0031C151.657 32.4078 150.502 34.1097 148.469 34.1097ZM148.399 25.373H141.881V43.5007H144.6V36.6332H148.399C151.413 36.6332 154.377 34.4628 154.377 31.0037C154.377 27.5453 151.413 25.373 148.399 25.373ZM112.86 41.4442C110.981 41.4442 109.409 39.8786 109.409 37.7304C109.409 35.5571 110.981 33.9695 112.86 33.9695C114.715 33.9695 116.171 35.5572 116.171 37.7304C116.171 39.8786 114.715 41.4442 112.86 41.4442ZM115.983 32.9178H115.889C115.279 32.1939 114.104 31.5397 112.626 31.5397C109.525 31.5397 106.684 34.2499 106.684 37.7304C106.684 41.1871 109.525 43.8735 112.626 43.8735C114.104 43.8735 115.279 43.2192 115.889 42.4722H115.983V43.3592C115.983 45.7194 114.715 46.9801 112.672 46.9801C111.006 46.9801 109.972 45.789 109.549 44.7847L107.178 45.7657C107.858 47.4002 109.666 49.4099 112.672 49.4099C115.867 49.4099 118.567 47.5407 118.567 42.9853V31.9134H115.984L115.983 32.9178ZM120.446 43.4997H123.169V25.3721H120.446V43.4997ZM127.185 37.5197C127.115 35.1369 129.041 33.9225 130.426 33.9225C131.507 33.9225 132.422 34.46 132.728 35.2303L127.185 37.5197ZM135.639 35.4637C135.122 34.0863 133.549 31.5397 130.332 31.5397C127.138 31.5397 124.484 34.0392 124.484 37.7067C124.484 41.164 127.115 43.8736 130.637 43.8736C133.478 43.8736 135.122 42.1455 135.804 41.1407L133.69 39.7389C132.986 40.7669 132.023 41.4443 130.637 41.4443C129.252 41.4443 128.265 40.8134 127.632 39.5753L135.921 36.165L135.639 35.4637ZM69.5964 33.432V36.0482H75.8897C75.7018 37.5198 75.2087 38.5942 74.4571 39.3418C73.541 40.2526 72.1085 41.2574 69.5963 41.2574C65.7215 41.2574 62.6924 38.1507 62.6924 34.2964C62.6924 30.442 65.7215 27.3349 69.5963 27.3349C71.6864 27.3349 73.2125 28.1527 74.3397 29.2039L76.1954 27.3581C74.6216 25.8633 72.5319 24.7187 69.5963 24.7187C64.2883 24.7187 59.8267 29.017 59.8267 34.2964C59.8267 39.5752 64.2883 43.8736 69.5963 43.8736C72.4608 43.8736 74.6217 42.9391 76.3122 41.1872C78.05 39.4585 78.5903 37.0293 78.5903 35.0667C78.5903 34.4601 78.5429 33.8994 78.449 33.432H69.5964ZM85.746 41.4442C83.8669 41.4442 82.2465 39.9025 82.2465 37.7067C82.2465 35.4875 83.8669 33.9696 85.746 33.9696C87.6243 33.9696 89.2447 35.4875 89.2447 37.7067C89.2447 39.9025 87.6243 41.4442 85.746 41.4442ZM85.746 31.5397C82.3164 31.5397 79.5224 34.1326 79.5224 37.7067C79.5224 41.2574 82.3164 43.8736 85.746 43.8736C89.1742 43.8736 91.9688 41.2574 91.9688 37.7067C91.9688 34.1326 89.1742 31.5397 85.746 31.5397ZM99.3209 41.4442C97.4431 41.4442 95.8222 39.9025 95.8222 37.7067C95.8222 35.4875 97.4432 33.9696 99.3209 33.9696C101.2 33.9696 102.82 35.4875 102.82 37.7067C102.82 39.9025 101.2 41.4442 99.3209 41.4442ZM99.3209 31.5397C95.8927 31.5397 93.0986 34.1326 93.0986 37.7067C93.0986 41.2574 95.8927 43.8736 99.3209 43.8736C102.75 43.8736 105.544 41.2574 105.544 37.7067C105.544 34.1326 102.75 31.5397 99.3209 31.5397Z" fill="white"/>
<path d="M30.1978 28.1653L14.6802 44.5497C14.6808 44.5531 14.6819 44.5559 14.6825 44.5594C15.1584 46.3385 16.792 47.6486 18.7308 47.6486C19.5058 47.6486 20.2335 47.4401 20.8575 47.0742L20.9071 47.0453L38.3751 37.0185L30.1978 28.1653Z" fill="#EB3131"/>
<path d="M45.898 25.3759L45.8831 25.3658L38.3417 21.0168L29.8452 28.5376L38.3712 37.0177L45.8729 32.712C47.1881 32.0057 48.0809 30.6265 48.0809 29.036C48.0809 27.457 47.2002 26.0845 45.898 25.3759Z" fill="#F6B60B"/>
<path d="M14.678 13.4525C14.5847 13.7946 14.5356 14.1531 14.5356 14.5253V43.478C14.5356 43.8495 14.5841 44.2091 14.6786 44.5501L30.7319 28.5844L14.678 13.4525Z" fill="#5778C5"/>
<path d="M30.3128 29.0016L38.3452 21.0138L20.8969 10.9506C20.2627 10.5728 19.5225 10.3547 18.7304 10.3547C16.7916 10.3547 15.1558 11.6671 14.6798 13.4483C14.6792 13.4501 14.6792 13.4513 14.6792 13.4528L30.3128 29.0016Z" fill="#3BAD49"/>
<path d="M69.086 14.1833H64.8338V15.23H68.0202C67.9336 16.0842 67.592 16.7548 67.0157 17.2419C66.4395 17.7291 65.7038 17.9737 64.8338 17.9737C63.8795 17.9737 63.071 17.6429 62.4083 16.986C61.7591 16.3154 61.4289 15.4861 61.4289 14.487C61.4289 13.488 61.7591 12.6587 62.4083 11.9881C63.071 11.3311 63.8795 11.0026 64.8338 11.0026C65.3236 11.0026 65.7905 11.0864 66.2185 11.2699C66.6468 11.4534 66.9906 11.7094 67.2594 12.038L68.068 11.2337C67.7012 10.819 67.2367 10.5019 66.6603 10.2708C66.0841 10.0397 65.4829 9.92873 64.8337 9.92873C63.5606 9.92873 62.4811 10.3682 61.5996 11.245C60.7182 12.124 60.2764 13.207 60.2764 14.487C60.2764 15.767 60.7182 16.8523 61.5996 17.7292C62.4811 18.6058 63.5606 19.0455 64.8337 19.0455C66.1706 19.0455 67.2366 18.6195 68.0565 17.754C68.7785 17.0336 69.1474 16.0594 69.1474 14.8406C69.1474 14.6344 69.1225 14.4144 69.086 14.1833ZM70.7333 10.1234V18.8505H75.8554V17.7788H71.8607V15.0104H75.4638V13.9636H71.8607V11.1973H75.8554V10.1233L70.7333 10.1234ZM83.0379 11.1974V10.1234H77.0092V11.1974H79.4599V18.8505H80.5873V11.1974H83.0379ZM88.496 10.1234H87.3686V18.8505H88.496V10.1234ZM95.9373 11.1974V10.1234H89.9087V11.1974H92.3592V18.8505H93.4866V11.1974H95.9373ZM107.314 11.2586C106.444 10.3681 105.378 9.92865 104.105 9.92865C102.829 9.92865 101.763 10.3681 100.893 11.245C100.023 12.1105 99.5951 13.1956 99.5951 14.4869C99.5951 15.7782 100.023 16.8636 100.893 17.7291C101.763 18.6058 102.829 19.0454 104.105 19.0454C105.366 19.0454 106.444 18.6058 107.314 17.7291C108.184 16.8636 108.612 15.7783 108.612 14.4869C108.612 13.2069 108.184 12.1239 107.314 11.2586ZM101.702 11.988C102.351 11.3311 103.148 11.0025 104.105 11.0025C105.059 11.0025 105.856 11.3311 106.494 11.988C107.143 12.6337 107.462 13.4764 107.462 14.4869C107.462 15.4997 107.143 16.3401 106.494 16.9859C105.856 17.6429 105.059 17.9736 104.105 17.9736C103.148 17.9736 102.351 17.6429 101.702 16.9859C101.066 16.3266 100.748 15.4997 100.748 14.4869C100.748 13.4764 101.066 12.6473 101.702 11.988ZM111.29 13.4154L111.243 11.7319H111.29L115.75 18.8504H116.927V10.1233H115.8V15.2299L115.848 16.9134H115.8L111.536 10.1233H110.163V18.8504H111.29V13.4154Z" fill="white" stroke="white" stroke-width="0.26666" stroke-miterlimit="10"/>
</g>
<defs>
<clipPath id="clip0_174_2">
<rect width="196.786" height="58" fill="white"/>
</clipPath>
</defs>
</svg>
