<svg width="130" height="61" viewBox="0 0 130 61" fill="none" xmlns="http://www.w3.org/2000/svg">
<g clip-path="url(#clip0_1_181)">
<path d="M38.495 0.85619C35.1569 -0.341506 31.3867 -0.452037 23.4173 1.61836C17.819 3.07176 12.7295 4.42453 10.047 5.22794C8.91038 5.56944 9.04736 5.55459 8.07871 5.77235C7.65798 5.86639 7.64819 5.88123 7.64819 6.31676C7.64819 6.86117 7.86345 11.7641 7.86345 12.4174C7.86345 13.0707 7.9776 12.8628 8.72447 12.6352C9.18597 12.495 25.141 8.26178 29.7723 7.06408C34.4035 5.86639 37.8052 8.27663 38.451 11.6552C39.0968 15.0322 38.0662 16.4345 35.6511 18.7375C33.2359 21.0405 27.4028 23.3138 22.9885 24.8233C23.2396 24.1337 23.9571 22.2745 24.8198 20.3559C25.896 17.9588 27.0783 15.2318 27.4045 14.6907C27.7893 14.0523 27.6083 14.0869 26.9283 14.0523C24.8198 13.9434 21.1131 13.7256 19.9732 13.493C19.5623 13.4089 19.6471 13.399 19.3894 14.0523C18.5284 16.2316 9.80402 33.9908 9.48113 34.5352C9.15825 35.0796 9.40286 34.8569 9.69639 35.0796C10.0812 35.3716 16.9124 39.3293 21.7589 42.924C25.6368 45.8011 29.9892 49.2144 30.4197 49.6648C30.8502 50.1151 31.0654 50.8245 31.0654 52.9477V59.5796C31.0654 60.4358 31.1078 60.9967 31.7112 60.9967C32.4646 60.9967 32.0341 58.8323 32.0341 56.9796V52.6211C32.0341 51.3293 32.2216 50.0327 32.9571 48.9174C33.1723 48.5908 36.6637 43.3463 37.4188 42.8019C38.1722 42.2575 37.6699 42.0975 37.0959 41.7131C32.2494 38.4599 28.1122 36.0628 23.8495 32.996C25.5275 32.5753 31.3573 30.7046 34.4655 29.2099C38.8081 27.1214 43.8389 23.6306 45.7126 17.7427C48.7279 8.26343 41.8348 2.05389 38.4967 0.85454L38.495 0.85619Z" fill="white"/>
<path d="M81.8529 44.8888C82.4611 45.2171 83.1901 44.9829 83.1901 44.4385C83.1901 43.5856 82.5834 43.1962 82.9161 41.6208L85.4519 29.6207C86.7809 31.4007 89.7114 35.5877 90.1451 36.1734C90.468 36.6089 90.468 36.8267 91.1138 36.8267C91.7596 36.8267 97.0447 37.2391 98.2221 37.3711C99.1908 37.48 98.9021 37.3364 99.1908 36.6089C99.7909 35.0978 102.395 28.0238 103.652 24.3911C104.407 28.3933 107.627 47.3799 108.776 54.3681C108.991 55.6764 109.151 55.6318 109.96 55.7704C110.769 55.909 117.483 56.6414 118.236 56.6414C118.989 56.6414 118.989 56.6414 118.882 55.7704C118.774 54.8993 109.143 9.46443 108.928 8.81114C108.713 8.15785 108.713 7.83121 108.067 7.72233C107.591 7.64149 103.175 6.64836 102.529 6.42895C101.916 6.22273 101.606 6.19634 101.174 7.17627C100.83 7.96153 96.1478 20.214 93.8501 26.2437L87.8197 17.0911C86.9587 15.7829 87.2816 15.3473 85.9884 15.4562C84.6952 15.5651 79.8487 16.1095 79.2029 16.3273C78.5572 16.545 78.8116 16.7892 78.5572 17.8533C78.1886 19.3941 73.8183 39.8622 73.3878 40.951C72.9573 42.0398 73.2916 42.1008 73.8183 42.2575C74.9582 42.599 79.6514 43.7043 81.8496 44.8872L81.8529 44.8888Z" fill="white"/>
<path d="M118.885 55.7704C118.839 55.3992 117.065 46.9378 115.025 37.2985C114.881 37.3678 114.731 37.4272 114.576 37.4684C114.084 37.5971 113.6 37.7505 113.125 37.9353C113.123 37.9419 112.675 38.1349 112.611 38.1662C112.351 38.2933 112.093 38.4269 111.838 38.5655C111.333 38.841 110.839 39.1396 110.355 39.453C110.12 39.6064 109.887 39.7648 109.657 39.9265C109.627 39.9479 109.436 40.0882 109.317 40.174C109.228 40.2614 108.985 40.4824 108.944 40.5237C108.892 40.5781 108.844 40.6359 108.794 40.6936C108.584 41.0813 108.336 41.4426 108.137 41.8402C107.755 42.6073 107.436 43.4041 107.069 44.1778C107.757 48.2526 108.385 52.0008 108.774 54.3698C108.99 55.678 109.149 55.6335 109.958 55.772C110.767 55.9106 117.481 56.6431 118.234 56.6431C118.988 56.6431 118.988 56.6431 118.88 55.772L118.885 55.7704Z" fill="#46FFFF"/>
<path d="M81.8529 44.8888C82.4611 45.2171 83.1901 44.9829 83.1901 44.4385C83.1901 43.5856 82.5834 43.1962 82.9161 41.6208L85.4519 29.6207C86.7809 31.4007 89.7114 35.5877 90.1451 36.1734C90.468 36.6089 90.468 36.8267 91.1138 36.8267C91.7596 36.8267 97.0447 37.2391 98.2221 37.3711C99.1908 37.48 98.9021 37.3364 99.1908 36.6089C99.7909 35.0978 102.395 28.0238 103.652 24.3911C104.407 28.3933 107.627 47.3799 108.776 54.3681C108.991 55.6764 109.151 55.6318 109.96 55.7704C110.769 55.909 117.483 56.6414 118.236 56.6414C118.989 56.6414 118.989 56.6414 118.882 55.7704C118.774 54.8993 109.143 9.46443 108.928 8.81114C108.713 8.15785 108.713 7.83121 108.067 7.72233C107.591 7.64149 103.175 6.64836 102.529 6.42895C101.916 6.22273 101.606 6.19634 101.174 7.17627C100.83 7.96153 96.1478 20.214 93.8501 26.2437L87.8197 17.0911C86.9587 15.7829 87.2816 15.3473 85.9884 15.4562C84.6952 15.5651 79.8487 16.1095 79.2029 16.3273C78.5572 16.545 78.8116 16.7892 78.5572 17.8533C78.1886 19.3941 73.8183 39.8622 73.3878 40.951C72.9573 42.0398 73.2916 42.1008 73.8183 42.2575C74.9582 42.599 79.6514 43.7043 81.8496 44.8872L81.8529 44.8888Z" fill="url(#paint0_radial_1_181)"/>
<path d="M21.7555 42.929C25.6334 45.8061 29.9858 49.2194 30.4163 49.6697C30.8469 50.1201 31.0621 50.8295 31.0621 52.9527V59.5845C31.0621 60.4407 31.1045 61.0016 31.7079 61.0016C32.4613 61.0016 32.0308 58.8372 32.0308 56.9846V52.626C32.0308 51.3343 32.2183 50.0376 32.9538 48.9224C33.169 48.5958 36.6604 43.3513 37.4154 42.8069C38.1688 42.2625 37.6666 42.1025 37.0925 41.7181C32.246 38.4648 28.1089 36.0678 23.8461 33.001C25.5242 32.5803 31.354 30.7095 34.4622 29.2149C38.8048 27.1263 43.8356 23.6355 45.7093 17.7477C48.7245 8.2684 41.8314 2.05886 38.4933 0.859516C35.1552 -0.338179 31.385 -0.44871 23.4156 1.62169C17.8173 3.07674 12.7278 4.42786 10.0453 5.23127C8.90867 5.57276 9.04565 5.55791 8.077 5.77568C7.65627 5.86971 7.64648 5.88456 7.64648 6.32008C7.64648 6.86449 7.86174 11.7675 7.86174 12.4207C7.86174 13.074 7.97589 12.8662 8.72277 12.6385C9.18426 12.4983 25.1393 8.2651 29.7706 7.06741C34.4018 5.86971 37.8019 8.27995 38.4493 11.6586C39.0951 15.0355 38.0645 16.4378 35.6493 18.7408C33.2342 21.0438 27.4028 23.3171 22.9867 24.8266C23.2379 24.137 23.9554 22.2778 24.8181 20.3592C25.8943 17.9621 27.0766 15.2352 27.4028 14.6941C27.7876 14.0556 27.6066 14.0903 26.9266 14.0556C24.818 13.9467 21.1114 13.729 19.9715 13.4964C19.5606 13.4122 19.6454 13.4023 19.3877 14.0556C18.5267 16.2349 9.80231 33.9941 9.47942 34.5385C9.15654 35.0829 9.40115 34.8619 9.69468 35.0829C10.0795 35.3749 16.9106 39.3326 21.7572 42.9273L21.7555 42.929Z" fill="url(#paint1_radial_1_181)"/>
<path d="M37.0941 41.7148C32.2476 38.4615 28.1104 36.0645 23.8477 32.9993C24.2994 32.8855 25.0528 32.6677 25.9725 32.379C25.3349 31.0906 25.1131 29.5052 25.0202 28.1788C24.9941 27.8027 25.0022 27.4282 25.0332 27.0554C24.8636 26.3971 24.7576 25.7208 24.6957 25.0724C24.668 24.7936 24.6631 24.5132 24.6745 24.236C24.0956 24.4439 23.5313 24.6418 22.9867 24.8283C23.2378 24.1387 23.9553 22.2795 24.818 20.3608C25.8943 17.9638 27.0765 15.2368 27.4027 14.6957C27.7875 14.0573 27.6065 14.0919 26.9265 14.0573C24.818 13.9484 21.1113 13.7306 19.9715 13.498C19.5605 13.4139 19.6453 13.404 19.3877 14.0573C18.5266 16.2365 9.80224 33.9958 9.47935 34.5402C9.15647 35.0846 9.40108 34.8635 9.69461 35.0846C10.0795 35.3766 16.9106 39.3342 21.7571 42.929C25.635 45.8061 29.9874 49.2194 30.4179 49.6697C30.8484 50.1201 31.0637 50.8295 31.0637 52.9527V59.5845C31.0637 60.4407 31.1061 61.0016 31.7094 61.0016C32.4628 61.0016 32.0323 58.8372 32.0323 56.9846V52.626C32.0323 51.3343 32.2199 50.0376 32.9553 48.9208C33.1706 48.5941 36.662 43.3497 37.417 42.8052C38.1704 42.2608 37.6681 42.1008 37.0941 41.7164V41.7148Z" fill="#FF58E2"/>
<path d="M115.133 21.029C114.96 20.506 114.451 18.0875 114.055 16.8882C113.732 15.9082 114.187 16.0732 114.916 16.2349C115.646 16.3966 119.404 16.7611 120.516 16.8882C121.917 17.0498 121.807 16.9971 122.024 17.6503C122.404 18.8068 122.97 21.0801 123.425 22.2267C123.727 22.9888 123.224 22.8519 122.264 22.7199C121.055 22.555 118.601 22.2267 116.339 22.0089C115.346 21.9132 115.346 21.6823 115.131 21.029H115.133Z" fill="white"/>
<path d="M106.093 32.5226C105.937 33.0917 106.513 33.1874 106.901 33.1297C107.289 33.0719 107.318 32.704 107.501 32.3131C107.683 31.9221 107.082 31.6482 106.694 31.706C106.305 31.7637 106.25 31.9534 106.093 32.5226Z" fill="#46FFFF"/>
<path d="M108.699 20.1794C108.823 20.0111 109.058 19.9765 109.223 20.1018C109.389 20.2272 109.424 20.4648 109.3 20.6314C109.176 20.7997 108.941 20.8343 108.776 20.7089C108.61 20.5836 108.576 20.346 108.699 20.1794Z" fill="#46FFFF"/>
<path d="M107.543 21.4348C107.46 21.3721 107.343 21.3903 107.281 21.4744C107.219 21.5585 107.237 21.6773 107.32 21.74C107.403 21.8027 107.52 21.7845 107.582 21.7004C107.644 21.6163 107.626 21.4975 107.543 21.4348Z" fill="#46FFFF"/>
<path d="M111.397 25.211C111.234 25.3413 110.999 25.3133 110.87 25.1483C110.741 24.985 110.769 24.7458 110.932 24.6154C111.093 24.4851 111.33 24.5132 111.459 24.6781C111.587 24.8431 111.56 25.0807 111.397 25.211Z" fill="#46FFFF"/>
<path d="M104.368 21.2418C104.455 21.0207 104.699 20.9102 104.911 20.996C105.125 21.0818 105.228 21.3309 105.14 21.5519C105.053 21.773 104.809 21.8835 104.597 21.7977C104.383 21.7119 104.28 21.4628 104.368 21.2418Z" fill="#46FFFF"/>
<path d="M104.208 24.5313C104.102 24.4884 103.98 24.5429 103.936 24.6551C103.892 24.7656 103.944 24.891 104.05 24.9339C104.156 24.9767 104.279 24.9207 104.323 24.8101C104.367 24.6996 104.314 24.5742 104.208 24.5313Z" fill="#46FFFF"/>
<path d="M108.709 24.0083C108.756 24.1222 108.704 24.2575 108.592 24.3086C108.479 24.3597 108.35 24.3086 108.305 24.1931C108.257 24.0793 108.31 23.944 108.422 23.8945C108.535 23.8434 108.664 23.8945 108.711 24.01L108.709 24.0083Z" fill="#46FFFF"/>
<path d="M106.405 24.9817C106.389 24.858 106.472 24.7425 106.593 24.7227C106.713 24.7029 106.824 24.7887 106.841 24.9124C106.857 25.0361 106.774 25.1516 106.653 25.1714C106.532 25.1912 106.421 25.1054 106.405 24.9817Z" fill="#46FFFF"/>
<path d="M105.417 24.9751C105.357 24.985 105.314 25.0427 105.322 25.1054C105.33 25.1681 105.386 25.2094 105.446 25.1995C105.507 25.1896 105.549 25.1318 105.541 25.0691C105.533 25.0064 105.477 24.9652 105.417 24.9751Z" fill="#46FFFF"/>
<path d="M109.468 26.704C109.6 26.7568 109.665 26.9053 109.614 27.0356C109.564 27.1659 109.415 27.2286 109.283 27.1758C109.151 27.123 109.086 26.9745 109.136 26.8442C109.187 26.7139 109.335 26.6512 109.468 26.704Z" fill="#46FFFF"/>
<path d="M106.87 26.605C106.896 26.5407 106.863 26.4664 106.796 26.4384C106.731 26.412 106.656 26.4433 106.63 26.5077C106.604 26.572 106.638 26.6462 106.704 26.6726C106.77 26.699 106.844 26.6677 106.87 26.6034V26.605Z" fill="#46FFFF"/>
<path d="M106.705 28.6771C106.636 28.7051 106.557 28.6738 106.527 28.6061C106.498 28.5385 106.527 28.4593 106.596 28.4312C106.664 28.4032 106.744 28.4346 106.773 28.5022C106.804 28.5698 106.773 28.649 106.705 28.6771Z" fill="#46FFFF"/>
<path d="M105.609 26.9399C105.683 26.93 105.753 26.9812 105.764 27.0537C105.776 27.1263 105.725 27.194 105.652 27.2055C105.578 27.2154 105.508 27.1643 105.497 27.0917C105.485 27.0175 105.536 26.9515 105.609 26.9399Z" fill="#46FFFF"/>
<path d="M108.448 28.1954C108.509 28.169 108.579 28.1954 108.605 28.2547C108.631 28.3141 108.602 28.3834 108.541 28.4098C108.481 28.4362 108.411 28.4098 108.386 28.3504C108.36 28.291 108.39 28.2217 108.45 28.1954H108.448Z" fill="#46FFFF"/>
<path d="M108.924 29.1538C108.911 29.1852 108.876 29.2017 108.843 29.1901C108.81 29.1786 108.796 29.1423 108.809 29.1093C108.822 29.0779 108.858 29.0614 108.89 29.073C108.923 29.0845 108.938 29.1208 108.924 29.1538Z" fill="#46FFFF"/>
<path d="M108.28 28.4775C108.301 28.4494 108.341 28.4445 108.368 28.4643C108.396 28.4841 108.401 28.5236 108.38 28.5517C108.359 28.5797 108.319 28.5863 108.292 28.5649C108.264 28.5451 108.259 28.5055 108.28 28.4775Z" fill="#46FFFF"/>
<path d="M108.988 18.5148C109.035 18.6303 108.983 18.7639 108.871 18.815C108.758 18.8662 108.629 18.815 108.584 18.6996C108.536 18.5857 108.588 18.4504 108.701 18.3993C108.814 18.3482 108.942 18.3993 108.99 18.5148H108.988Z" fill="#46FFFF"/>
<path d="M107.26 15.7169C107.243 15.5931 107.326 15.4777 107.447 15.4579C107.568 15.4381 107.679 15.5238 107.695 15.6476C107.711 15.7713 107.628 15.8868 107.507 15.9066C107.387 15.9264 107.276 15.8406 107.26 15.7169Z" fill="#46FFFF"/>
<path d="M106.348 29.7279C106.226 29.5712 105.999 29.5448 105.844 29.6685C105.689 29.7923 105.663 30.0216 105.785 30.1783C105.909 30.335 106.134 30.3614 106.289 30.2377C106.444 30.1123 106.47 29.8846 106.348 29.7279Z" fill="#46FFFF"/>
<path d="M110.54 29.3666C110.48 29.3765 110.438 29.4343 110.446 29.497C110.454 29.5597 110.509 29.6009 110.57 29.591C110.63 29.5811 110.672 29.5234 110.664 29.4607C110.656 29.398 110.601 29.3567 110.54 29.3666Z" fill="#46FFFF"/>
<path d="M111.416 31.1615C111.548 31.2143 111.614 31.3628 111.563 31.4931C111.512 31.6235 111.364 31.6861 111.232 31.6334C111.1 31.5806 111.035 31.4321 111.085 31.3018C111.136 31.1714 111.284 31.1087 111.416 31.1615Z" fill="#46FFFF"/>
<path d="M111.517 30.3251C111.543 30.2608 111.511 30.1866 111.444 30.1585C111.379 30.1321 111.304 30.1635 111.278 30.2278C111.251 30.2921 111.286 30.3664 111.351 30.3928C111.418 30.4192 111.491 30.3878 111.517 30.3235V30.3251Z" fill="#46FFFF"/>
<path d="M111.829 33.0702C111.76 33.0983 111.68 33.0669 111.651 32.9993C111.622 32.9317 111.651 32.8525 111.719 32.8244C111.788 32.7964 111.868 32.8277 111.897 32.8954C111.928 32.963 111.897 33.0422 111.829 33.0702Z" fill="#46FFFF"/>
<path d="M110.534 32.1844C110.607 32.1745 110.678 32.2256 110.689 32.2982C110.7 32.3708 110.65 32.4384 110.576 32.45C110.503 32.4599 110.433 32.4087 110.422 32.3361C110.41 32.2619 110.461 32.1959 110.534 32.1844Z" fill="#46FFFF"/>
<path d="M110.624 33.3095C110.501 33.1527 110.275 33.1263 110.12 33.2501C109.965 33.3738 109.939 33.6031 110.061 33.7598C110.185 33.9166 110.41 33.943 110.565 33.8192C110.72 33.6938 110.746 33.4662 110.624 33.3095Z" fill="#46FFFF"/>
<path d="M107.768 32.1332C107.708 32.1431 107.665 32.2008 107.674 32.2635C107.682 32.3262 107.737 32.3675 107.798 32.3576C107.858 32.3477 107.9 32.2899 107.892 32.2272C107.884 32.1646 107.829 32.1233 107.768 32.1332Z" fill="#46FFFF"/>
<path d="M108.644 33.9265C108.776 33.9793 108.841 34.1277 108.791 34.2581C108.74 34.3884 108.592 34.4511 108.46 34.3983C108.328 34.3455 108.262 34.197 108.313 34.0667C108.364 33.9364 108.512 33.8737 108.644 33.9265Z" fill="#46FFFF"/>
<path d="M108.745 33.0917C108.771 33.0274 108.739 32.9531 108.672 32.9251C108.606 32.8987 108.531 32.93 108.505 32.9944C108.479 33.0587 108.514 33.1329 108.579 33.1593C108.646 33.1857 108.719 33.1544 108.745 33.0901V33.0917Z" fill="#46FFFF"/>
<path d="M109.057 35.8352C108.988 35.8632 108.908 35.8319 108.879 35.7643C108.849 35.6966 108.879 35.6174 108.947 35.5894C109.016 35.5613 109.096 35.5927 109.125 35.6603C109.156 35.728 109.125 35.8072 109.057 35.8352Z" fill="#46FFFF"/>
<path d="M107.961 34.098C108.034 34.0881 108.104 34.1393 108.116 34.2119C108.127 34.2844 108.077 34.3521 108.003 34.3636C107.93 34.3735 107.86 34.3224 107.848 34.2498C107.837 34.1756 107.887 34.1096 107.961 34.098Z" fill="#46FFFF"/>
<path d="M108.289 35.2116C108.166 35.0549 107.94 35.0285 107.785 35.1522C107.63 35.2759 107.604 35.5052 107.726 35.662C107.85 35.8187 108.075 35.8451 108.23 35.7214C108.385 35.596 108.411 35.3683 108.289 35.2116Z" fill="#46FFFF"/>
<path d="M109.719 30.4142C109.472 30.0991 109.021 30.0463 108.711 30.2954C108.399 30.5445 108.432 30.8349 108.678 31.15C108.924 31.4651 109.291 31.6828 109.603 31.4337C109.914 31.1846 109.966 30.7277 109.72 30.4142H109.719Z" fill="#46FFFF"/>
<path d="M113.039 31.2671C113.014 31.4766 112.827 31.6268 112.62 31.6037C112.413 31.5789 112.264 31.3892 112.287 31.1797C112.311 30.9702 112.499 30.82 112.706 30.8431C112.913 30.8662 113.062 31.0576 113.039 31.2671Z" fill="#46FFFF"/>
<path d="M112.346 27.6179C112.45 27.6295 112.543 27.5552 112.556 27.4497C112.568 27.3441 112.494 27.25 112.39 27.2368C112.285 27.2253 112.192 27.2995 112.179 27.4051C112.168 27.5107 112.241 27.6047 112.346 27.6179Z" fill="#46FFFF"/>
<path d="M108.169 28.2449C108.246 28.0485 108.466 27.9528 108.66 28.0304C108.854 28.1079 108.949 28.3306 108.872 28.527C108.796 28.7233 108.575 28.819 108.381 28.7414C108.187 28.6639 108.093 28.4412 108.169 28.2449Z" fill="#46FFFF"/>
<path d="M107.365 29.7758C107.268 29.7362 107.158 29.784 107.119 29.883C107.08 29.982 107.127 30.0925 107.225 30.1321C107.323 30.1717 107.432 30.1222 107.471 30.0249C107.511 29.9259 107.462 29.8154 107.365 29.7758Z" fill="#46FFFF"/>
<path d="M111.119 27.9231C111.022 27.8472 111 27.7037 111.072 27.6014C111.145 27.5008 111.282 27.4794 111.382 27.5552C111.48 27.6311 111.501 27.7747 111.429 27.8769C111.357 27.9792 111.219 27.999 111.119 27.9231Z" fill="#46FFFF"/>
<path d="M111.857 28.6358C111.821 28.687 111.83 28.7579 111.879 28.7958C111.928 28.8338 111.998 28.8239 112.034 28.7727C112.07 28.7216 112.06 28.6507 112.011 28.6111C111.963 28.5731 111.892 28.583 111.857 28.6342V28.6358Z" fill="#46FFFF"/>
<path d="M112.183 25.0576C112.192 25.1269 112.258 25.1747 112.329 25.1648C112.401 25.1549 112.45 25.0889 112.44 25.0196C112.43 24.9503 112.364 24.9025 112.294 24.9124C112.223 24.9223 112.173 24.9883 112.184 25.0576H112.183Z" fill="#46FFFF"/>
<path d="M110.118 23.266C110.087 23.2445 110.045 23.2495 110.022 23.2808C109.999 23.3105 110.006 23.3534 110.035 23.3749C110.066 23.3963 110.108 23.3913 110.131 23.36C110.154 23.3303 110.148 23.2874 110.118 23.266Z" fill="#46FFFF"/>
<path d="M111.521 24.6039C111.46 24.6501 111.338 24.6171 111.291 24.5594C111.243 24.5016 111.291 24.4406 111.351 24.3944C111.41 24.3482 111.496 24.3581 111.544 24.4158C111.591 24.4736 111.579 24.5594 111.521 24.6056V24.6039Z" fill="#46FFFF"/>
<path d="M112.047 24.2789C112.07 24.3086 112.114 24.3136 112.144 24.2905C112.173 24.2674 112.178 24.2245 112.155 24.1964C112.132 24.1667 112.088 24.1618 112.059 24.1865C112.029 24.2096 112.024 24.2525 112.047 24.2806V24.2789Z" fill="#46FFFF"/>
<path d="M110.239 31.9221C110.174 31.932 110.112 31.8874 110.102 31.8231C110.092 31.7587 110.138 31.6977 110.205 31.6878C110.27 31.6779 110.332 31.7225 110.342 31.7868C110.351 31.8511 110.306 31.9122 110.239 31.9221Z" fill="#46FFFF"/>
<path d="M110.783 31.9006C110.788 31.9336 110.819 31.9551 110.852 31.9501C110.884 31.9452 110.907 31.9155 110.902 31.8825C110.898 31.8495 110.867 31.828 110.834 31.833C110.801 31.8379 110.778 31.8676 110.783 31.9006Z" fill="#46FFFF"/>
<path d="M110.022 30.8613C110.043 30.8332 110.082 30.8283 110.11 30.8481C110.138 30.8679 110.144 30.9075 110.123 30.9355C110.102 30.9636 110.063 30.9702 110.035 30.9487C110.007 30.9289 110.001 30.8893 110.022 30.8613Z" fill="#46FFFF"/>
<path d="M109.825 31.0708C109.81 31.0609 109.79 31.0642 109.781 31.0774C109.769 31.0906 109.772 31.1104 109.787 31.1202C109.802 31.1301 109.821 31.1268 109.831 31.1136C109.843 31.1005 109.839 31.0807 109.825 31.0708Z" fill="#46FFFF"/>
<path d="M110.475 31.6911C110.448 31.7125 110.408 31.7076 110.386 31.6812C110.363 31.6548 110.369 31.6152 110.397 31.5937C110.425 31.5723 110.464 31.5772 110.487 31.6036C110.508 31.63 110.503 31.6696 110.475 31.6911Z" fill="#46FFFF"/>
<path d="M109.259 24.1304C109.22 24.1849 109.145 24.1964 109.092 24.1568C109.04 24.1172 109.03 24.043 109.07 23.9885C109.109 23.9341 109.184 23.9226 109.236 23.9622C109.288 24.0017 109.298 24.076 109.259 24.1304Z" fill="#46FFFF"/>
<path d="M113.618 32.869C113.52 32.7931 113.499 32.6496 113.57 32.5473C113.642 32.445 113.781 32.4252 113.88 32.5011C113.978 32.577 113.999 32.7205 113.927 32.8228C113.854 32.9234 113.717 32.9449 113.618 32.869Z" fill="#46FFFF"/>
<path d="M105.521 33.5817C105.485 33.6328 105.495 33.7038 105.544 33.7417C105.593 33.7796 105.663 33.7697 105.699 33.7186C105.735 33.6675 105.725 33.5949 105.676 33.5569C105.627 33.519 105.557 33.5289 105.521 33.58V33.5817Z" fill="#46FFFF"/>
<path d="M111.203 33.2122C111.393 33.2633 111.591 33.1495 111.643 32.9548C111.695 32.7618 111.581 32.5622 111.388 32.5094C111.198 32.4566 111 32.5721 110.948 32.7667C110.898 32.9597 111.01 33.1594 111.203 33.2122Z" fill="#46FFFF"/>
<path d="M109.14 36.7887C109.523 36.8927 109.916 36.6633 110.019 36.2757C110.121 35.888 109.924 35.6735 109.541 35.5696C109.158 35.4656 108.735 35.5118 108.633 35.8995C108.53 36.2872 108.757 36.6848 109.14 36.7887Z" fill="#46FFFF"/>
<path d="M109.298 34.4065C109.352 34.6111 109.233 34.8206 109.03 34.875C108.828 34.9295 108.621 34.8091 108.567 34.6045C108.514 34.3999 108.633 34.1904 108.835 34.136C109.037 34.0815 109.244 34.202 109.298 34.4065Z" fill="#46FFFF"/>
<path d="M109.04 32.6925C109.141 32.6644 109.202 32.5605 109.174 32.4582C109.148 32.3559 109.044 32.2949 108.942 32.323C108.841 32.351 108.781 32.4549 108.809 32.5572C108.836 32.6595 108.939 32.7205 109.04 32.6925Z" fill="#46FFFF"/>
<path d="M0.476173 50.6496C0.735459 50.2141 7.00072 39.4415 7.3236 38.7882C7.64648 38.1349 7.75411 38.3527 8.18462 38.6793C8.9266 39.2419 12.6006 41.1852 14.2151 42.1651C14.8608 42.5578 14.7809 42.4868 14.4303 43.1451C12.5289 46.7167 10.5899 50.2554 8.87605 53.9161C8.15364 55.2144 8.39988 56.7635 7.75411 56.5457C6.46094 56.1102 8.52381 54.6436 4.95415 53.474C3.39354 52.9626 1.72205 52.4083 0.906685 52.1723C-0.601738 51.7368 0.153289 51.1924 0.476173 50.6464V50.6496Z" fill="white"/>
<path d="M40.3262 51.5207C40.4991 51.1726 44.9119 37.3925 47.1737 30.274C47.3465 29.7296 47.1737 29.4029 48.0347 29.5118C48.8957 29.6207 53.465 30.0562 54.326 30.274C55.1871 30.4918 55.6176 30.274 55.4023 31.3628C55.2376 32.1943 51.5261 44.8097 49.442 51.8606C48.5728 54.802 49.111 54.4754 47.0644 53.7132C46.5491 53.5218 42.1103 52.1872 40.9247 52.1872C39.7392 52.1872 40.1094 51.9546 40.3246 51.5191L40.3262 51.5207Z" fill="white"/>
<path d="M48.8957 24.4059C49.3262 23.2726 50.3046 20.1777 50.665 18.9437C50.7922 18.5082 50.6389 18.071 52.0201 18.3053C52.6659 18.4142 56.1133 18.7408 58.5903 18.9586C59.4481 19.0345 59.2442 19.3941 59.1285 19.8296C58.9882 20.3559 58.1598 23.3155 57.7277 24.6237C57.1912 26.2536 57.4048 27.8918 56.8666 27.8918C56.1133 27.8918 56.759 26.6248 55.143 26.4747C53.9574 26.3658 50.5737 25.8214 49.1109 25.8214C48.1423 25.8214 48.3575 25.8214 48.8957 24.4059Z" fill="white"/>
<path d="M63.9736 13.6201C64.1888 13.6201 64.1774 13.5871 64.1269 13.9319C64.0763 14.2783 57.6643 43.3497 57.2338 44.4385C56.725 45.7253 56.7576 46.5237 57.7263 46.5237C58.6949 46.5237 59.3733 46.5897 59.9261 46.7844C60.8605 47.111 62.2499 47.5548 63.4811 47.8171C65.5277 48.2526 64.9439 49.7935 65.6973 49.7935C66.343 49.7935 66.0201 48.4869 66.2811 47.0549C66.3137 46.8751 67.628 41.7032 69.1887 35.0697C71.3396 25.9303 73.9112 14.501 74.0352 13.9319C74.2227 13.0757 74.0352 13.2423 74.8522 13.1846C76.3606 13.0757 78.8996 12.8728 81.6376 12.749C83.3515 12.6715 83.7918 12.4224 83.7918 14.275C83.7918 15.0372 84.5452 15.3638 84.5452 14.1661C84.5452 11.1736 84.6528 8.13972 84.6528 5.12238C84.6528 4.14245 84.8681 4.03357 83.6206 4.03357C81.8969 4.03357 70.9123 4.45425 68.22 4.56313L67.9721 4.57303C63.6246 4.74955 59.3179 4.92277 54.7127 5.12238C53.6348 5.16858 53.6348 5.21642 53.6348 6.30688V6.32008C53.6348 7.84607 53.85 11.1142 53.85 12.9668C53.85 13.8659 53.7424 14.0408 54.711 14.0408C55.6797 14.0408 61.927 13.6201 63.9736 13.6201Z" fill="white"/>
<path d="M59.0649 49.4503C58.6343 49.1022 58.8855 48.6519 59.0649 48.4704C59.2883 47.8171 59.9259 48.4704 59.9259 49.1237C59.9259 49.777 59.603 49.8859 59.0649 49.4503Z" fill="white"/>
<path d="M29.2944 51.8622C29.2944 52.3439 29.1232 52.7333 28.6486 52.7333C28.1741 52.7333 27.7876 52.3423 27.7876 51.8622C27.7876 51.3821 28.1724 50.9911 28.6486 50.9911C29.1248 50.9911 29.2944 51.3805 29.2944 51.8622Z" fill="#FF58E2"/>
<path d="M41.9831 26.511C41.6863 26.5687 41.4254 26.5077 41.3684 26.2074C41.3113 25.9072 41.5053 25.6168 41.8038 25.5591C42.1006 25.5013 42.3876 25.6977 42.4446 25.9996C42.5017 26.2998 42.2816 26.4549 41.9848 26.5126L41.9831 26.511Z" fill="#FF58E2"/>
<path d="M44.6117 14.5769C44.7259 14.6875 44.9053 14.6825 45.0145 14.5687C45.1238 14.4548 45.1189 14.2717 45.0064 14.1612C44.8938 14.0507 44.7128 14.0556 44.6036 14.1694C44.4943 14.2849 44.4992 14.4664 44.6117 14.5769Z" fill="#FF58E2"/>
<path d="M44.6672 18.7293C45.1108 18.8794 45.2086 18.4175 45.1792 18.1007C45.1499 17.784 44.8596 17.746 44.5579 17.5827C44.2563 17.4194 44.0165 17.8945 44.0459 18.2113C44.0752 18.528 44.2236 18.5791 44.6672 18.7293Z" fill="#FF58E2"/>
<path d="M35.1113 19.7356C35.1847 19.5855 35.3657 19.5244 35.5141 19.5987C35.6625 19.6729 35.7228 19.856 35.6494 20.0061C35.5761 20.1563 35.395 20.2173 35.2466 20.1431C35.0983 20.0688 35.0379 19.8857 35.1113 19.7356Z" fill="#FF58E2"/>
<path d="M35.0623 21.5107C35.0101 21.575 35.0183 21.6707 35.0819 21.7235C35.1455 21.7763 35.2401 21.768 35.2923 21.7037C35.3444 21.6394 35.3363 21.5437 35.2727 21.4909C35.2091 21.4381 35.1145 21.4463 35.0623 21.5107Z" fill="#FF58E2"/>
<path d="M39.162 17.4293C39.2583 17.5662 39.2273 17.7559 39.0919 17.8516C38.9566 17.949 38.769 17.9176 38.6728 17.7807C38.5766 17.6438 38.6076 17.454 38.743 17.3584C38.8783 17.261 39.0658 17.2924 39.162 17.4293Z" fill="#FF58E2"/>
<path d="M37.9894 17.5217C38.0562 17.4738 38.0725 17.3782 38.0252 17.3105C37.9779 17.2429 37.8834 17.2264 37.8165 17.2759C37.7496 17.3237 37.7333 17.4194 37.7823 17.487C37.8295 17.5547 37.9241 17.5712 37.991 17.5233L37.9894 17.5217Z" fill="#FF58E2"/>
<path d="M37.2963 23.2495C37.1251 23.1703 37.0468 22.969 37.1234 22.8008C37.2001 22.6308 37.4007 22.5582 37.5719 22.6374C37.7431 22.7166 37.8214 22.9179 37.7448 23.0878C37.6681 23.2577 37.4675 23.3303 37.2963 23.2495Z" fill="#FF58E2"/>
<path d="M39.3592 23.9028C39.3217 23.9869 39.3592 24.0875 39.4457 24.1271C39.5321 24.1667 39.6316 24.1304 39.6707 24.0463C39.7082 23.9622 39.6707 23.8615 39.5843 23.8219C39.4978 23.7823 39.3984 23.8186 39.3592 23.9028Z" fill="#FF58E2"/>
<path d="M37.1413 20.671C37.2343 20.638 37.337 20.6858 37.3729 20.7782C37.4088 20.8706 37.3631 20.9729 37.2702 21.0059C37.1772 21.0389 37.0745 20.991 37.0386 20.8986C37.0027 20.8063 37.0484 20.704 37.1413 20.671Z" fill="#FF58E2"/>
<path d="M36.7223 20.3674C36.7044 20.3212 36.6522 20.2965 36.6065 20.3146C36.5608 20.3311 36.538 20.3823 36.5543 20.4285C36.5723 20.4747 36.6244 20.4994 36.6701 20.4813C36.7158 20.4648 36.7386 20.4136 36.7223 20.3674Z" fill="#FF58E2"/>
<path d="M38.2146 23.068C38.1167 23.0763 38.0271 23.0037 38.0173 22.9063C38.0075 22.809 38.0776 22.7216 38.1771 22.7133C38.2766 22.7051 38.3646 22.7777 38.3744 22.875C38.3842 22.9723 38.3141 23.0598 38.2146 23.068Z" fill="#FF58E2"/>
<path d="M37.7727 23.3732C37.7776 23.4227 37.8216 23.459 37.8705 23.454C37.9194 23.4507 37.9553 23.4062 37.9504 23.3584C37.9455 23.3089 37.9015 23.2726 37.8526 23.2775C37.8036 23.2808 37.7678 23.3254 37.7727 23.3732Z" fill="#FF58E2"/>
<path d="M39.1782 20.9217C39.2255 20.8178 39.3446 20.77 39.4457 20.8161C39.5468 20.8623 39.5892 20.9844 39.5419 21.09C39.4946 21.1939 39.3756 21.2418 39.2745 21.1956C39.1734 21.1494 39.131 21.0273 39.1782 20.9217Z" fill="#FF58E2"/>
<path d="M38.5699 22.6209C38.5193 22.5978 38.459 22.6209 38.4362 22.6737C38.4133 22.7265 38.4345 22.7876 38.4851 22.8107C38.5356 22.8338 38.596 22.8107 38.6188 22.7579C38.6416 22.7051 38.6204 22.644 38.5699 22.6209Z" fill="#FF58E2"/>
<path d="M38.6515 25.4898C38.6711 25.5459 38.6433 25.6102 38.5879 25.6317C38.5325 25.6531 38.4721 25.6251 38.4525 25.569C38.433 25.5129 38.4607 25.4486 38.5161 25.4271C38.5716 25.4057 38.6319 25.4337 38.6515 25.4898Z" fill="#FF58E2"/>
<path d="M38.5391 25.0114C38.5668 24.9998 38.5815 24.9685 38.5717 24.9404C38.5619 24.9124 38.5309 24.8975 38.5032 24.9091C38.4755 24.9206 38.4608 24.952 38.4706 24.98C38.4803 25.0081 38.5113 25.0229 38.5391 25.0114Z" fill="#FF58E2"/>
<path d="M39.1537 22.3702C39.1488 22.3108 39.1928 22.2564 39.2499 22.2498C39.3086 22.2432 39.3592 22.286 39.3641 22.3471C39.3689 22.4065 39.3249 22.4609 39.2678 22.4675C39.2091 22.4741 39.1586 22.4312 39.1537 22.3702Z" fill="#FF58E2"/>
<path d="M39.1408 22.8651C39.1115 22.8684 39.0903 22.8948 39.0919 22.9245C39.0951 22.9542 39.1196 22.9756 39.149 22.9723C39.1783 22.969 39.1995 22.9426 39.1979 22.913C39.1946 22.8833 39.1702 22.8618 39.1408 22.8651Z" fill="#FF58E2"/>
<path d="M37.9097 21.6872C37.8917 21.6377 37.9145 21.5816 37.9635 21.5635C38.0108 21.5453 38.0662 21.5717 38.0841 21.6212C38.1021 21.6707 38.0792 21.7268 38.0303 21.7449C37.983 21.7631 37.9276 21.7367 37.9097 21.6872Z" fill="#FF58E2"/>
<path d="M32.0716 22.319C32.0471 22.3289 32.0357 22.3553 32.0455 22.3801C32.0553 22.4048 32.0814 22.418 32.1058 22.4081C32.1303 22.3982 32.1417 22.3718 32.1319 22.3471C32.1221 22.3223 32.096 22.3091 32.0716 22.319Z" fill="#FF58E2"/>
<path d="M38.6695 23.4772C38.694 23.4887 38.7054 23.52 38.694 23.5448C38.6826 23.5695 38.6532 23.5811 38.6288 23.5695C38.6043 23.558 38.5929 23.5266 38.6043 23.5019C38.6157 23.4772 38.6451 23.4656 38.6695 23.4772Z" fill="#FF58E2"/>
<path d="M38.4769 23.3567C38.4818 23.3435 38.4769 23.3287 38.4639 23.3237C38.4508 23.3171 38.4362 23.3237 38.4313 23.3353C38.4264 23.3484 38.4313 23.3633 38.4443 23.3682C38.4573 23.3748 38.4704 23.3682 38.4769 23.3567Z" fill="#FF58E2"/>
<path d="M32.1808 22.0435C32.1596 22.0254 32.1563 21.994 32.1742 21.9726C32.1922 21.9512 32.2215 21.9479 32.2427 21.966C32.2639 21.9841 32.2672 22.0155 32.2493 22.0369C32.2313 22.0584 32.2003 22.0617 32.1808 22.0435Z" fill="#FF58E2"/>
<path d="M33.3858 21.2286C33.3777 21.2385 33.3793 21.2549 33.3891 21.2648C33.4005 21.273 33.4151 21.2731 33.4233 21.2615C33.4314 21.25 33.4298 21.2352 33.42 21.2253C33.4102 21.2154 33.394 21.217 33.3858 21.2286Z" fill="#FF58E2"/>
<path d="M40.4762 23.3023C40.3996 23.4722 40.4762 23.6718 40.6491 23.7527C40.8203 23.8318 41.0225 23.7593 41.0975 23.591C41.1726 23.4227 41.0975 23.2214 40.9247 23.1406C40.7535 23.0614 40.5512 23.134 40.4762 23.3023Z" fill="#FF58E2"/>
<path d="M37.6471 19.9369C37.6096 20.021 37.6471 20.1216 37.7335 20.1612C37.8199 20.2008 37.9194 20.1645 37.9585 20.0804C37.996 19.9963 37.9585 19.8956 37.8721 19.856C37.7857 19.8164 37.6862 19.8527 37.6471 19.9369Z" fill="#FF58E2"/>
<path d="M42.2602 21.7532C42.1624 21.7614 42.0727 21.6888 42.0629 21.5899C42.0531 21.4925 42.1233 21.4051 42.2227 21.3968C42.3206 21.3886 42.4103 21.4612 42.4201 21.5585C42.4298 21.6559 42.3597 21.7433 42.2602 21.7515V21.7532Z" fill="#FF58E2"/>
<path d="M43.0725 21.773C43.0774 21.8225 43.1214 21.8588 43.1703 21.8538C43.2192 21.8505 43.2551 21.806 43.2502 21.7581C43.2453 21.7086 43.2013 21.6724 43.1524 21.6773C43.1035 21.6806 43.0676 21.7251 43.0725 21.773Z" fill="#FF58E2"/>
<path d="M39.0983 24.7144C38.9287 24.8365 38.8895 25.0757 39.0102 25.2473C39.1309 25.4189 39.3673 25.4585 39.5369 25.3364C39.7065 25.2143 39.7457 24.9751 39.625 24.8035C39.5043 24.632 39.2678 24.5924 39.0983 24.7144Z" fill="#FF58E2"/>
<path d="M37.0305 21.3441C36.6913 21.5882 36.6114 22.065 36.8543 22.4081C37.0957 22.7513 37.4006 22.7331 37.7398 22.489C38.079 22.2448 38.3253 21.867 38.0839 21.5239C37.8426 21.1807 37.3713 21.0999 37.0321 21.3457L37.0305 21.3441Z" fill="#FF58E2"/>
<path d="M41.9717 17.6438C42.1886 17.68 42.3338 17.8879 42.2979 18.1073C42.262 18.3267 42.0565 18.4736 41.8396 18.4373C41.6228 18.401 41.4776 18.1931 41.5135 17.9737C41.5494 17.7543 41.7548 17.6075 41.9717 17.6438Z" fill="#FF58E2"/>
<path d="M41.0764 16.8453C41.0944 16.7364 41.021 16.6325 40.9134 16.6127C40.8057 16.5945 40.703 16.6687 40.6851 16.7776C40.6671 16.8865 40.7405 16.9904 40.8481 17.0102C40.9558 17.0284 41.0585 16.9541 41.0764 16.8453Z" fill="#FF58E2"/>
<path d="M39.4148 22.3537C39.2142 22.2613 39.1261 22.0221 39.2175 21.8208C39.3088 21.6179 39.5452 21.5288 39.7442 21.6212C39.9431 21.7136 40.0328 21.9528 39.9415 22.1541C39.8502 22.3553 39.6137 22.4461 39.4148 22.3537Z" fill="#FF58E2"/>
<path d="M40.9607 23.2874C40.915 23.3881 40.9607 23.5085 41.0585 23.5547C41.158 23.6009 41.277 23.5547 41.3227 23.4557C41.3683 23.3551 41.3227 23.2346 41.2248 23.1901C41.1254 23.1439 41.0063 23.1901 40.9623 23.2891L40.9607 23.2874Z" fill="#FF58E2"/>
<path d="M39.2386 19.2027C39.1538 19.3033 39.0038 19.3182 38.9027 19.2357C38.8016 19.1532 38.7869 19.0047 38.8717 18.9041C38.9565 18.8035 39.1065 18.7886 39.2076 18.8711C39.3087 18.9536 39.3234 19.1021 39.2386 19.2027Z" fill="#FF58E2"/>
<path d="M40.0166 18.4604C40.0671 18.5016 40.1421 18.495 40.1845 18.4439C40.2269 18.3944 40.2204 18.3201 40.1682 18.2789C40.116 18.2376 40.0426 18.2442 40.0002 18.2954C39.9578 18.3465 39.9644 18.4191 40.0166 18.4604Z" fill="#FF58E2"/>
<path d="M36.7924 18.5379C36.8658 18.5313 36.9196 18.4637 36.9115 18.3878C36.9033 18.3119 36.8397 18.2558 36.7663 18.2624C36.693 18.269 36.6391 18.3366 36.6473 18.4125C36.6555 18.4884 36.7191 18.5445 36.7924 18.5379Z" fill="#FF58E2"/>
<path d="M34.3528 20.021C34.3284 20.0523 34.3333 20.0985 34.3626 20.1233C34.392 20.1497 34.436 20.1447 34.4604 20.1134C34.4849 20.082 34.48 20.0358 34.4507 20.0111C34.4213 19.9847 34.3773 19.9896 34.3528 20.021Z" fill="#FF58E2"/>
<path d="M36.2854 19.2176C36.331 19.2836 36.2886 19.4122 36.2267 19.4601C36.1631 19.5063 36.1027 19.4518 36.0571 19.3859C36.0114 19.3199 36.0261 19.2291 36.0897 19.1829C36.1533 19.1367 36.2397 19.1516 36.2854 19.2176Z" fill="#FF58E2"/>
<path d="M36.4517 18.9751C36.4827 18.952 36.4909 18.9058 36.468 18.8728C36.4452 18.8398 36.4012 18.8315 36.3702 18.8563C36.3392 18.8794 36.331 18.9256 36.3539 18.9569C36.3767 18.9899 36.4207 18.9982 36.4517 18.9751Z" fill="#FF58E2"/>
<path d="M40.5317 20.4054C40.5383 20.4763 40.4893 20.539 40.4208 20.5456C40.3524 20.5522 40.292 20.501 40.2855 20.4301C40.279 20.3592 40.3279 20.2981 40.3964 20.2915C40.4649 20.2849 40.5252 20.3361 40.5317 20.407V20.4054Z" fill="#FF58E2"/>
<path d="M40.5383 19.8247C40.5726 19.8214 40.597 19.79 40.5938 19.7554C40.5905 19.7207 40.5595 19.6943 40.5269 19.6976C40.4943 19.7009 40.4682 19.7323 40.4715 19.7669C40.4747 19.8016 40.5057 19.828 40.5383 19.8247Z" fill="#FF58E2"/>
<path d="M40.442 22.23C40.4142 22.2069 40.4094 22.164 40.4322 22.1343C40.455 22.1062 40.4958 22.1013 40.5235 22.126C40.5512 22.1491 40.5561 22.192 40.5333 22.2217C40.5105 22.2498 40.4697 22.2547 40.442 22.23Z" fill="#FF58E2"/>
<path d="M40.6476 22.451C40.6362 22.4658 40.6378 22.4872 40.6525 22.4988C40.6672 22.5103 40.6867 22.5087 40.6981 22.4938C40.7095 22.479 40.7079 22.4576 40.6932 22.446C40.6786 22.4345 40.659 22.4362 40.6476 22.451Z" fill="#FF58E2"/>
<path d="M40.3035 20.1414C40.3247 20.1711 40.3182 20.214 40.2888 20.2355C40.2595 20.2569 40.2187 20.2503 40.1975 20.219C40.1763 20.1893 40.1828 20.1464 40.2122 20.1249C40.2415 20.1035 40.2823 20.1101 40.3035 20.1414Z" fill="#FF58E2"/>
<path d="M40.1598 19.8724C40.1745 19.8609 40.1777 19.8411 40.168 19.8246C40.1582 19.8098 40.137 19.8065 40.1224 19.8164C40.1077 19.8279 40.1045 19.8477 40.1142 19.8642C40.124 19.879 40.1452 19.8823 40.1598 19.8724Z" fill="#FF58E2"/>
<path d="M32.9423 21.3903C33.0548 21.4035 33.1364 21.5041 33.1233 21.6163C33.1103 21.7268 33.0075 21.806 32.895 21.7928C32.7825 21.7796 32.701 21.6773 32.714 21.5668C32.7271 21.4562 32.8298 21.3771 32.9423 21.3903Z" fill="#FF58E2"/>
<path d="M31.5726 21.8093C31.6281 21.7862 31.6917 21.8109 31.7161 21.8654C31.7406 21.9198 31.7161 21.9825 31.6591 22.0056C31.6036 22.0287 31.54 22.0039 31.5155 21.9495C31.4911 21.8951 31.5155 21.8324 31.5726 21.8093Z" fill="#FF58E2"/>
<path d="M31.6671 22.0551C31.6932 21.834 31.8905 21.6773 32.109 21.7021C32.3275 21.7285 32.4825 21.9281 32.458 22.1491C32.4319 22.3702 32.2346 22.5269 32.0161 22.5022C31.7975 22.4758 31.6426 22.2762 31.6671 22.0551Z" fill="#FF58E2"/>
<path d="M34.5779 20.9234C34.4572 20.8722 34.3985 20.732 34.4442 20.6099C34.4915 20.4862 34.6252 20.4285 34.7459 20.4779C34.8665 20.5291 34.9252 20.6693 34.8796 20.7914C34.8323 20.9151 34.6986 20.9729 34.5779 20.9234Z" fill="#FF58E2"/>
<path d="M35.5155 21.4464C35.4927 21.5074 35.5221 21.5783 35.5824 21.6031C35.6427 21.6278 35.7096 21.5981 35.7341 21.5371C35.7585 21.4761 35.7275 21.4051 35.6672 21.3804C35.6069 21.3556 35.54 21.3853 35.5155 21.4464Z" fill="#FF58E2"/>
<path d="M33.8424 22.5368C33.7788 22.5648 33.7038 22.5368 33.6777 22.4725C33.6516 22.4081 33.681 22.3355 33.7462 22.3075C33.8114 22.2794 33.8848 22.3075 33.9109 22.3718C33.937 22.4362 33.9076 22.5087 33.844 22.5368H33.8424Z" fill="#FF58E2"/>
<path d="M34.3905 22.3669C34.4035 22.3982 34.441 22.4131 34.4736 22.3982C34.5063 22.3834 34.5209 22.3471 34.5079 22.3158C34.4948 22.2844 34.4573 22.2696 34.4247 22.2844C34.3921 22.2993 34.3774 22.3356 34.3905 22.3669Z" fill="#FF58E2"/>
<path d="M32.0977 23.007C32.1124 22.9723 32.1499 22.9558 32.1841 22.969C32.2184 22.9822 32.2347 23.0202 32.22 23.0548C32.2053 23.0895 32.1678 23.106 32.1336 23.0928C32.0993 23.0796 32.083 23.0416 32.0977 23.007Z" fill="#FF58E2"/>
<path d="M34.0219 22.2366C33.999 22.2663 33.9583 22.2729 33.9289 22.2514C33.8996 22.23 33.8947 22.1887 33.9159 22.159C33.9387 22.1293 33.9795 22.1227 34.0088 22.1442C34.0382 22.1656 34.0431 22.2069 34.0219 22.2366Z" fill="#FF58E2"/>
<path d="M34.2289 22.0154C34.2436 22.0269 34.2648 22.0236 34.2762 22.0088C34.2876 21.994 34.2843 21.9742 34.2697 21.9627C34.255 21.9528 34.2338 21.9544 34.2224 21.9693C34.211 21.9841 34.2143 22.0039 34.2289 22.0154Z" fill="#FF58E2"/>
<path d="M36.7663 19.8296C36.7353 19.8923 36.6603 19.9187 36.6 19.889C36.5396 19.8577 36.5152 19.7818 36.5462 19.7191C36.5771 19.6548 36.6522 19.6284 36.7125 19.6597C36.7728 19.691 36.7973 19.7669 36.7663 19.8296Z" fill="#FF58E2"/>
<path d="M35.2286 20.4202C35.2596 20.4351 35.2971 20.4219 35.3118 20.3905C35.3281 20.3592 35.3151 20.3212 35.2841 20.3047C35.2531 20.2899 35.2156 20.3031 35.2009 20.3344C35.1846 20.3658 35.1976 20.4037 35.2286 20.4202Z" fill="#FF58E2"/>
<path d="M34.5373 21.8967C34.5014 21.9 34.4688 21.872 34.4639 21.8357C34.4606 21.7994 34.4867 21.7664 34.5226 21.7631C34.5585 21.7598 34.5911 21.7878 34.596 21.8241C34.5992 21.8604 34.5732 21.8934 34.5373 21.8951V21.8967Z" fill="#FF58E2"/>
<path d="M34.8373 21.9049C34.8389 21.923 34.8552 21.9362 34.8731 21.9346C34.891 21.9346 34.9041 21.9164 34.9024 21.8983C34.9008 21.8802 34.8845 21.867 34.8666 21.8687C34.8487 21.8687 34.8357 21.8868 34.8373 21.9049Z" fill="#FF58E2"/>
<path d="M34.8649 20.5637C34.8665 20.6 34.8388 20.633 34.8029 20.6363C34.7671 20.6396 34.7361 20.6116 34.7344 20.5736C34.7328 20.5374 34.7605 20.5044 34.7964 20.5011C34.8323 20.4978 34.8633 20.5258 34.8649 20.5637Z" fill="#FF58E2"/>
<path d="M34.8812 20.2585C34.8992 20.2585 34.9138 20.2403 34.9122 20.2222C34.9122 20.2041 34.8959 20.1893 34.878 20.1909C34.8601 20.1909 34.8454 20.209 34.847 20.2272C34.847 20.2453 34.8633 20.2601 34.8812 20.2585Z" fill="#FF58E2"/>
<path d="M43.3497 20.6479C43.2649 20.7485 43.1148 20.7634 43.0137 20.6809C42.9126 20.5984 42.898 20.4499 42.9828 20.3493C43.0676 20.2486 43.2176 20.2338 43.3187 20.3163C43.4198 20.3988 43.4345 20.5472 43.3497 20.6479Z" fill="#FF58E2"/>
<path d="M43.7411 16.837C43.9091 16.6589 43.8993 16.3735 43.7183 16.1986C43.5373 16.0237 43.2552 16.0254 43.0856 16.2035C42.9176 16.3817 42.9274 16.6671 43.1084 16.842C43.2894 17.0169 43.5715 17.0152 43.7411 16.837Z" fill="#FF58E2"/>
<path d="M41.3178 14.1298C41.3063 14.0078 41.1955 13.917 41.0715 13.9302C40.9476 13.9434 40.8546 14.0523 40.8677 14.1744C40.8807 14.2965 40.99 14.3872 41.1139 14.374C41.2379 14.3608 41.3308 14.2536 41.3178 14.1298Z" fill="#FF58E2"/>
<path d="M44.1274 19.9038C44.1779 19.9451 44.253 19.9385 44.2954 19.8873C44.3378 19.8362 44.3312 19.7636 44.279 19.7224C44.2269 19.6811 44.1535 19.6877 44.1111 19.7389C44.0687 19.79 44.0752 19.8626 44.1274 19.9038Z" fill="#FF58E2"/>
<path d="M42.4919 16.0204C42.6191 16.0534 42.6974 16.1837 42.668 16.3108C42.6387 16.4378 42.5115 16.5153 42.3859 16.4807C42.2587 16.4477 42.1804 16.3174 42.2098 16.1903C42.2391 16.0633 42.3663 15.9858 42.4919 16.0188V16.0204Z" fill="#FF58E2"/>
<path d="M41.4875 15.5008C41.45 15.448 41.3749 15.4364 41.3211 15.4744C41.2673 15.5123 41.2543 15.5849 41.2934 15.6377C41.3309 15.6905 41.4059 15.702 41.4597 15.6641C41.5136 15.6261 41.5266 15.5535 41.4875 15.4991V15.5008Z" fill="#FF58E2"/>
<path d="M122.349 47.0681C122.349 47.4294 122.226 47.7214 121.887 47.7214C121.548 47.7214 121.272 47.4294 121.272 47.0681C121.272 46.7068 121.548 46.4148 121.887 46.4148C122.226 46.4148 122.349 46.7068 122.349 47.0681Z" fill="white"/>
<path d="M106.408 52.6244C106.408 53.1655 106.239 53.6043 105.762 53.6043C105.286 53.6043 104.901 53.1655 104.901 52.6244C104.901 52.0833 105.288 51.6444 105.762 51.6444C106.237 51.6444 106.408 52.0833 106.408 52.6244Z" fill="#46FFFF"/>
<path d="M97.4996 8.23208C97.8176 8.39706 98.0182 8.63956 97.8633 8.94641C97.7084 9.25161 97.3251 9.36709 97.0071 9.20212C96.6892 9.03715 96.5587 8.65606 96.7136 8.34921C96.8685 8.04402 97.1816 8.06711 97.4996 8.23208Z" fill="white"/>
<path d="M120.413 43.6466C120.251 43.2062 117.766 32.2718 116.643 26.6496C116.424 25.5542 116.533 25.5789 117.608 25.7125C118.683 25.8478 122.239 26.1481 123.428 26.3213C124.495 26.4764 124.289 26.1052 124.72 27.3936C125.011 28.2696 127.436 37.998 128.744 43.5212C129.008 44.6381 129.137 44.4088 129.675 44.8443C130.214 45.2798 130.112 45.5982 129.137 45.4976C127.74 45.3541 123.105 44.6447 121.706 44.5177C120.633 44.4203 120.617 44.196 120.414 43.6466H120.413Z" fill="white"/>
<path d="M36.6001 24.7062C36.1826 24.7474 36.2429 25.404 36.662 25.3628C37.0811 25.3215 37.0192 24.6649 36.6001 24.7062Z" fill="#FF58E2"/>
<path d="M35.8842 23.6916C35.863 23.6372 35.8304 23.5926 35.7863 23.5547C35.7635 23.5398 35.739 23.525 35.7162 23.5101C35.6624 23.4854 35.607 23.4755 35.5482 23.4805L35.5173 23.4838C35.4716 23.4871 35.4308 23.5003 35.395 23.525C35.3558 23.5415 35.3232 23.5679 35.2971 23.6025C35.2678 23.6355 35.2498 23.6735 35.24 23.7147C35.2237 23.756 35.2188 23.7989 35.2237 23.8434C35.2303 23.8714 35.2368 23.9011 35.2433 23.9292C35.2645 23.9836 35.2971 24.0282 35.3411 24.0661C35.364 24.081 35.3884 24.0958 35.4113 24.1106C35.4651 24.1354 35.5205 24.1453 35.5792 24.1403L35.6102 24.137C35.6559 24.1337 35.6966 24.1205 35.7325 24.0975C35.7717 24.081 35.8043 24.0546 35.8304 24.0199C35.8597 23.9869 35.8777 23.949 35.8874 23.9077C35.9037 23.8665 35.9086 23.8236 35.9037 23.7791C35.8972 23.751 35.8907 23.7213 35.8842 23.6933V23.6916Z" fill="#FF58E2"/>
<path d="M38.001 24.7062C37.5835 24.7474 37.6438 25.404 38.0629 25.3628C38.4804 25.3215 38.42 24.6649 38.001 24.7062Z" fill="#FF58E2"/>
<path d="M31.7177 24.0925C31.3003 24.1337 31.3606 24.7903 31.7797 24.7491C32.1972 24.7078 32.1368 24.0513 31.7177 24.0925Z" fill="#FF58E2"/>
<path d="M36.7029 23.812C36.2854 23.8533 36.3457 24.5099 36.7648 24.4686C37.1823 24.4274 37.122 23.7708 36.7029 23.812Z" fill="#FF58E2"/>
<path d="M38.3108 25.2572C38.2896 25.2027 38.257 25.1582 38.2129 25.1203C38.2097 25.117 38.2048 25.1153 38.2015 25.112C38.226 25.0576 38.2358 25.0015 38.2309 24.9421C38.2244 24.914 38.2178 24.8843 38.2113 24.8563C38.1901 24.8019 38.1575 24.7573 38.1135 24.7194L38.0792 24.6913C38.0466 24.6616 38.0091 24.6435 37.9683 24.6336C37.9276 24.6171 37.8852 24.6121 37.8411 24.6171C37.7955 24.6204 37.7547 24.6336 37.7188 24.6583C37.6797 24.6748 37.6471 24.7012 37.621 24.7359C37.6063 24.759 37.5916 24.7837 37.577 24.8068C37.5525 24.8613 37.5427 24.9173 37.5476 24.9767C37.5541 25.0048 37.5607 25.0345 37.5672 25.0625C37.5884 25.117 37.621 25.1615 37.665 25.1994L37.6895 25.2192C37.6797 25.2374 37.6732 25.2572 37.6683 25.2786C37.652 25.3199 37.6471 25.3628 37.652 25.4073L37.6715 25.4931C37.6927 25.5475 37.7254 25.5921 37.7694 25.63C37.7922 25.6449 37.8167 25.6597 37.8395 25.6746C37.8933 25.6993 37.9488 25.7092 38.0075 25.7043L38.0385 25.701C38.0841 25.6977 38.1249 25.6845 38.1608 25.6614C38.1999 25.6449 38.2325 25.6185 38.2586 25.5838C38.288 25.5508 38.3059 25.5129 38.3157 25.4716C38.332 25.4304 38.3369 25.3875 38.332 25.343L38.3124 25.2572H38.3108Z" fill="#FF58E2"/>
<path d="M31.3263 24.236C31.2219 24.2459 31.2366 24.4109 31.3426 24.401C31.4486 24.3911 31.4323 24.2261 31.3263 24.236Z" fill="#FF58E2"/>
<path d="M35.8042 25.536C35.8042 25.536 35.7944 25.5393 35.7879 25.541C35.7977 25.4024 35.7048 25.2539 35.5286 25.2704C35.4308 25.2803 35.3688 25.3331 35.3378 25.4024C35.3313 25.3644 35.302 25.3314 35.253 25.3364C35.1487 25.3463 35.1634 25.5113 35.2694 25.5014C35.2906 25.4997 35.3069 25.4898 35.3183 25.4766C35.3003 25.6201 35.3917 25.7818 35.5743 25.7637C35.6542 25.7554 35.7113 25.7175 35.7455 25.6647C35.7602 25.6878 35.783 25.7043 35.8173 25.701C35.9216 25.6911 35.907 25.5261 35.801 25.536H35.8042Z" fill="#FF58E2"/>
<path d="M35.8434 24.6171C35.739 24.627 35.7537 24.792 35.8597 24.7821C35.9657 24.7722 35.9494 24.6072 35.8434 24.6171Z" fill="#FF58E2"/>
<path d="M31.9835 24.2657C31.8791 24.2756 31.8938 24.4406 31.9998 24.4307C32.1058 24.4208 32.0895 24.2558 31.9835 24.2657Z" fill="#FF58E2"/>
<path d="M31.9901 22.6869C31.9314 22.6919 31.9118 22.7463 31.9232 22.7909C31.8352 22.814 31.8531 22.9608 31.9526 22.9509C32.0113 22.9459 32.0308 22.8915 32.0194 22.847C32.1075 22.8239 32.0895 22.677 31.9901 22.6869Z" fill="#FF58E2"/>
<path d="M32.2168 23.5778C32.2119 23.5646 32.2037 23.553 32.1923 23.5431C32.1858 23.5398 32.1809 23.5349 32.1744 23.5316C32.1613 23.525 32.1466 23.5233 32.132 23.525L32.101 23.5283C32.0896 23.5283 32.0798 23.5316 32.07 23.5382C32.0602 23.5431 32.052 23.5497 32.0455 23.558C32.039 23.5662 32.0341 23.5761 32.0308 23.586C32.026 23.5959 32.026 23.6075 32.0276 23.619C32.0292 23.6256 32.0308 23.6339 32.0325 23.6405C32.0374 23.6537 32.0455 23.6652 32.0569 23.6751C32.0635 23.6784 32.0684 23.6834 32.0749 23.6867C32.0879 23.6932 32.1026 23.6949 32.1173 23.6932L32.1483 23.69C32.1597 23.69 32.1695 23.6866 32.1792 23.6801C32.189 23.6751 32.1972 23.6685 32.2037 23.6603C32.2102 23.652 32.2151 23.6421 32.2184 23.6322C32.2233 23.6223 32.2233 23.6108 32.2216 23.5992C32.22 23.5926 32.2184 23.5844 32.2168 23.5778Z" fill="#FF58E2"/>
<path d="M33.8539 21.7449C33.5408 21.7746 33.5865 22.2679 33.9012 22.2382C34.216 22.2085 34.1687 21.7152 33.8539 21.7449Z" fill="#FF58E2"/>
<path d="M30.8762 23.2132C30.8436 22.9311 30.6365 22.6688 30.2745 22.7034C29.5439 22.7744 29.6516 23.9242 30.3838 23.8533C30.5648 23.8351 30.6936 23.7527 30.7751 23.6388C30.9757 23.591 31.0002 23.3336 30.8762 23.2132Z" fill="#FF58E2"/>
<path d="M27.7322 25.1516C27.1028 25.1516 27.1011 26.1414 27.7322 26.1414C28.3633 26.1414 28.3633 25.1516 27.7322 25.1516Z" fill="#FF58E2"/>
<path d="M31.7781 26.897C31.3606 26.9382 31.4209 27.5948 31.84 27.5536C32.2575 27.5124 32.1971 26.8558 31.7781 26.897Z" fill="#FF58E2"/>
<path d="M35.4667 24.3532C35.3672 24.2245 35.2172 24.1024 35.0508 24.0892C34.9253 24.0793 34.7997 24.0678 34.6741 24.0579C34.4964 24.043 34.3301 24.0628 34.18 24.1733C34.0528 24.2657 33.9387 24.434 33.9191 24.594C33.8979 24.7656 33.924 24.9537 34.0333 25.0939C34.1327 25.2226 34.2828 25.3446 34.4491 25.3578C34.5747 25.3677 34.7002 25.3793 34.8258 25.3892C35.0036 25.404 35.1699 25.3842 35.3199 25.2737C35.4471 25.1813 35.5613 25.013 35.5808 24.853C35.602 24.6814 35.5759 24.4934 35.4667 24.3532Z" fill="#FF58E2"/>
<path d="M32.2199 25.4354C31.9068 25.4651 31.9525 25.9583 32.2672 25.9286C32.5819 25.8989 32.5346 25.4057 32.2199 25.4354Z" fill="#FF58E2"/>
<path d="M31.6704 22.9311C31.3573 22.9608 31.4029 23.4541 31.7176 23.4244C32.0324 23.3947 31.9851 22.9014 31.6704 22.9311Z" fill="#FF58E2"/>
<path d="M31.5561 22.0584C31.243 22.0881 31.2887 22.5813 31.6034 22.5517C31.9181 22.522 31.8708 22.0287 31.5561 22.0584Z" fill="#FF58E2"/>
<path d="M30.9204 21.9314C30.6073 21.9611 30.6529 22.4543 30.9676 22.4246C31.2824 22.3949 31.2351 21.9017 30.9204 21.9314Z" fill="#FF58E2"/>
<path d="M26.2353 28.3669C26.1945 28.2894 26.139 28.2283 26.0673 28.1821C26.0037 28.1244 25.9303 28.0848 25.8455 28.0634C25.7591 28.0353 25.6727 28.032 25.5846 28.0518C25.4982 28.0551 25.4166 28.0815 25.3416 28.1294C25.2943 28.1607 25.2503 28.1986 25.2095 28.2399C25.1851 28.2564 25.159 28.2712 25.1378 28.291C25.0889 28.3207 25.0497 28.3603 25.0204 28.4098C24.9633 28.4741 24.9242 28.5484 24.903 28.6342C24.8948 28.6919 24.8866 28.7513 24.8801 28.809C24.8883 28.8668 24.8964 28.9262 24.903 28.9839C24.9176 29.0482 24.947 29.1027 24.9829 29.1555C25.0041 29.2017 25.0302 29.2446 25.0644 29.2842C25.1101 29.3567 25.172 29.4128 25.247 29.4541C25.3987 29.5349 25.5813 29.5762 25.7493 29.5201C25.8928 29.4739 26.0314 29.3848 26.113 29.2545C26.1554 29.2116 26.201 29.1472 26.2222 29.1126C26.2255 29.1076 26.2271 29.1043 26.2304 29.0994C26.2434 29.0713 26.2548 29.0433 26.2662 29.0136C26.2793 28.9872 26.2907 28.9592 26.3005 28.9311C26.3184 28.8651 26.3282 28.7942 26.3282 28.7266C26.3282 28.5632 26.294 28.5137 26.232 28.3669H26.2353Z" fill="#FF58E2"/>
<path d="M37.8981 25.9022C37.8019 25.7802 37.6845 25.7076 37.5328 25.6713C37.4823 25.6597 37.4366 25.6581 37.3844 25.6564C37.3323 25.6548 37.2784 25.6498 37.2263 25.6581C37.0648 25.6861 36.9604 25.7307 36.8202 25.8115C36.7028 25.8808 36.6147 26.0507 36.5919 26.181C36.5674 26.3229 36.6017 26.5044 36.6914 26.6182C36.7811 26.7337 36.9083 26.8294 37.0567 26.8492C37.1072 26.8508 37.1594 26.8525 37.2099 26.8558C37.2687 26.8492 37.3241 26.8343 37.3763 26.8129C37.5084 26.8294 37.6649 26.7832 37.7677 26.7089C37.8785 26.6281 37.978 26.4796 37.996 26.3394C38.0155 26.1893 37.9927 26.0243 37.8965 25.9022H37.8981Z" fill="#FF58E2"/>
<path d="M34.8585 22.7876C34.7541 22.7975 34.7688 22.9624 34.8748 22.9525C34.9808 22.9426 34.9645 22.7777 34.8585 22.7876Z" fill="#FF58E2"/>
<path d="M31.0817 25.8758C30.9773 25.8857 30.992 26.0507 31.098 26.0408C31.204 26.0309 31.1877 25.8659 31.0817 25.8758Z" fill="#FF58E2"/>
<path d="M31.398 23.553C31.3931 23.5431 31.3866 23.5349 31.3784 23.5283C31.3703 23.5217 31.3605 23.5167 31.3507 23.5134C31.3409 23.5085 31.3295 23.5085 31.3181 23.5101C31.3116 23.5118 31.3034 23.5134 31.2969 23.5151C31.2839 23.52 31.2725 23.5283 31.2627 23.5398L31.2513 23.558C31.2447 23.5712 31.2431 23.586 31.2447 23.6009L31.248 23.6322C31.248 23.6438 31.2512 23.6537 31.2578 23.6636C31.2627 23.6735 31.2692 23.6817 31.2773 23.6883C31.2855 23.6949 31.2953 23.6999 31.3051 23.7032C31.3148 23.7081 31.3263 23.7081 31.3377 23.7065C31.3442 23.7048 31.3524 23.7032 31.3589 23.7015C31.3719 23.6966 31.3833 23.6883 31.3931 23.6768L31.4045 23.6586C31.4111 23.6454 31.4127 23.6306 31.4111 23.6157L31.4078 23.5844C31.4078 23.5728 31.4045 23.5629 31.398 23.553Z" fill="#FF58E2"/>
<path d="M31.0768 22.5863C30.9724 22.5962 30.9871 22.7612 31.0931 22.7513C31.1974 22.7414 31.1828 22.5764 31.0768 22.5863Z" fill="#FF58E2"/>
<path d="M27.3898 23.6157C27.2854 23.6157 27.2854 23.7807 27.3898 23.7807C27.4942 23.7807 27.4942 23.6157 27.3898 23.6157Z" fill="#FF58E2"/>
</g>
<defs>
<radialGradient id="paint0_radial_1_181" cx="0" cy="0" r="1" gradientUnits="userSpaceOnUse" gradientTransform="translate(110.974 40.2294) rotate(83.3171) scale(10.672 9.81381)">
<stop offset="0.43" stop-color="#45FDFF"/>
<stop offset="1" stop-color="#46FFFF" stop-opacity="0"/>
</radialGradient>
<radialGradient id="paint1_radial_1_181" cx="0" cy="0" r="1" gradientUnits="userSpaceOnUse" gradientTransform="translate(29.6801 27.2786) rotate(-27.38) scale(18.0077 13.2344)">
<stop offset="0.41" stop-color="#FF58E2"/>
<stop offset="1" stop-color="white" stop-opacity="0"/>
</radialGradient>
<clipPath id="clip0_1_181">
<rect width="130" height="61" fill="white"/>
</clipPath>
</defs>
</svg>
