<svg width="53" height="69" viewBox="0 0 53 69" fill="none" xmlns="http://www.w3.org/2000/svg">
<g clip-path="url(#clip0_200_22)">
<path d="M43.099 1.24552C39.3625 -0.0896127 35.1424 -0.212828 26.222 2.09516C19.9556 3.71534 14.2588 5.22335 11.2561 6.11896C9.98385 6.49963 10.1372 6.48308 9.05293 6.72584C8.582 6.83066 8.57104 6.84721 8.57104 7.33272C8.57104 7.9396 8.81199 13.4052 8.81199 14.1335C8.81199 14.8617 8.93976 14.63 9.77576 14.3762C10.2923 14.2199 28.1514 9.50093 33.3353 8.1658C38.5192 6.83066 42.3269 9.51748 43.0497 13.2838C43.7725 17.0483 42.6189 18.6115 39.9156 21.1788C37.2123 23.7461 30.6831 26.2802 25.7419 27.963C26.023 27.1942 26.8262 25.1217 27.7918 22.9829C28.9965 20.3108 30.3198 17.2708 30.6849 16.6676C31.1157 15.9559 30.9131 15.9946 30.1519 15.9559C27.7918 15.8346 23.6428 15.5918 22.3669 15.3325C21.9069 15.2387 22.0018 15.2277 21.7134 15.9559C20.7496 18.3853 10.9841 38.1825 10.6227 38.7893C10.2613 39.3962 10.5351 39.1479 10.8637 39.3962C11.2944 39.7217 18.9407 44.1336 24.3656 48.1408C28.7063 51.3481 33.5781 55.153 34.0599 55.6551C34.5418 56.1571 34.7828 56.9479 34.7828 59.3148V66.7077C34.7828 67.6621 34.8302 68.2874 35.5056 68.2874C36.3489 68.2874 35.867 65.8746 35.867 63.8093V58.9506C35.867 57.5107 36.0769 56.0652 36.9002 54.822C37.1411 54.4579 41.0491 48.6116 41.8943 48.0047C42.7376 47.3978 42.1754 47.2195 41.5328 46.791C36.108 43.1644 31.4771 40.4923 26.7057 37.0735C28.584 36.6046 35.1095 34.5191 38.5886 32.8529C43.4494 30.5247 49.0806 26.6333 51.1779 20.0698C54.5529 9.50277 46.8373 2.58066 43.1008 1.24368L43.099 1.24552Z" fill="white"/>
<path d="M24.3621 48.1463C28.7027 51.3536 33.5745 55.1586 34.0564 55.6606C34.5383 56.1627 34.7792 56.9535 34.7792 59.3203V66.7132C34.7792 67.6676 34.8267 68.2929 35.5021 68.2929C36.3454 68.2929 35.8635 65.8801 35.8635 63.8149V58.9562C35.8635 57.5162 36.0734 56.0707 36.8966 54.8275C37.1376 54.4634 41.0456 48.6171 41.8907 48.0103C42.734 47.4034 42.1718 47.225 41.5293 46.7965C36.1044 43.1699 31.4736 40.4978 26.7022 37.079C28.5804 36.6101 35.106 34.5246 38.5851 32.8585C43.4459 30.5303 49.0771 26.6389 51.1744 20.0754C54.5494 9.5083 46.8337 2.58619 43.0973 1.24922C39.3608 -0.08592 35.1407 -0.209135 26.2203 2.09885C19.9539 3.72087 14.2571 5.22704 11.2544 6.12265C9.98214 6.50333 10.1355 6.48677 9.05122 6.72953C8.58029 6.83435 8.56934 6.8509 8.56934 7.33641C8.56934 7.94329 8.81028 13.4089 8.81028 14.1371C8.81028 14.8654 8.93805 14.6337 9.77405 14.3799C10.2906 14.2236 28.1496 9.50462 33.3336 8.16949C38.5175 6.83435 42.3233 9.52118 43.048 13.2875C43.7708 17.052 42.6172 18.6152 39.9139 21.1825C37.2106 23.7498 30.6832 26.2839 25.7402 27.9667C26.0213 27.1979 26.8245 25.1254 27.7901 22.9866C28.9948 20.3144 30.3181 17.2745 30.6832 16.6713C31.114 15.9596 30.9114 15.9982 30.1502 15.9596C27.7901 15.8382 23.6411 15.5955 22.3652 15.3362C21.9052 15.2424 22.0001 15.2314 21.7117 15.9596C20.7479 18.389 10.9824 38.1861 10.621 38.793C10.2596 39.3999 10.5334 39.1535 10.862 39.3999C11.2927 39.7254 18.939 44.1372 24.3639 48.1445L24.3621 48.1463Z" fill="url(#paint0_radial_200_22)"/>
<path d="M41.531 46.7928C36.1061 43.1662 31.4753 40.4941 26.7039 37.0772C27.2095 36.9503 28.0528 36.7076 29.0823 36.3857C28.3686 34.9494 28.1203 33.1821 28.0163 31.7035C27.9871 31.2842 27.9962 30.8668 28.0309 30.4512C27.8411 29.7174 27.7224 28.9634 27.653 28.2407C27.622 27.9299 27.6165 27.6172 27.6293 27.3083C26.9813 27.54 26.3498 27.7607 25.7401 27.9685C26.0212 27.1998 26.8243 25.1272 27.7899 22.9884C28.9947 20.3163 30.318 17.2764 30.6831 16.6732C31.1139 15.9614 30.9113 16.0001 30.1501 15.9614C27.7899 15.8401 23.641 15.5973 22.3651 15.338C21.9051 15.2442 22 15.2332 21.7116 15.9614C20.7478 18.3908 10.9823 38.188 10.6209 38.7948C10.2595 39.4017 10.5333 39.1553 10.8618 39.4017C11.2926 39.7272 18.9389 44.1391 24.3638 48.1463C28.7044 51.3536 33.5762 55.1585 34.0581 55.6606C34.54 56.1627 34.781 56.9534 34.781 59.3203V66.7132C34.781 67.6676 34.8284 68.2929 35.5038 68.2929C36.3471 68.2929 35.8652 65.8801 35.8652 63.8149V58.9561C35.8652 57.5162 36.0751 56.0707 36.8983 54.8257C37.1393 54.4616 41.0473 48.6153 41.8924 48.0084C42.7357 47.4015 42.1735 47.2231 41.531 46.7946V46.7928Z" fill="#FF58E2"/>
<path d="M0.543309 56.753C0.833536 56.2675 7.84645 44.2586 8.20787 43.5304C8.56928 42.8021 8.68976 43.0449 9.17164 43.409C10.0022 44.0361 14.1146 46.2025 15.9217 47.2949C16.6445 47.7325 16.5551 47.6535 16.1627 48.3872C14.0343 52.3687 11.864 56.3135 9.94558 60.3943C9.13696 61.8416 9.41259 63.5684 8.68976 63.3257C7.24227 62.8402 9.55131 61.2053 5.55566 59.9014C3.80882 59.3313 1.93786 58.7134 1.0252 58.4504C-0.663234 57.9649 0.181894 57.358 0.543309 56.7493V56.753Z" fill="white"/>
<path d="M32.8004 58.1047C32.8004 58.6417 32.6087 59.0757 32.0775 59.0757C31.5464 59.0757 31.1138 58.6398 31.1138 58.1047C31.1138 57.5695 31.5445 57.1337 32.0775 57.1337C32.6105 57.1337 32.8004 57.5677 32.8004 58.1047Z" fill="#FF58E2"/>
<path d="M47.0035 29.8443C46.6713 29.9087 46.3792 29.8406 46.3153 29.5059C46.2515 29.1712 46.4687 28.8475 46.8027 28.7832C47.1349 28.7188 47.4562 28.9377 47.5201 29.2742C47.5839 29.6089 47.3375 29.7818 47.0053 29.8461L47.0035 29.8443Z" fill="#FF58E2"/>
<path d="M49.9459 16.5407C50.0737 16.664 50.2744 16.6584 50.3967 16.5316C50.519 16.4047 50.5136 16.2005 50.3876 16.0773C50.2617 15.9541 50.059 15.9596 49.9368 16.0865C49.8145 16.2152 49.8199 16.4175 49.9459 16.5407Z" fill="#FF58E2"/>
<path d="M50.0077 21.1696C50.5042 21.3369 50.6138 20.822 50.5809 20.4689C50.548 20.1158 50.2231 20.0735 49.8854 19.8915C49.5478 19.7094 49.2794 20.239 49.3123 20.5921C49.3452 20.9452 49.5113 21.0022 50.0077 21.1696Z" fill="#FF58E2"/>
<path d="M39.3113 22.2914C39.3935 22.124 39.5961 22.056 39.7622 22.1388C39.9283 22.2215 39.9958 22.4256 39.9137 22.593C39.8315 22.7603 39.6289 22.8284 39.4628 22.7456C39.2967 22.6629 39.2292 22.4587 39.3113 22.2914Z" fill="#FF58E2"/>
<path d="M39.2566 24.2702C39.1982 24.3419 39.2073 24.4486 39.2785 24.5074C39.3497 24.5663 39.4556 24.5571 39.514 24.4854C39.5724 24.4136 39.5633 24.307 39.4921 24.2481C39.4209 24.1893 39.315 24.1985 39.2566 24.2702Z" fill="#FF58E2"/>
<path d="M43.8455 19.7204C43.9532 19.8731 43.9185 20.0846 43.767 20.1912C43.6155 20.2997 43.4056 20.2648 43.2979 20.1122C43.1902 19.9595 43.2249 19.748 43.3764 19.6414C43.5279 19.5329 43.7378 19.5678 43.8455 19.7204Z" fill="#FF58E2"/>
<path d="M42.5331 19.8234C42.6079 19.7701 42.6262 19.6634 42.5732 19.588C42.5203 19.5126 42.4144 19.4942 42.3396 19.5494C42.2648 19.6027 42.2465 19.7094 42.3013 19.7848C42.3542 19.8602 42.4601 19.8786 42.5349 19.8252L42.5331 19.8234Z" fill="#FF58E2"/>
<path d="M41.7575 26.2085C41.5658 26.1202 41.4782 25.8959 41.564 25.7083C41.6498 25.5189 41.8743 25.438 42.0659 25.5262C42.2576 25.6145 42.3452 25.8389 42.2594 26.0283C42.1736 26.2177 41.9491 26.2986 41.7575 26.2085Z" fill="#FF58E2"/>
<path d="M44.0665 26.9368C44.0245 27.0306 44.0665 27.1428 44.1633 27.1869C44.26 27.231 44.3714 27.1906 44.4152 27.0968C44.4571 27.003 44.4152 26.8908 44.3184 26.8467C44.2217 26.8025 44.1103 26.843 44.0665 26.9368Z" fill="#FF58E2"/>
<path d="M41.584 23.3341C41.6881 23.2974 41.803 23.3507 41.8432 23.4537C41.8834 23.5567 41.8323 23.6707 41.7282 23.7075C41.6242 23.7442 41.5092 23.6909 41.469 23.5879C41.4289 23.4849 41.48 23.3709 41.584 23.3341Z" fill="#FF58E2"/>
<path d="M41.1148 22.9958C41.0947 22.9443 41.0363 22.9167 40.9852 22.9369C40.9341 22.9553 40.9085 23.0123 40.9268 23.0638C40.9469 23.1153 41.0053 23.1429 41.0564 23.1226C41.1075 23.1043 41.133 23.0472 41.1148 22.9958Z" fill="#FF58E2"/>
<path d="M42.7851 26.0062C42.6756 26.0154 42.5752 25.9345 42.5643 25.826C42.5533 25.7175 42.6318 25.62 42.7431 25.6109C42.8545 25.6017 42.953 25.6826 42.964 25.7911C42.975 25.8996 42.8965 25.997 42.7851 26.0062Z" fill="#FF58E2"/>
<path d="M42.2903 26.3465C42.2958 26.4016 42.3451 26.4421 42.3998 26.4366C42.4546 26.4329 42.4947 26.3832 42.4893 26.3299C42.4838 26.2747 42.4345 26.2343 42.3797 26.2398C42.325 26.2435 42.2848 26.2931 42.2903 26.3465Z" fill="#FF58E2"/>
<path d="M43.8639 23.6137C43.9168 23.4978 44.0501 23.4445 44.1633 23.496C44.2764 23.5475 44.3239 23.6835 44.2709 23.8012C44.218 23.9171 44.0848 23.9704 43.9716 23.9189C43.8584 23.8675 43.811 23.7314 43.8639 23.6137Z" fill="#FF58E2"/>
<path d="M43.1829 25.5079C43.1263 25.4821 43.0587 25.5079 43.0332 25.5667C43.0076 25.6256 43.0314 25.6936 43.088 25.7193C43.1445 25.7451 43.2121 25.7193 43.2376 25.6605C43.2632 25.6016 43.2395 25.5336 43.1829 25.5079Z" fill="#FF58E2"/>
<path d="M43.2741 28.7059C43.296 28.7685 43.265 28.8402 43.2029 28.8641C43.1409 28.888 43.0733 28.8567 43.0514 28.7942C43.0295 28.7317 43.0606 28.66 43.1226 28.6361C43.1847 28.6121 43.2522 28.6434 43.2741 28.7059Z" fill="#FF58E2"/>
<path d="M43.1482 28.1726C43.1792 28.1597 43.1956 28.1248 43.1847 28.0935C43.1737 28.0623 43.139 28.0457 43.108 28.0586C43.077 28.0715 43.0606 28.1064 43.0715 28.1377C43.0825 28.1689 43.1171 28.1855 43.1482 28.1726Z" fill="#FF58E2"/>
<path d="M43.8364 25.2283C43.8309 25.1621 43.8802 25.1014 43.944 25.0941C44.0098 25.0867 44.0663 25.1345 44.0718 25.2026C44.0773 25.2688 44.028 25.3295 43.9641 25.3368C43.8984 25.3442 43.8418 25.2964 43.8364 25.2283Z" fill="#FF58E2"/>
<path d="M43.8217 25.78C43.7888 25.7837 43.7651 25.8131 43.7669 25.8462C43.7706 25.8793 43.798 25.9033 43.8308 25.8996C43.8637 25.8959 43.8874 25.8665 43.8856 25.8334C43.8819 25.8003 43.8546 25.7764 43.8217 25.78Z" fill="#FF58E2"/>
<path d="M42.4436 24.467C42.4235 24.4118 42.4491 24.3493 42.5038 24.3291C42.5568 24.3088 42.6188 24.3383 42.6389 24.3934C42.659 24.4486 42.6334 24.5111 42.5787 24.5314C42.5257 24.5516 42.4637 24.5222 42.4436 24.467Z" fill="#FF58E2"/>
<path d="M35.9091 25.1713C35.8817 25.1824 35.8689 25.2118 35.8799 25.2394C35.8908 25.2669 35.92 25.2817 35.9474 25.2706C35.9748 25.2596 35.9876 25.2302 35.9766 25.2026C35.9657 25.175 35.9365 25.1603 35.9091 25.1713Z" fill="#FF58E2"/>
<path d="M43.2943 26.4623C43.3217 26.4752 43.3345 26.5101 43.3217 26.5377C43.3089 26.5653 43.276 26.5782 43.2487 26.5653C43.2213 26.5524 43.2085 26.5175 43.2213 26.4899C43.2341 26.4623 43.2669 26.4494 43.2943 26.4623Z" fill="#FF58E2"/>
<path d="M43.0788 26.3281C43.0843 26.3134 43.0788 26.2968 43.0642 26.2913C43.0496 26.2839 43.0332 26.2913 43.0277 26.3042C43.0222 26.3189 43.0277 26.3354 43.0423 26.3409C43.0569 26.3483 43.0715 26.3409 43.0788 26.3281Z" fill="#FF58E2"/>
<path d="M36.0313 24.8642C36.0076 24.844 36.0039 24.809 36.024 24.7851C36.0441 24.7612 36.077 24.7575 36.1007 24.7778C36.1244 24.798 36.1281 24.833 36.108 24.8569C36.0879 24.8808 36.0532 24.8844 36.0313 24.8642Z" fill="#FF58E2"/>
<path d="M37.3804 23.9557C37.3712 23.9668 37.3731 23.9851 37.384 23.9962C37.3968 24.0054 37.4132 24.0054 37.4223 23.9925C37.4315 23.9796 37.4296 23.9631 37.4187 23.952C37.4077 23.941 37.3895 23.9428 37.3804 23.9557Z" fill="#FF58E2"/>
<path d="M45.3167 26.2674C45.2309 26.4568 45.3167 26.6793 45.5102 26.7694C45.7018 26.8577 45.9282 26.7768 46.0121 26.5892C46.0961 26.4016 46.0121 26.1773 45.8187 26.0872C45.627 25.9989 45.4007 26.0798 45.3167 26.2674Z" fill="#FF58E2"/>
<path d="M42.1498 22.5158C42.1078 22.6095 42.1498 22.7217 42.2465 22.7659C42.3433 22.81 42.4546 22.7695 42.4984 22.6758C42.5404 22.582 42.4984 22.4698 42.4017 22.4256C42.3049 22.3815 42.1936 22.422 42.1498 22.5158Z" fill="#FF58E2"/>
<path d="M47.3137 24.5405C47.2042 24.5497 47.1038 24.4688 47.0928 24.3585C47.0819 24.25 47.1604 24.1525 47.2717 24.1433C47.3812 24.1341 47.4816 24.215 47.4926 24.3235C47.5035 24.432 47.425 24.5295 47.3137 24.5387V24.5405Z" fill="#FF58E2"/>
<path d="M48.2227 24.5626C48.2281 24.6178 48.2774 24.6582 48.3322 24.6527C48.3869 24.649 48.4271 24.5994 48.4216 24.5461C48.4162 24.4909 48.3669 24.4504 48.3121 24.4559C48.2573 24.4596 48.2172 24.5093 48.2227 24.5626Z" fill="#FF58E2"/>
<path d="M43.7743 27.8416C43.5845 27.9777 43.5407 28.2443 43.6758 28.4356C43.8109 28.6269 44.0755 28.671 44.2654 28.5349C44.4552 28.3988 44.499 28.1322 44.3639 27.9409C44.2289 27.7496 43.9642 27.7055 43.7743 27.8416Z" fill="#FF58E2"/>
<path d="M41.4599 24.0844C41.0802 24.3566 40.9908 24.8881 41.2627 25.2706C41.5329 25.6531 41.8742 25.6329 42.2539 25.3607C42.6336 25.0886 42.9092 24.6674 42.639 24.2849C42.3689 23.9024 41.8414 23.8123 41.4617 24.0863L41.4599 24.0844Z" fill="#FF58E2"/>
<path d="M46.9907 19.9595C47.2335 20 47.3959 20.2317 47.3558 20.4763C47.3156 20.7209 47.0856 20.8845 46.8428 20.8441C46.6001 20.8036 46.4376 20.5719 46.4778 20.3273C46.5179 20.0827 46.7479 19.9191 46.9907 19.9595Z" fill="#FF58E2"/>
<path d="M45.9885 19.0694C46.0085 18.948 45.9264 18.8322 45.8059 18.8101C45.6855 18.7899 45.5705 18.8726 45.5504 18.994C45.5303 19.1154 45.6124 19.2313 45.7329 19.2533C45.8534 19.2735 45.9684 19.1908 45.9885 19.0694Z" fill="#FF58E2"/>
<path d="M44.1284 25.2099C43.9039 25.107 43.8053 24.8403 43.9075 24.6159C44.0098 24.3897 44.2744 24.2904 44.4971 24.3934C44.7198 24.4964 44.8202 24.7631 44.718 24.9874C44.6158 25.2118 44.3511 25.3129 44.1284 25.2099Z" fill="#FF58E2"/>
<path d="M45.8588 26.2508C45.8077 26.363 45.8588 26.4973 45.9683 26.5488C46.0796 26.6003 46.2129 26.5488 46.264 26.4384C46.3151 26.3262 46.264 26.192 46.1545 26.1423C46.0431 26.0909 45.9099 26.1423 45.8606 26.2527L45.8588 26.2508Z" fill="#FF58E2"/>
<path d="M43.9313 21.6974C43.8364 21.8096 43.6685 21.8261 43.5553 21.7342C43.4421 21.6422 43.4257 21.4767 43.5206 21.3645C43.6155 21.2523 43.7835 21.2358 43.8966 21.3277C44.0098 21.4197 44.0262 21.5852 43.9313 21.6974Z" fill="#FF58E2"/>
<path d="M44.8021 20.8698C44.8587 20.9158 44.9426 20.9085 44.9901 20.8514C45.0376 20.7963 45.0303 20.7135 44.9718 20.6675C44.9134 20.6216 44.8313 20.6289 44.7838 20.6859C44.7364 20.7429 44.7437 20.8239 44.8021 20.8698Z" fill="#FF58E2"/>
<path d="M41.1934 20.9563C41.2755 20.9489 41.3358 20.8735 41.3266 20.7889C41.3175 20.7043 41.2463 20.6418 41.1642 20.6491C41.0821 20.6565 41.0218 20.7319 41.0309 20.8165C41.0401 20.9011 41.1113 20.9636 41.1934 20.9563Z" fill="#FF58E2"/>
<path d="M38.4626 22.6095C38.4352 22.6445 38.4407 22.696 38.4736 22.7236C38.5064 22.753 38.5557 22.7475 38.5831 22.7125C38.6105 22.6776 38.605 22.6261 38.5721 22.5985C38.5393 22.5691 38.49 22.5746 38.4626 22.6095Z" fill="#FF58E2"/>
<path d="M40.6256 21.7139C40.6767 21.7875 40.6293 21.931 40.5599 21.9843C40.4887 22.0358 40.4212 21.9751 40.3701 21.9015C40.319 21.828 40.3354 21.7268 40.4066 21.6753C40.4778 21.6238 40.5745 21.6404 40.6256 21.7139Z" fill="#FF58E2"/>
<path d="M40.8119 21.4436C40.8466 21.4179 40.8557 21.3664 40.8301 21.3296C40.8046 21.2928 40.7553 21.2836 40.7206 21.3112C40.6859 21.337 40.6768 21.3884 40.7024 21.4234C40.7279 21.4602 40.7772 21.4694 40.8119 21.4436Z" fill="#FF58E2"/>
<path d="M45.3788 23.0381C45.3861 23.1171 45.3314 23.187 45.2547 23.1944C45.178 23.2017 45.1105 23.1447 45.1032 23.0656C45.0959 22.9866 45.1507 22.9185 45.2273 22.9112C45.304 22.9038 45.3715 22.9608 45.3788 23.0399V23.0381Z" fill="#FF58E2"/>
<path d="M45.3862 22.3907C45.4245 22.387 45.4519 22.3521 45.4482 22.3135C45.4446 22.2748 45.4099 22.2454 45.3734 22.2491C45.3369 22.2528 45.3077 22.2877 45.3113 22.3263C45.315 22.3649 45.3497 22.3944 45.3862 22.3907Z" fill="#FF58E2"/>
<path d="M45.2784 25.072C45.2473 25.0463 45.2419 24.9985 45.2674 24.9654C45.293 24.9341 45.3386 24.9286 45.3696 24.9562C45.4007 24.9819 45.4061 25.0297 45.3806 25.0628C45.355 25.0941 45.3094 25.0996 45.2784 25.072Z" fill="#FF58E2"/>
<path d="M45.5084 25.3184C45.4956 25.335 45.4974 25.3589 45.5139 25.3718C45.5303 25.3846 45.5522 25.3828 45.565 25.3663C45.5778 25.3497 45.5759 25.3258 45.5595 25.3129C45.5431 25.3 45.5212 25.3019 45.5084 25.3184Z" fill="#FF58E2"/>
<path d="M45.1233 22.7438C45.147 22.7769 45.1397 22.8247 45.1069 22.8486C45.074 22.8725 45.0284 22.8652 45.0047 22.8302C44.9809 22.7971 44.9882 22.7493 45.0211 22.7254C45.0539 22.7015 45.0996 22.7089 45.1233 22.7438Z" fill="#FF58E2"/>
<path d="M44.9626 22.444C44.9791 22.4312 44.9827 22.4091 44.9718 22.3907C44.9608 22.3742 44.9371 22.3705 44.9207 22.3815C44.9042 22.3944 44.9006 22.4165 44.9115 22.4349C44.9225 22.4514 44.9462 22.4551 44.9626 22.444Z" fill="#FF58E2"/>
<path d="M36.8838 24.1359C37.0097 24.1507 37.101 24.2628 37.0864 24.3879C37.0718 24.5111 36.9568 24.5994 36.8309 24.5847C36.7049 24.57 36.6136 24.4559 36.6282 24.3327C36.6428 24.2095 36.7578 24.1212 36.8838 24.1359Z" fill="#FF58E2"/>
<path d="M35.3506 24.6031C35.4126 24.5773 35.4838 24.6049 35.5112 24.6656C35.5386 24.7263 35.5112 24.7962 35.4473 24.8219C35.3853 24.8477 35.3141 24.8201 35.2867 24.7594C35.2593 24.6987 35.2867 24.6288 35.3506 24.6031Z" fill="#FF58E2"/>
<path d="M35.4565 24.8771C35.4857 24.6306 35.7065 24.4559 35.9511 24.4835C36.1957 24.5129 36.3691 24.7355 36.3417 24.9819C36.3125 25.2283 36.0917 25.403 35.8471 25.3754C35.6025 25.346 35.4291 25.1235 35.4565 24.8771Z" fill="#FF58E2"/>
<path d="M38.7146 23.6155C38.5795 23.5585 38.5138 23.4022 38.5649 23.2661C38.6178 23.1282 38.7675 23.0638 38.9026 23.119C39.0377 23.176 39.1034 23.3323 39.0523 23.4684C38.9993 23.6063 38.8497 23.6707 38.7146 23.6155Z" fill="#FF58E2"/>
<path d="M39.764 24.1985C39.7385 24.2665 39.7713 24.3456 39.8389 24.3732C39.9064 24.4008 39.9812 24.3677 40.0086 24.2996C40.036 24.2316 40.0013 24.1525 39.9338 24.1249C39.8662 24.0973 39.7914 24.1304 39.764 24.1985Z" fill="#FF58E2"/>
<path d="M37.8913 25.4141C37.8201 25.4453 37.7361 25.4141 37.7069 25.3424C37.6777 25.2706 37.7106 25.1897 37.7836 25.1585C37.8566 25.1272 37.9387 25.1585 37.9679 25.2302C37.9971 25.3019 37.9643 25.3828 37.8931 25.4141H37.8913Z" fill="#FF58E2"/>
<path d="M38.5046 25.2247C38.5192 25.2596 38.5612 25.2762 38.5977 25.2596C38.6342 25.2431 38.6506 25.2026 38.636 25.1677C38.6214 25.1327 38.5794 25.1162 38.5429 25.1327C38.5064 25.1493 38.49 25.1897 38.5046 25.2247Z" fill="#FF58E2"/>
<path d="M35.9382 25.9382C35.9546 25.8996 35.9966 25.8812 36.0349 25.8959C36.0732 25.9106 36.0915 25.9529 36.0751 25.9915C36.0586 26.0301 36.0167 26.0485 35.9783 26.0338C35.94 26.0191 35.9217 25.9768 35.9382 25.9382Z" fill="#FF58E2"/>
<path d="M38.0922 25.0794C38.0667 25.1125 38.021 25.1198 37.9882 25.0959C37.9553 25.072 37.9498 25.026 37.9736 24.9929C37.9991 24.9598 38.0448 24.9525 38.0776 24.9764C38.1105 25.0003 38.1159 25.0463 38.0922 25.0794Z" fill="#FF58E2"/>
<path d="M38.3238 24.833C38.3402 24.8458 38.364 24.8422 38.3768 24.8256C38.3895 24.809 38.3859 24.787 38.3695 24.7741C38.353 24.7631 38.3293 24.7649 38.3165 24.7815C38.3037 24.798 38.3074 24.8201 38.3238 24.833Z" fill="#FF58E2"/>
<path d="M41.1641 22.3962C41.1294 22.4661 41.0454 22.4955 40.9779 22.4624C40.9103 22.4275 40.883 22.3429 40.9176 22.273C40.9523 22.2013 41.0363 22.1719 41.1038 22.2068C41.1714 22.2418 41.1987 22.3263 41.1641 22.3962Z" fill="#FF58E2"/>
<path d="M39.4427 23.0546C39.4774 23.0711 39.5194 23.0564 39.5358 23.0215C39.5541 22.9865 39.5395 22.9443 39.5048 22.9259C39.4701 22.9093 39.4281 22.924 39.4117 22.959C39.3935 22.9939 39.4081 23.0362 39.4427 23.0546Z" fill="#FF58E2"/>
<path d="M38.6689 24.7005C38.6287 24.7042 38.5922 24.6729 38.5867 24.6325C38.5831 24.592 38.6123 24.5552 38.6524 24.5516C38.6926 24.5479 38.7291 24.5791 38.7346 24.6196C38.7382 24.6601 38.709 24.6968 38.6689 24.6987V24.7005Z" fill="#FF58E2"/>
<path d="M39.0048 24.7097C39.0066 24.73 39.0249 24.7447 39.045 24.7428C39.065 24.7428 39.0796 24.7226 39.0778 24.7024C39.076 24.6822 39.0577 24.6674 39.0376 24.6693C39.0176 24.6693 39.003 24.6895 39.0048 24.7097Z" fill="#FF58E2"/>
<path d="M39.0358 23.2146C39.0376 23.255 39.0065 23.2918 38.9664 23.2955C38.9262 23.2992 38.8916 23.2679 38.8897 23.2256C38.8879 23.1852 38.9189 23.1484 38.9591 23.1447C38.9992 23.141 39.0339 23.1723 39.0358 23.2146Z" fill="#FF58E2"/>
<path d="M39.0541 22.8744C39.0742 22.8744 39.0906 22.8541 39.0888 22.8339C39.0888 22.8137 39.0705 22.7971 39.0504 22.799C39.0304 22.799 39.0139 22.8192 39.0158 22.8394C39.0158 22.8597 39.034 22.8762 39.0541 22.8744Z" fill="#FF58E2"/>
<path d="M48.5331 23.3084C48.4382 23.4206 48.2703 23.4371 48.1571 23.3452C48.0439 23.2532 48.0275 23.0877 48.1224 22.9755C48.2173 22.8633 48.3853 22.8468 48.4984 22.9387C48.6116 23.0307 48.628 23.1962 48.5331 23.3084Z" fill="#FF58E2"/>
<path d="M48.9711 19.0602C49.1591 18.8616 49.1481 18.5434 48.9455 18.3485C48.7429 18.1536 48.4271 18.1554 48.2373 18.354C48.0493 18.5526 48.0602 18.8708 48.2629 19.0657C48.4655 19.2607 48.7812 19.2588 48.9711 19.0602Z" fill="#FF58E2"/>
<path d="M46.2586 16.0424C46.2458 15.9063 46.1217 15.8051 45.983 15.8198C45.8442 15.8346 45.7402 15.9559 45.7548 16.092C45.7694 16.2281 45.8917 16.3293 46.0304 16.3145C46.1691 16.2998 46.2732 16.1803 46.2586 16.0424Z" fill="#FF58E2"/>
<path d="M49.4037 22.479C49.4602 22.525 49.5442 22.5176 49.5917 22.4606C49.6391 22.4036 49.6318 22.3227 49.5734 22.2767C49.515 22.2307 49.4329 22.2381 49.3854 22.2951C49.3379 22.3521 49.3452 22.433 49.4037 22.479Z" fill="#FF58E2"/>
<path d="M47.5729 18.1499C47.7153 18.1867 47.8029 18.332 47.7701 18.4736C47.7372 18.6152 47.5948 18.7016 47.4543 18.663C47.3119 18.6262 47.2243 18.4809 47.2571 18.3393C47.29 18.1977 47.4324 18.1113 47.5729 18.1481V18.1499Z" fill="#FF58E2"/>
<path d="M46.4484 17.5706C46.4064 17.5118 46.3224 17.4989 46.2622 17.5412C46.202 17.5835 46.1874 17.6644 46.2312 17.7233C46.2732 17.7821 46.3571 17.795 46.4174 17.7527C46.4776 17.7104 46.4922 17.6295 46.4484 17.5688V17.5706Z" fill="#FF58E2"/>
<path d="M40.978 27.8324C40.5107 27.8784 40.5783 28.6103 41.0474 28.5643C41.5165 28.5184 41.4471 27.7864 40.978 27.8324Z" fill="#FF58E2"/>
<path d="M40.1766 26.7014C40.1529 26.6407 40.1164 26.5911 40.0671 26.5488C40.0415 26.5322 40.0141 26.5157 39.9886 26.4991C39.9283 26.4715 39.8663 26.4605 39.8006 26.466L39.7659 26.4697C39.7148 26.4734 39.6691 26.4881 39.629 26.5157C39.5852 26.5341 39.5487 26.5635 39.5195 26.6021C39.4866 26.6389 39.4665 26.6812 39.4556 26.7272C39.4373 26.7731 39.4319 26.8209 39.4373 26.8706C39.4446 26.9019 39.4519 26.935 39.4592 26.9662C39.483 27.0269 39.5195 27.0766 39.5688 27.1189C39.5943 27.1354 39.6217 27.152 39.6472 27.1685C39.7075 27.1961 39.7695 27.2071 39.8352 27.2016L39.8699 27.1979C39.921 27.1943 39.9667 27.1796 40.0068 27.1538C40.0506 27.1354 40.0871 27.106 40.1164 27.0674C40.1492 27.0306 40.1693 26.9883 40.1802 26.9423C40.1985 26.8963 40.204 26.8485 40.1985 26.7989C40.1912 26.7676 40.1839 26.7345 40.1766 26.7032V26.7014Z" fill="#FF58E2"/>
<path d="M42.5459 27.8324C42.0786 27.8784 42.1461 28.6103 42.6152 28.5643C43.0825 28.5184 43.015 27.7864 42.5459 27.8324Z" fill="#FF58E2"/>
<path d="M35.5129 27.1483C35.0456 27.1943 35.1132 27.9262 35.5823 27.8802C36.0514 27.8342 35.982 27.1023 35.5129 27.1483Z" fill="#FF58E2"/>
<path d="M41.093 26.8356C40.6257 26.8816 40.6932 27.6135 41.1624 27.5676C41.6296 27.5216 41.5621 26.7897 41.093 26.8356Z" fill="#FF58E2"/>
<path d="M42.8927 28.4466C42.869 28.3859 42.8325 28.3363 42.7832 28.294C42.7796 28.2903 42.7741 28.2885 42.7704 28.2848C42.7978 28.2241 42.8088 28.1616 42.8033 28.0954C42.796 28.0641 42.7887 28.031 42.7814 27.9997C42.7577 27.9391 42.7212 27.8894 42.6719 27.8471L42.6335 27.8158C42.597 27.7827 42.555 27.7625 42.5094 27.7515C42.4638 27.7331 42.4163 27.7276 42.367 27.7331C42.3159 27.7368 42.2703 27.7515 42.2301 27.7791C42.1863 27.7975 42.1498 27.8269 42.1206 27.8655C42.1042 27.8912 42.0878 27.9188 42.0713 27.9446C42.044 28.0053 42.033 28.0678 42.0385 28.134C42.0458 28.1653 42.0531 28.1984 42.0604 28.2296C42.0841 28.2903 42.1206 28.34 42.1699 28.3823L42.1973 28.4043C42.1863 28.4246 42.179 28.4466 42.1736 28.4705C42.1553 28.5165 42.1498 28.5643 42.1553 28.614L42.1772 28.7096C42.2009 28.7703 42.2374 28.82 42.2867 28.8623C42.3123 28.8788 42.3397 28.8954 42.3652 28.9119C42.4254 28.9395 42.4875 28.9505 42.5532 28.945L42.5879 28.9413C42.639 28.9377 42.6846 28.9229 42.7248 28.8972C42.7686 28.8788 42.8051 28.8494 42.8343 28.8108C42.8672 28.774 42.8873 28.7317 42.8982 28.6857C42.9165 28.6397 42.9219 28.5919 42.9165 28.5423L42.8946 28.4466H42.8927Z" fill="#FF58E2"/>
<path d="M35.0748 27.3083C34.9579 27.3193 34.9744 27.5032 35.093 27.4922C35.2117 27.4811 35.1934 27.2972 35.0748 27.3083Z" fill="#FF58E2"/>
<path d="M40.0872 28.7574C40.0872 28.7574 40.0763 28.7611 40.069 28.7629C40.0799 28.6085 39.9759 28.4429 39.7788 28.4613C39.6692 28.4724 39.5999 28.5312 39.5652 28.6085C39.5579 28.5662 39.525 28.5294 39.4703 28.5349C39.3535 28.5459 39.3699 28.7298 39.4885 28.7188C39.5123 28.717 39.5305 28.7059 39.5433 28.6912C39.5232 28.8512 39.6254 29.0314 39.8299 29.0112C39.9193 29.002 39.9832 28.9597 40.0215 28.9009C40.038 28.9266 40.0635 28.945 40.1018 28.9413C40.2187 28.9303 40.2022 28.7464 40.0836 28.7574H40.0872Z" fill="#FF58E2"/>
<path d="M40.1309 27.7331C40.0141 27.7441 40.0305 27.928 40.1492 27.917C40.2678 27.906 40.2496 27.722 40.1309 27.7331Z" fill="#FF58E2"/>
<path d="M35.8104 27.3414C35.6935 27.3524 35.71 27.5363 35.8286 27.5253C35.9473 27.5143 35.929 27.3304 35.8104 27.3414Z" fill="#FF58E2"/>
<path d="M35.8178 25.5814C35.7521 25.587 35.7302 25.6476 35.743 25.6973C35.6444 25.723 35.6645 25.8867 35.7758 25.8757C35.8415 25.8702 35.8635 25.8095 35.8507 25.7598C35.9492 25.7341 35.9292 25.5704 35.8178 25.5814Z" fill="#FF58E2"/>
<path d="M36.0715 26.5745C36.066 26.5598 36.0569 26.5469 36.0441 26.5359C36.0368 26.5322 36.0313 26.5267 36.024 26.523C36.0094 26.5156 35.993 26.5138 35.9766 26.5156L35.9419 26.5193C35.9291 26.5193 35.9181 26.523 35.9072 26.5304C35.8962 26.5359 35.8871 26.5432 35.8798 26.5524C35.8725 26.5616 35.867 26.5727 35.8634 26.5837C35.8579 26.5947 35.8579 26.6076 35.8597 26.6205C35.8616 26.6278 35.8634 26.637 35.8652 26.6444C35.8707 26.6591 35.8798 26.672 35.8926 26.683C35.8999 26.6867 35.9054 26.6922 35.9127 26.6959C35.9273 26.7032 35.9437 26.7051 35.9601 26.7032L35.9948 26.6996C36.0076 26.6996 36.0185 26.6959 36.0295 26.6885C36.0404 26.683 36.0496 26.6756 36.0569 26.6664C36.0642 26.6573 36.0696 26.6462 36.0733 26.6352C36.0788 26.6241 36.0788 26.6113 36.0769 26.5984C36.0751 26.591 36.0733 26.5819 36.0715 26.5745Z" fill="#FF58E2"/>
<path d="M37.904 24.5313C37.5536 24.5644 37.6047 25.1143 37.957 25.0812C38.3074 25.0481 38.2563 24.4982 37.904 24.5313Z" fill="#FF58E2"/>
<path d="M34.5711 26.1681C34.5346 25.8536 34.3027 25.5612 33.8975 25.5998C33.0798 25.6789 33.2002 26.9607 34.0198 26.8816C34.2224 26.8614 34.3666 26.7694 34.4579 26.6425C34.6824 26.5892 34.7098 26.3023 34.5711 26.1681Z" fill="#FF58E2"/>
<path d="M31.0518 28.3289C30.3472 28.3289 30.3454 29.4324 31.0518 29.4324C31.7582 29.4324 31.7582 28.3289 31.0518 28.3289Z" fill="#FF58E2"/>
<path d="M35.5805 30.2746C35.1133 30.3206 35.1808 31.0525 35.6499 31.0066C36.119 30.9606 36.0497 30.2287 35.5805 30.2746Z" fill="#FF58E2"/>
<path d="M39.7093 27.4388C39.598 27.2954 39.43 27.1593 39.2438 27.1446C39.1033 27.1336 38.9627 27.1207 38.8222 27.1097C38.6232 27.0931 38.437 27.1152 38.2691 27.2384C38.1267 27.3414 37.999 27.529 37.9771 27.7073C37.9533 27.8986 37.9825 28.1082 38.1048 28.2646C38.2162 28.408 38.3841 28.5441 38.5703 28.5588C38.7108 28.5698 38.8514 28.5827 38.9919 28.5937C39.1909 28.6103 39.3771 28.5882 39.545 28.465C39.6874 28.362 39.8152 28.1745 39.8371 27.9961C39.8608 27.8048 39.8316 27.5952 39.7093 27.4388Z" fill="#FF58E2"/>
<path d="M36.0752 28.6452C35.7247 28.6783 35.7758 29.2282 36.1281 29.1951C36.4804 29.162 36.4275 28.6121 36.0752 28.6452Z" fill="#FF58E2"/>
<path d="M35.4599 25.8536C35.1095 25.8867 35.1606 26.4366 35.5129 26.4035C35.8652 26.3704 35.8122 25.8205 35.4599 25.8536Z" fill="#FF58E2"/>
<path d="M35.3323 24.8808C34.9818 24.9139 35.0329 25.4637 35.3852 25.4306C35.7375 25.3975 35.6845 24.8477 35.3323 24.8808Z" fill="#FF58E2"/>
<path d="M34.6203 24.7391C34.2699 24.7722 34.321 25.3221 34.6733 25.289C35.0256 25.2559 34.9726 24.706 34.6203 24.7391Z" fill="#FF58E2"/>
<path d="M29.3762 31.9132C29.3306 31.8268 29.2685 31.7587 29.1882 31.7072C29.117 31.6429 29.0349 31.5987 28.94 31.5748C28.8432 31.5436 28.7465 31.5399 28.6479 31.562C28.5512 31.5656 28.4599 31.5951 28.3759 31.6484C28.323 31.6833 28.2737 31.7256 28.2281 31.7716C28.2007 31.79 28.1715 31.8066 28.1478 31.8286C28.093 31.8617 28.0492 31.9059 28.0164 31.961C27.9525 32.0328 27.9087 32.1155 27.8849 32.2111C27.8758 32.2755 27.8667 32.3417 27.8594 32.4061C27.8685 32.4704 27.8776 32.5366 27.8849 32.601C27.9014 32.6727 27.9342 32.7334 27.9744 32.7923C27.9981 32.8438 28.0273 32.8916 28.0656 32.9357C28.1167 33.0166 28.1861 33.0792 28.2701 33.1251C28.4398 33.2152 28.6443 33.2612 28.8323 33.1987C28.9929 33.1472 29.1481 33.0479 29.2393 32.9026C29.2868 32.8548 29.3379 32.7831 29.3616 32.7445C29.3653 32.7389 29.3671 32.7353 29.3707 32.7297C29.3854 32.6985 29.3981 32.6672 29.4109 32.6341C29.4255 32.6047 29.4383 32.5734 29.4492 32.5422C29.4693 32.4686 29.4803 32.3895 29.4803 32.3141C29.4803 32.1321 29.4419 32.0769 29.3726 31.9132H29.3762Z" fill="#FF58E2"/>
<path d="M42.4309 29.1657C42.3232 29.0296 42.1918 28.9487 42.022 28.9082C41.9654 28.8954 41.9143 28.8935 41.8559 28.8917C41.7975 28.8899 41.7373 28.8843 41.6788 28.8935C41.4981 28.9248 41.3813 28.9744 41.2243 29.0646C41.0929 29.1418 40.9943 29.3312 40.9688 29.4765C40.9414 29.6347 40.9797 29.837 41.0801 29.9638C41.1805 30.0926 41.3229 30.1992 41.489 30.2213C41.5456 30.2231 41.604 30.225 41.6606 30.2287C41.7263 30.2213 41.7884 30.2048 41.8468 30.1809C41.9946 30.1992 42.1699 30.1477 42.2849 30.065C42.409 29.9749 42.5203 29.8094 42.5404 29.6531C42.5623 29.4857 42.5368 29.3018 42.4291 29.1657H42.4309Z" fill="#FF58E2"/>
<path d="M39.0286 25.6936C38.9118 25.7047 38.9282 25.8886 39.0469 25.8775C39.1655 25.8665 39.1473 25.6826 39.0286 25.6936Z" fill="#FF58E2"/>
<path d="M34.8011 29.1363C34.6843 29.1473 34.7007 29.3312 34.8193 29.3202C34.938 29.3091 34.9197 29.1252 34.8011 29.1363Z" fill="#FF58E2"/>
<path d="M35.1551 26.5469C35.1497 26.5359 35.1424 26.5267 35.1332 26.5193C35.1241 26.512 35.1132 26.5064 35.1022 26.5028C35.0913 26.4972 35.0785 26.4972 35.0657 26.4991C35.0584 26.5009 35.0493 26.5028 35.042 26.5046C35.0274 26.5101 35.0146 26.5193 35.0036 26.5322L34.9909 26.5524C34.9836 26.5671 34.9817 26.5837 34.9836 26.6002L34.9872 26.6352C34.9872 26.648 34.9909 26.6591 34.9982 26.6701C35.0036 26.6812 35.0109 26.6903 35.0201 26.6977C35.0292 26.7051 35.0402 26.7106 35.0511 26.7143C35.0621 26.7198 35.0748 26.7198 35.0876 26.7179C35.0949 26.7161 35.104 26.7143 35.1113 26.7124C35.1259 26.7069 35.1387 26.6977 35.1497 26.6848L35.1625 26.6646C35.1698 26.6499 35.1716 26.6333 35.1698 26.6168L35.1661 26.5818C35.1661 26.569 35.1624 26.5579 35.1551 26.5469Z" fill="#FF58E2"/>
<path d="M34.7955 25.4693C34.6787 25.4803 34.6951 25.6642 34.8137 25.6532C34.9305 25.6421 34.9141 25.4582 34.7955 25.4693Z" fill="#FF58E2"/>
<path d="M30.6684 26.6168C30.5516 26.6168 30.5516 26.8007 30.6684 26.8007C30.7852 26.8007 30.7852 26.6168 30.6684 26.6168Z" fill="#FF58E2"/>
</g>
<defs>
<radialGradient id="paint0_radial_200_22" cx="0" cy="0" r="1" gradientUnits="userSpaceOnUse" gradientTransform="translate(33.2323 30.7) rotate(-27.2842) scale(20.1393 14.7658)">
<stop offset="0.41" stop-color="#FF58E2"/>
<stop offset="1" stop-color="white" stop-opacity="0"/>
</radialGradient>
<clipPath id="clip0_200_22">
<rect width="52" height="68" fill="white" transform="translate(0.0102539 0.291077)"/>
</clipPath>
</defs>
</svg>
