<svg width="158" height="162" viewBox="0 0 158 162" fill="none" xmlns="http://www.w3.org/2000/svg">
<path d="M116.35 40.0625L120.227 40.1943C120.478 40.2031 120.689 40.0068 120.698 39.755L120.879 34.4573C120.894 34.059 121.373 33.8686 121.657 34.1498L125.499 37.9979C125.677 38.1765 125.964 38.1765 126.142 37.9979L128.885 35.2509C129.063 35.0723 129.063 34.7853 128.885 34.6066L124.917 30.6326C124.634 30.3485 124.829 29.8595 125.233 29.8536L130.584 29.7892C130.835 29.7862 131.037 29.5783 131.034 29.3265L130.987 25.4403C130.984 25.1884 130.777 24.9864 130.525 24.9893L116.832 25.1562C116.59 25.1591 116.391 25.3524 116.382 25.5955L115.905 39.5881C115.897 39.8399 116.092 40.0508 116.344 40.0596L116.35 40.0625Z" fill="white"/>
<path d="M135.75 32.5631L123.46 44.8719C123.052 45.2802 123.052 45.9422 123.46 46.3504L125.373 48.2659C125.78 48.6742 126.441 48.6742 126.849 48.2659L139.139 35.9571C139.546 35.5489 139.546 34.8869 139.139 34.4786L137.226 32.5631C136.818 32.1548 136.157 32.1548 135.75 32.5631Z" fill="white"/>
<path d="M121.376 116.169L121.479 120.055C121.484 120.307 121.695 120.506 121.946 120.498L127.236 120.357C127.634 120.345 127.853 120.817 127.59 121.116L123.987 125.192C123.821 125.38 123.838 125.669 124.025 125.836L126.932 128.414C127.119 128.58 127.408 128.563 127.575 128.375L131.294 124.167C131.561 123.866 132.061 124.032 132.09 124.437L132.479 129.781C132.496 130.033 132.716 130.22 132.967 130.203L136.838 129.919C137.09 129.901 137.277 129.682 137.26 129.43L136.259 115.753C136.242 115.51 136.037 115.326 135.795 115.332L121.821 115.707C121.569 115.712 121.37 115.923 121.379 116.175L121.376 116.169Z" fill="white"/>
<path d="M115.542 123.644L113.75 125.672C113.368 126.105 113.408 126.765 113.84 127.148L126.855 138.685C127.287 139.067 127.946 139.027 128.328 138.595L130.121 136.566C130.503 136.134 130.463 135.473 130.031 135.09L117.016 123.554C116.584 123.171 115.925 123.211 115.542 123.644Z" fill="white"/>
<path d="M42.7019 125.698L30.1909 138.229C29.814 138.606 29.814 139.218 30.1908 139.595L32.2419 141.65C32.6187 142.027 33.2297 142.027 33.6065 141.65L46.1175 129.119C46.4944 128.742 46.4944 128.13 46.1175 127.752L44.0665 125.698C43.6896 125.321 43.0787 125.321 42.7019 125.698Z" fill="white"/>
<path d="M34.2577 115.288L30.8659 115.171C30.4682 115.156 30.1378 115.469 30.1232 115.865L29.9711 120.346C29.9506 120.975 29.1904 121.274 28.7459 120.829L25.4769 117.555C25.1962 117.273 24.743 117.273 24.4623 117.555L22.0646 119.956C21.7839 120.237 21.7839 120.691 22.0646 120.972L25.4447 124.358C25.895 124.809 25.5822 125.579 24.9447 125.585L20.4271 125.64C20.0294 125.646 19.7136 125.971 19.7166 126.37L19.7575 129.767C19.7634 130.165 20.0879 130.481 20.4856 130.478L33.7782 130.317C34.1612 130.311 34.4741 130.007 34.4887 129.623L34.9507 116.026C34.9653 115.628 34.6525 115.297 34.2577 115.282V115.288Z" fill="white"/>
<path d="M0.242872 81.188L3.12011 84.1399C3.45052 84.4796 3.99147 84.4855 4.33065 84.1546L8.02369 80.5466C8.56463 80.0166 9.47693 80.4002 9.47693 81.1587V90.6384C9.47693 91.1128 9.85997 91.4964 10.3337 91.4964H14.4536C14.9273 91.4964 15.3103 91.1128 15.3103 90.6384V80.8893C15.3103 80.1395 16.2022 79.7501 16.7519 80.2626L20.9713 84.2102C21.3163 84.5324 21.8572 84.5148 22.1818 84.1692L24.9947 81.1528C25.3163 80.8073 25.2988 80.2655 24.9538 79.9404L12.9507 68.7124C12.6173 68.399 12.0968 68.4049 11.7694 68.7241L0.257492 79.9756C-0.081694 80.3065 -0.087542 80.8483 0.242872 81.188Z" fill="white"/>
<path d="M156.827 79.6972L153.833 76.4875C153.561 76.1947 153.102 76.1801 152.812 76.4524L148.271 80.7017C147.809 81.1351 147.055 80.8072 147.055 80.1717V69.9803C147.055 69.5821 146.73 69.257 146.333 69.257H141.947C141.549 69.257 141.225 69.5821 141.225 69.9803V79.911C141.225 80.5524 140.455 80.8774 139.996 80.4294L135.982 76.5051C135.695 76.2269 135.239 76.2328 134.961 76.5168L131.897 79.6621C131.619 79.9491 131.625 80.4059 131.909 80.6842L143.602 92.1142C143.877 92.3837 144.318 92.3895 144.599 92.1259L156.795 80.7193C157.087 80.4469 157.102 79.9872 156.83 79.6972H156.827Z" fill="white"/>
<path d="M89.4077 17.8935C89.0189 14.88 87.1826 12.1828 84.3755 10.4931C81.9515 9.03757 78.9748 8.40501 75.7613 8.60708C75.1151 8.64808 74.7233 7.91009 75.121 7.39759L77.8549 3.87456C78.1093 3.54656 78.0509 3.07507 77.7234 2.82028L74.3023 0.155312C73.9748 -0.0994708 73.504 -0.0409 73.2496 0.287096L63.346 13.0409C63.0916 13.3689 63.15 13.8404 63.4775 14.0952L75.0362 23.1004C75.3637 23.3552 75.8344 23.2966 76.0888 22.9686L78.7497 19.5452C79.0041 19.2172 78.9456 18.7457 78.6181 18.4909L75.1824 15.8142C74.6561 15.4042 74.8871 14.5491 75.5508 14.4759C77.8082 14.2299 79.8257 14.5696 81.3725 15.4979C82.662 16.274 83.4603 17.3898 83.624 18.6403C84.01 21.6157 81.9749 25.1035 80.7907 26.7318C80.5509 27.0598 80.6181 27.5167 80.9398 27.7656L84.396 30.4423C84.7264 30.7 85.203 30.6356 85.4545 30.2988C86.741 28.5797 90.13 23.4401 89.4107 17.8906L89.4077 17.8935Z" fill="white"/>
<path d="M69.2466 148.872C69.6355 145.859 71.4717 143.162 74.2788 141.472C76.7028 140.016 79.6795 139.384 82.893 139.586C83.5392 139.627 83.931 138.889 83.5333 138.376L80.7994 134.853C80.545 134.525 80.6035 134.054 80.9309 133.799L84.3521 131.134C84.6795 130.879 85.1503 130.938 85.4047 131.266L95.3084 144.02C95.5627 144.348 95.5043 144.819 95.1768 145.074L83.6181 154.079C83.2906 154.334 82.8199 154.275 82.5655 153.947L79.9046 150.524C79.6502 150.196 79.7087 149.725 80.0362 149.47L83.4719 146.793C83.9982 146.383 83.7672 145.528 83.1035 145.455C80.8461 145.209 78.8286 145.548 77.2818 146.477C75.9923 147.253 75.194 148.369 75.0303 149.619C74.6443 152.595 76.6794 156.082 77.8636 157.711C78.1034 158.039 78.0362 158.496 77.7145 158.744L74.2583 161.421C73.9279 161.679 73.4513 161.614 73.1998 161.278C71.9133 159.559 68.5243 154.419 69.2436 148.869L69.2466 148.872Z" fill="white"/>
<path d="M28.097 42.666C28.8835 42.8886 29.7023 42.4317 29.9245 41.6469C30.1467 40.8591 29.6906 40.0391 28.9069 39.8165C28.1204 39.594 27.3017 40.0508 27.0794 40.8386C26.8572 41.6264 27.3133 42.4464 28.0999 42.6689L28.097 42.666Z" fill="white"/>
<path d="M20.1816 28.9985L16.6406 30.9606C16.2546 31.1744 16.1289 31.6693 16.3628 32.0442L17.7371 34.2377C17.9622 34.595 17.857 35.0665 17.5032 35.2949L14.9564 36.9349C14.6142 37.1545 14.5031 37.6026 14.702 37.9569L16.6494 41.4536C16.857 41.8255 17.3248 41.9573 17.6932 41.7523L18.5938 41.2486C18.9652 41.0407 19.0968 40.5721 18.8921 40.2031L18.1201 38.8179C17.9213 38.4636 18.0353 38.0155 18.3775 37.7959L21.0354 36.0856C21.3892 35.8572 21.4945 35.3857 21.2693 35.0284L19.9857 32.9813C19.7517 32.6065 19.8775 32.1116 20.2634 31.8978L21.4272 31.2535C21.7986 31.0485 21.9331 30.5799 21.7284 30.208L21.2284 29.3031C21.0237 28.9312 20.5558 28.7964 20.1845 29.0014L20.1816 28.9985Z" fill="white"/>
<path d="M44.755 36.6361L43.5942 34.7853C43.3603 34.4105 43.486 33.9155 43.872 33.7018L44.8895 33.1395C45.2609 32.9345 45.3954 32.4659 45.1907 32.094L44.7638 31.3208C44.5591 30.9489 44.0913 30.8142 43.7199 31.0192L40.4655 32.8232C40.0795 33.037 39.9538 33.5319 40.1877 33.9067L41.4363 35.8952C41.6614 36.2525 41.5561 36.724 41.2023 36.9524L38.8748 38.4489C38.5327 38.6686 38.4216 39.1166 38.6204 39.471L40.4128 42.6894C40.6204 43.0614 41.0883 43.1931 41.4567 42.9881L42.2287 42.5577C42.6 42.3497 42.7316 41.8812 42.5269 41.5122L41.8427 40.2822C41.6439 39.9278 41.7579 39.4798 42.1 39.2601L44.5299 37.6963C44.8837 37.4679 44.9889 36.9964 44.7638 36.6391L44.755 36.6361Z" fill="white"/>
<path d="M25.7927 23.2791L19.9242 43.9604C19.8072 44.3704 20.044 44.7951 20.4534 44.9093L33.9331 48.7457C34.3425 48.8628 34.7665 48.6256 34.8805 48.2156L40.749 27.5342C40.866 27.1242 40.6291 26.6996 40.2198 26.5854L26.7401 22.749C26.3307 22.6319 25.9067 22.8691 25.7927 23.2791ZM24.2342 41.5532L28.1962 27.5957C28.3132 27.1857 28.7372 26.9485 29.1436 27.0657L35.9098 28.9927C36.3191 29.1098 36.556 29.5344 36.439 29.9415L32.477 43.8989C32.36 44.3089 31.936 44.5461 31.5296 44.429L24.7634 42.502C24.3541 42.3849 24.1172 41.9602 24.2342 41.5532Z" fill="white"/>
</svg>
