<svg width="24" height="24" viewBox="0 0 24 24" fill="none" xmlns="http://www.w3.org/2000/svg">
<path d="M19.152 7.55037C18.6225 7.77673 18.0548 7.93066 17.4555 8.00536C18.0661 7.64544 18.5347 7.07728 18.7532 6.40272C18.1832 6.73774 17.5501 6.97768 16.8788 7.10444C16.3403 6.54306 15.5743 6.18994 14.7272 6.18994C13.0984 6.18994 11.7759 7.48699 11.7759 9.08963C11.7759 9.31599 11.8029 9.53783 11.8525 9.7506C9.4013 9.62384 7.22723 8.47393 5.77184 6.72415C5.51726 7.15198 5.37307 7.64544 5.37307 8.17966C5.37307 9.18244 5.8935 10.0698 6.68653 10.5927C6.20215 10.5723 5.74706 10.4455 5.34829 10.226V10.2667C5.34829 11.6701 6.36661 12.8382 7.71386 13.1053C7.46604 13.1732 7.2047 13.2049 6.9366 13.2049C6.7451 13.2049 6.56036 13.1845 6.38013 13.1506C6.75637 14.3005 7.84678 15.1425 9.13546 15.1606C8.12615 15.9416 6.8555 16.4034 5.4722 16.4034C5.23339 16.4034 4.99909 16.3898 4.76929 16.3626C6.07373 17.1843 7.62374 17.6597 9.29091 17.6597C14.7182 17.6597 17.6853 13.2502 17.6853 9.42238C17.6853 9.29562 17.6831 9.16886 17.6785 9.04888C18.2553 8.64143 18.7532 8.12759 19.1497 7.55264L19.152 7.55037Z" fill="#C4FF1C"/>
<path d="M10.7292 17.3588C10.6566 17.1575 10.7607 16.9342 10.9634 16.8603C11.1661 16.7863 11.3907 16.8904 11.466 17.0931C11.54 17.2944 11.4345 17.5177 11.2318 17.5917C11.0291 17.6656 10.8045 17.5615 10.7292 17.3588Z" fill="#C4FF1C"/>
<path d="M10.5032 19.6803C10.4813 19.6214 10.5128 19.5557 10.573 19.5338C10.6319 19.5119 10.6963 19.542 10.7196 19.6023C10.7415 19.6612 10.71 19.7269 10.6497 19.7488C10.5908 19.7707 10.5265 19.7406 10.5032 19.6803Z" fill="#C4FF1C"/>
<path d="M18.5418 3.56629C18.5198 3.50739 18.5514 3.44165 18.6116 3.41974C18.6705 3.39782 18.7349 3.42932 18.7582 3.48822C18.7801 3.54711 18.7486 3.61286 18.6883 3.63477C18.6294 3.65669 18.565 3.62518 18.5418 3.56629Z" fill="#C4FF1C"/>
<path d="M17.2521 3.79031C17.2302 3.73142 17.2617 3.66568 17.3192 3.64377C17.3795 3.62185 17.4452 3.65335 17.4672 3.71225C17.4877 3.77114 17.4576 3.83688 17.3973 3.8588C17.3384 3.88071 17.2713 3.84921 17.2507 3.79031H17.2521Z" fill="#C4FF1C"/>
<path d="M14.7234 15.4251C14.6851 15.3183 14.7385 15.2005 14.8467 15.1608C14.9549 15.1224 15.0713 15.1772 15.1124 15.2841C15.1508 15.3909 15.0946 15.5087 14.9892 15.5484C14.8809 15.5867 14.7618 15.532 14.7234 15.4251Z" fill="#C4FF1C"/>
<path d="M7.72968 12.0921C7.71188 12.0442 7.73653 11.9921 7.7831 11.9743C7.83104 11.9565 7.88445 11.9812 7.89952 12.0291C7.91732 12.077 7.89267 12.1291 7.8461 12.1469C7.79817 12.1647 7.74475 12.1401 7.72968 12.0921Z" fill="#C4FF1C"/>
<path d="M10.0396 12.5212C10.0218 12.4732 10.0465 12.4212 10.093 12.4034C10.141 12.3856 10.1944 12.4102 10.2122 12.4582C10.2286 12.5061 10.2026 12.5581 10.156 12.5759C10.1081 12.5938 10.0574 12.5691 10.0396 12.5212Z" fill="#C4FF1C"/>
<path d="M8.00141 15.1088C7.98361 15.0609 8.00826 15.0088 8.05483 14.991C8.10276 14.9732 8.15618 14.9979 8.17398 15.0458C8.18905 15.0937 8.1644 15.1458 8.11783 15.1636C8.06989 15.18 8.01648 15.1567 8.00141 15.1088Z" fill="#C4FF1C"/>
<path d="M3.63747 4.70689C3.62241 4.65895 3.64706 4.60691 3.69363 4.5891C3.74157 4.5713 3.79224 4.59595 3.81005 4.64389C3.82785 4.69183 3.8032 4.74387 3.75663 4.76168C3.70869 4.77948 3.65528 4.75483 3.63747 4.70689Z" fill="#C4FF1C"/>
<path d="M4.10612 3.71031C4.08831 3.66238 4.11297 3.61033 4.16227 3.59252C4.21021 3.57472 4.26088 3.59937 4.27869 3.64731C4.2965 3.69525 4.27184 3.74729 4.22528 3.7651C4.17597 3.78153 4.12392 3.75825 4.10612 3.71031Z" fill="#C4FF1C"/>
<path d="M6.50527 4.78779C6.4902 4.73986 6.51486 4.68781 6.56143 4.67001C6.60936 4.6522 6.66004 4.67685 6.67785 4.72479C6.69565 4.77273 6.671 4.82477 6.62443 4.84258C6.57649 4.86038 6.52308 4.83573 6.50527 4.78779Z" fill="#C4FF1C"/>
<path d="M8.76423 20.2854C8.74642 20.2375 8.77108 20.1855 8.81765 20.1677C8.86558 20.1499 8.919 20.1745 8.93406 20.2224C8.95187 20.2704 8.92722 20.3224 8.88065 20.3402C8.83271 20.358 8.77929 20.3334 8.76423 20.2854Z" fill="#C4FF1C"/>
<path d="M14.0047 12.7888C13.9773 12.7176 14.0157 12.6381 14.0883 12.6121C14.1581 12.5861 14.2362 12.6231 14.2636 12.6943C14.291 12.7655 14.2526 12.8449 14.18 12.871C14.1102 12.897 14.0294 12.86 14.0047 12.7888Z" fill="#C4FF1C"/>
<path d="M6.84114 15.8223C6.81375 15.7511 6.8521 15.6731 6.92469 15.6457C6.99454 15.6196 7.07535 15.6566 7.1 15.7278C7.1274 15.7991 7.08905 15.8785 7.0192 15.9045C6.94661 15.9306 6.86854 15.8936 6.84114 15.8223Z" fill="#C4FF1C"/>
<path d="M10.6147 15.841C10.5942 15.7821 10.6243 15.7164 10.6846 15.6945C10.7435 15.6726 10.8106 15.7027 10.8311 15.763C10.853 15.8219 10.8215 15.8876 10.764 15.9095C10.7037 15.9314 10.638 15.9013 10.6161 15.841H10.6147Z" fill="#C4FF1C"/>
<path d="M15.5637 10.9544C15.4912 10.7531 15.5952 10.5298 15.798 10.4559C16.0034 10.3819 16.2253 10.486 16.3006 10.6887C16.3746 10.8901 16.2691 11.1133 16.0664 11.1873C15.8637 11.2612 15.6391 11.1571 15.5637 10.9544Z" fill="#C4FF1C"/>
<path d="M15.3353 13.2771C15.3134 13.2182 15.3449 13.1524 15.4052 13.1305C15.4641 13.1086 15.5285 13.1401 15.5517 13.199C15.5737 13.2579 15.5422 13.3236 15.4819 13.3456C15.423 13.3675 15.3586 13.3373 15.3353 13.2771Z" fill="#C4FF1C"/>
<path d="M19.1895 11.637C19.169 11.5781 19.1991 11.5123 19.2594 11.4904C19.3183 11.4685 19.3854 11.5 19.4059 11.5589C19.4279 11.6178 19.3964 11.6835 19.3388 11.7054C19.2786 11.7274 19.2128 11.6972 19.1909 11.637H19.1895Z" fill="#C4FF1C"/>
<path d="M20.2175 15.2556C20.1956 15.1968 20.2271 15.131 20.2874 15.1091C20.3463 15.0872 20.4107 15.1187 20.4339 15.1776C20.4559 15.2365 20.4244 15.3022 20.3668 15.3241C20.3066 15.346 20.2408 15.3145 20.2189 15.2556H20.2175Z" fill="#C4FF1C"/>
<path d="M18.9303 15.4798C18.9084 15.4209 18.9399 15.3552 18.9975 15.3333C19.0577 15.3114 19.1235 15.3415 19.1454 15.4018C19.1659 15.4607 19.1358 15.5264 19.0755 15.5483C19.0166 15.5702 18.9495 15.5401 18.929 15.4798H18.9303Z" fill="#C4FF1C"/>
<path d="M19.5553 9.02208C19.517 8.91525 19.5718 8.79746 19.6786 8.75774C19.7868 8.71939 19.9032 8.77418 19.9443 8.88101C19.9826 8.98784 19.9265 9.10563 19.821 9.14535C19.7128 9.1837 19.5937 9.12891 19.5553 9.02208Z" fill="#C4FF1C"/>
<path d="M16.1864 6.49369C16.1645 6.43479 16.196 6.36905 16.2536 6.34714C16.3138 6.32522 16.3796 6.35672 16.4015 6.41562C16.422 6.47451 16.3919 6.54026 16.3316 6.56217C16.2727 6.58408 16.2056 6.55258 16.1851 6.49369H16.1864Z" fill="#C4FF1C"/>
<path d="M12.564 5.68776C12.5462 5.63982 12.5709 5.58777 12.6174 5.56997C12.6654 5.55216 12.7188 5.57682 12.7366 5.62476C12.7517 5.6727 12.727 5.72474 12.6805 5.74254C12.6325 5.76035 12.5791 5.7357 12.564 5.68776Z" fill="#C4FF1C"/>
<path d="M14.8741 6.11693C14.8563 6.06899 14.8809 6.01694 14.9275 5.99914C14.9768 5.98133 15.0289 6.00599 15.0467 6.05392C15.0631 6.10186 15.0371 6.15391 14.9905 6.17171C14.9426 6.18952 14.8919 6.16487 14.8741 6.11693Z" fill="#C4FF1C"/>
<path d="M12.8336 8.70705C12.8158 8.65911 12.8404 8.60706 12.887 8.58926C12.9349 8.57145 12.9883 8.5961 13.0061 8.64404C13.0212 8.69198 12.9966 8.74403 12.95 8.76183C12.902 8.77964 12.8514 8.75499 12.8336 8.70705Z" fill="#C4FF1C"/>
<path d="M5.31582 16.3974C5.30075 16.3495 5.32541 16.2974 5.37197 16.2796C5.41991 16.2618 5.47059 16.2865 5.48839 16.3344C5.5062 16.3824 5.48154 16.4344 5.43498 16.4522C5.38704 16.47 5.33362 16.4454 5.31582 16.3974Z" fill="#C4FF1C"/>
<path d="M5.78434 15.3997C5.76654 15.3517 5.79119 15.2997 5.8405 15.2819C5.88843 15.2641 5.93911 15.2887 5.95691 15.3367C5.97472 15.3846 5.95007 15.4367 5.9035 15.4545C5.85419 15.4723 5.80215 15.4476 5.78434 15.3997Z" fill="#C4FF1C"/>
<path d="M8.18362 16.4785C8.16855 16.4305 8.1932 16.3785 8.23977 16.3607C8.28771 16.3429 8.33839 16.3675 8.35619 16.4155C8.374 16.4634 8.34934 16.5154 8.30277 16.5333C8.25484 16.5511 8.20142 16.5264 8.18362 16.4785Z" fill="#C4FF1C"/>
<path d="M18.8367 6.3857C18.8094 6.31448 18.8477 6.23504 18.9203 6.20902C18.9901 6.183 19.071 6.21998 19.0956 6.2912C19.123 6.36242 19.0847 6.44049 19.0121 6.46788C18.9422 6.49391 18.8614 6.45692 18.8367 6.3857Z" fill="#C4FF1C"/>
<path d="M11.6732 9.41924C11.6458 9.34802 11.6841 9.26858 11.7567 9.24256C11.8293 9.21653 11.9074 9.25351 11.932 9.32474C11.9594 9.39596 11.9211 9.4754 11.8512 9.50142C11.7786 9.52744 11.7006 9.49046 11.6732 9.41924Z" fill="#C4FF1C"/>
<path d="M15.4492 9.43781C15.4286 9.37892 15.4588 9.31317 15.519 9.29126C15.5779 9.26934 15.645 9.30084 15.6656 9.35974C15.6875 9.41863 15.656 9.48438 15.5985 9.50629C15.5382 9.52821 15.4725 9.49807 15.4505 9.43781H15.4492Z" fill="#C4FF1C"/>
</svg>
