<svg width="25" height="24" viewBox="0 0 25 24" fill="none" xmlns="http://www.w3.org/2000/svg">
<path d="M12.1788 5.82984V14.2149C12.1788 15.4812 11.1568 16.5011 9.8923 16.5011C8.62781 16.5011 7.6058 15.4792 7.6058 14.2149C7.6058 12.9507 8.62781 11.9288 9.8923 11.9288C10.1668 11.9288 10.4113 11.9749 10.6538 12.0651V10.4802C10.4093 10.4341 10.1508 10.4021 9.8923 10.4021C7.78816 10.4021 6.08081 12.1091 6.08081 14.2129C6.08081 16.3167 7.78816 18.0238 9.8923 18.0238C11.9964 18.0238 13.7038 16.3167 13.7038 14.2129V9.19791C13.9563 9.41029 14.1467 9.72486 14.4372 9.85509C15.7077 10.4321 17.1365 10.4001 18.2788 10.4001V8.87533C17.1345 8.87533 15.8941 8.84327 15.0685 8.46659C14.2428 8.08991 13.7038 7.5269 13.7038 5.82584H12.1788V5.82984Z" fill="#C4FF1C"/>
<path d="M13.7744 6.45438C13.8392 6.65836 13.7266 6.87743 13.5211 6.94352C13.3157 7.00961 13.0953 6.89694 13.0278 6.69148C12.9617 6.48744 13.0757 6.26842 13.2811 6.20233C13.4865 6.13624 13.7069 6.24892 13.7744 6.45438Z" fill="#C4FF1C"/>
<path d="M14.0898 4.1433C14.1094 4.203 14.0754 4.26748 14.0143 4.28705C13.9546 4.30668 13.8915 4.27409 13.8705 4.21297C13.8509 4.15328 13.8849 4.0888 13.946 4.06922C14.0057 4.04959 14.0688 4.08219 14.0898 4.1433Z" fill="#C4FF1C"/>
<path d="M5.43596 19.9354C5.45559 19.9951 5.42158 20.0596 5.36051 20.0792C5.30082 20.0988 5.23771 20.0648 5.21671 20.0051C5.19708 19.9454 5.2311 19.8809 5.29216 19.8613C5.35186 19.8417 5.41497 19.8757 5.43596 19.9354Z" fill="#C4FF1C"/>
<path d="M6.73318 19.7613C6.7528 19.821 6.71879 19.8855 6.66047 19.9051C6.5994 19.9247 6.53492 19.8907 6.51529 19.831C6.49703 19.7714 6.52968 19.7068 6.59074 19.6873C6.65044 19.6676 6.71629 19.7017 6.73455 19.7613L6.73318 19.7613Z" fill="#C4FF1C"/>
<path d="M9.70862 8.23259C9.74282 8.34082 9.6849 8.45646 9.57525 8.49198C9.46565 8.52613 9.35143 8.4669 9.31449 8.35856C9.28029 8.25033 9.34094 8.13479 9.44786 8.09917C9.55746 8.06502 9.67442 8.12436 9.70862 8.23259Z" fill="#C4FF1C"/>
<path d="M16.5687 11.8328C16.5846 11.8814 16.558 11.9324 16.5107 11.9484C16.4622 11.9644 16.4097 11.9377 16.3965 11.8892C16.3806 11.8406 16.4072 11.7896 16.4544 11.7736C16.503 11.7576 16.5555 11.7843 16.5687 11.8328Z" fill="#C4FF1C"/>
<path d="M14.277 11.315C14.293 11.3636 14.2663 11.4146 14.2191 11.4306C14.1705 11.4466 14.1181 11.4199 14.1022 11.3713C14.0876 11.3227 14.1156 11.2717 14.1628 11.2557C14.2114 11.2398 14.2611 11.2664 14.277 11.315Z" fill="#C4FF1C"/>
<path d="M16.4134 8.80787C16.4293 8.85645 16.4027 8.90751 16.3555 8.92351C16.3069 8.93945 16.2545 8.91276 16.2385 8.86417C16.2253 8.81569 16.252 8.76463 16.2992 8.74863C16.3477 8.73406 16.4002 8.75938 16.4134 8.80787Z" fill="#C4FF1C"/>
<path d="M20.373 19.3703C20.3862 19.4188 20.3596 19.4699 20.3124 19.4859C20.2638 19.5018 20.2141 19.4752 20.1982 19.4266C20.1822 19.378 20.2089 19.327 20.2561 19.311C20.3047 19.295 20.3571 19.3217 20.373 19.3703Z" fill="#C4FF1C"/>
<path d="M19.8663 20.3481C19.8822 20.3966 19.8556 20.4477 19.8056 20.4636C19.7571 20.4795 19.7074 20.4529 19.6914 20.4044C19.6755 20.3558 19.7021 20.3047 19.7493 20.2887C19.7992 20.2742 19.8504 20.2995 19.8663 20.3481Z" fill="#C4FF1C"/>
<path d="M17.5105 19.1789C17.5237 19.2273 17.497 19.2784 17.4498 19.2944C17.4012 19.3103 17.3516 19.2838 17.3356 19.2352C17.3197 19.1866 17.3463 19.1355 17.3935 19.1195C17.4421 19.1036 17.4945 19.1303 17.5105 19.1789Z" fill="#C4FF1C"/>
<path d="M15.8508 3.60566C15.8667 3.65425 15.8401 3.7053 15.7929 3.7213C15.7443 3.73724 15.6918 3.71055 15.6786 3.66207C15.6627 3.61348 15.6893 3.56242 15.7365 3.54642C15.7851 3.53048 15.8376 3.55718 15.8508 3.60566Z" fill="#C4FF1C"/>
<path d="M10.3252 10.8947C10.3498 10.967 10.3084 11.0449 10.2349 11.0681C10.1641 11.0914 10.0875 11.0514 10.0629 10.9792C10.0382 10.907 10.0796 10.8291 10.1532 10.8059C10.224 10.7825 10.3033 10.8226 10.3252 10.8947Z" fill="#C4FF1C"/>
<path d="M17.6003 8.13964C17.6249 8.21186 17.5836 8.28839 17.51 8.31297C17.4392 8.33628 17.3599 8.29621 17.338 8.22409C17.3134 8.15187 17.3548 8.07396 17.4256 8.05065C17.4991 8.02745 17.5757 8.06741 17.6003 8.13964Z" fill="#C4FF1C"/>
<path d="M13.8302 7.97545C13.8484 8.03509 13.8158 8.09962 13.7547 8.1192C13.695 8.13882 13.6291 8.10613 13.6109 8.04512C13.5913 7.98542 13.6253 7.92094 13.6837 7.90126C13.7447 7.88169 13.8092 7.91433 13.8288 7.97539L13.8302 7.97545Z" fill="#C4FF1C"/>
<path d="M8.69652 12.6676C8.7613 12.8716 8.64868 13.0907 8.44327 13.1567C8.23512 13.2227 8.01742 13.1102 7.94996 12.9047C7.88382 12.7007 7.99781 12.4816 8.20321 12.4156C8.40862 12.3495 8.62906 12.4621 8.69652 12.6676Z" fill="#C4FF1C"/>
<path d="M9.01433 10.3555C9.03396 10.4152 8.99995 10.4796 8.93888 10.4992C8.87919 10.5188 8.81607 10.4849 8.79508 10.4251C8.77545 10.3654 8.80947 10.301 8.87053 10.2814C8.93023 10.2618 8.99339 10.2943 9.01433 10.3555Z" fill="#C4FF1C"/>
<path d="M5.09971 11.8458C5.11797 11.9054 5.08533 11.97 5.02427 11.9895C4.96457 12.0092 4.89872 11.9751 4.88046 11.9154C4.86084 11.8558 4.89485 11.7913 4.95318 11.7716C5.01424 11.752 5.07877 11.7847 5.09835 11.8457L5.09971 11.8458Z" fill="#C4FF1C"/>
<path d="M4.21197 8.19012C4.23159 8.24982 4.19758 8.31429 4.13651 8.33387C4.07682 8.3535 4.01371 8.31954 3.99271 8.25979C3.97308 8.20009 4.0071 8.13561 4.06543 8.11593C4.12649 8.09636 4.19097 8.13037 4.2106 8.19007L4.21197 8.19012Z" fill="#C4FF1C"/>
<path d="M5.50699 8.01574C5.52661 8.07543 5.4926 8.13991 5.43428 8.15959C5.37321 8.17917 5.30868 8.14652 5.2891 8.08546C5.27084 8.02582 5.30349 7.96128 5.36455 7.94171C5.42425 7.92208 5.49015 7.95478 5.50836 8.01579L5.50699 8.01574Z" fill="#C4FF1C"/>
<path d="M4.63345 14.4446C4.66766 14.5528 4.60837 14.6684 4.50009 14.704C4.39049 14.7381 4.27627 14.6789 4.23933 14.5706C4.20512 14.4623 4.26578 14.3468 4.37269 14.3112C4.48229 14.277 4.59925 14.3364 4.63345 14.4446Z" fill="#C4FF1C"/>
<path d="M7.90225 17.101C7.92187 17.1607 7.88786 17.2252 7.82953 17.2449C7.76847 17.2644 7.70399 17.2304 7.68436 17.1707C7.6661 17.1111 7.69875 17.0466 7.75981 17.027C7.81951 17.0073 7.88535 17.0414 7.90361 17.1011L7.90225 17.101Z" fill="#C4FF1C"/>
<path d="M11.4909 18.046C11.5069 18.0946 11.4802 18.1457 11.433 18.1617C11.3844 18.1776 11.332 18.1509 11.316 18.1023C11.3028 18.0538 11.3295 18.0028 11.3767 17.9868C11.4253 17.9708 11.4777 17.9975 11.4909 18.046Z" fill="#C4FF1C"/>
<path d="M9.19916 17.5281C9.2151 17.5767 9.18846 17.6277 9.14124 17.6437C9.09129 17.6596 9.04023 17.633 9.02428 17.5844C9.00971 17.5359 9.03772 17.4848 9.08494 17.4688C9.13353 17.4529 9.18321 17.4795 9.19916 17.5281Z" fill="#C4FF1C"/>
<path d="M11.3381 15.0186C11.354 15.0671 11.3274 15.1182 11.2802 15.1342C11.2316 15.1501 11.1791 15.1235 11.1632 15.0749C11.15 15.0264 11.1766 14.9753 11.2239 14.9593C11.2724 14.9434 11.3221 14.97 11.3381 15.0186Z" fill="#C4FF1C"/>
<path d="M19.1467 7.62378C19.1599 7.67226 19.1333 7.72332 19.0861 7.73932C19.0375 7.75526 18.9878 7.72867 18.9718 7.68008C18.9559 7.63149 18.9825 7.58044 19.0298 7.56444C19.0783 7.54849 19.1308 7.57519 19.1467 7.62378Z" fill="#C4FF1C"/>
<path d="M18.64 8.60267C18.6559 8.65125 18.6293 8.70231 18.5793 8.71821C18.5307 8.73415 18.4811 8.70756 18.4651 8.65897C18.4492 8.61038 18.4758 8.55932 18.523 8.54333C18.573 8.52744 18.624 8.55408 18.64 8.60267Z" fill="#C4FF1C"/>
<path d="M16.2842 7.43219C16.2974 7.48067 16.2707 7.53173 16.2235 7.54773C16.1749 7.56367 16.1252 7.53708 16.1093 7.48849C16.0933 7.4399 16.12 7.38885 16.1672 7.37285C16.2158 7.35691 16.2682 7.3836 16.2842 7.43219Z" fill="#C4FF1C"/>
<path d="M5.24974 17.1067C5.27436 17.1789 5.23298 17.2568 5.15944 17.28C5.08864 17.3034 5.00931 17.2633 4.98742 17.1912C4.9628 17.1189 5.00413 17.0424 5.07772 17.0178C5.14852 16.9945 5.22785 17.0346 5.24974 17.1067Z" fill="#C4FF1C"/>
<path d="M12.525 14.3516C12.5496 14.4239 12.5082 14.5018 12.4347 14.525C12.3612 14.5482 12.2846 14.5082 12.2627 14.4361C12.2381 14.3639 12.2794 14.286 12.3502 14.2627C12.4238 14.2395 12.5004 14.2794 12.525 14.3516Z" fill="#C4FF1C"/>
<path d="M8.75255 14.1875C8.77081 14.2472 8.73816 14.3117 8.6771 14.3313C8.6174 14.3509 8.55155 14.3168 8.5333 14.2572C8.51367 14.1975 8.54768 14.133 8.60601 14.1133C8.66707 14.0938 8.73161 14.1264 8.75118 14.1875L8.75255 14.1875Z" fill="#C4FF1C"/>
</svg>
