<svg width="25" height="24" viewBox="0 0 25 24" fill="none" xmlns="http://www.w3.org/2000/svg">
<path d="M7.05755 6.73618C6.21006 6.73618 5.51685 7.43853 5.51685 8.29257V15.5571C5.51685 16.4133 6.21212 17.1135 7.05755 17.1135H18.3588C19.2022 17.1135 19.8995 16.4112 19.8995 15.5571V8.29257C19.8995 7.43645 19.2042 6.73618 18.3588 6.73618H7.05755ZM7.05755 7.77308H18.3588C18.6468 7.77308 18.8731 7.99958 18.8731 8.29257V15.5571C18.8731 15.8481 18.6489 16.0766 18.3588 16.0766H7.05755C6.76957 16.0766 6.5433 15.8501 6.5433 15.5571V8.29257C6.5433 8.00166 6.76751 7.77308 7.05755 7.77308ZM10.6656 8.79129V15.0377L15.8019 11.9124L10.6656 8.79129ZM11.692 10.6241L13.8107 11.9124L11.692 13.2007V10.622V10.6241Z" fill="#C4FF1C"/>
<path d="M14.3465 6.31873C14.4113 6.52271 14.2987 6.74178 14.0933 6.80787C13.8879 6.87396 13.6674 6.76129 13.6 6.55583C13.5338 6.35179 13.6478 6.13277 13.8532 6.06668C14.0586 6.00059 14.2791 6.11327 14.3465 6.31873Z" fill="#C4FF1C"/>
<path d="M14.6619 4.00765C14.6815 4.06735 14.6475 4.13183 14.5865 4.1514C14.5268 4.17103 14.4636 4.13844 14.4427 4.07732C14.423 4.01763 14.4571 3.95315 14.5181 3.93357C14.5778 3.91394 14.641 3.94654 14.6619 4.00765Z" fill="#C4FF1C"/>
<path d="M6.00799 19.7998C6.02761 19.8595 5.9936 19.9239 5.93253 19.9435C5.87284 19.9631 5.80973 19.9292 5.78873 19.8694C5.7691 19.8097 5.80312 19.7453 5.86418 19.7257C5.92388 19.7061 5.98699 19.74 6.00799 19.7998Z" fill="#C4FF1C"/>
<path d="M7.30532 19.6257C7.32495 19.6854 7.29094 19.7498 7.23261 19.7695C7.17155 19.7891 7.10706 19.7551 7.08744 19.6954C7.06918 19.6357 7.10182 19.5712 7.16289 19.5516C7.22258 19.532 7.28843 19.5661 7.30669 19.6257L7.30532 19.6257Z" fill="#C4FF1C"/>
<path d="M10.2808 8.09697C10.315 8.2052 10.257 8.32084 10.1474 8.35636C10.0378 8.39051 9.92357 8.33128 9.88663 8.22294C9.85243 8.11471 9.91309 7.99917 10.02 7.96355C10.1296 7.9294 10.2466 7.98874 10.2808 8.09697Z" fill="#C4FF1C"/>
<path d="M17.1408 11.6971C17.1568 11.7457 17.1301 11.7968 17.0829 11.8128C17.0343 11.8287 16.9819 11.802 16.9687 11.7536C16.9527 11.705 16.9794 11.6539 17.0266 11.6379C17.0752 11.622 17.1276 11.6487 17.1408 11.6971Z" fill="#C4FF1C"/>
<path d="M14.8492 11.1794C14.8651 11.2279 14.8385 11.279 14.7913 11.295C14.7427 11.3109 14.6903 11.2843 14.6743 11.2357C14.6597 11.1871 14.6877 11.1361 14.735 11.1201C14.7836 11.1042 14.8332 11.1308 14.8492 11.1794Z" fill="#C4FF1C"/>
<path d="M16.9857 8.67221C17.0016 8.7208 16.975 8.77186 16.9277 8.78786C16.8792 8.8038 16.8267 8.77711 16.8108 8.72852C16.7976 8.68004 16.8242 8.62898 16.8714 8.61298C16.92 8.59841 16.9725 8.62373 16.9857 8.67221Z" fill="#C4FF1C"/>
<path d="M20.9452 19.2347C20.9584 19.2832 20.9317 19.3342 20.8845 19.3502C20.8359 19.3662 20.7862 19.3396 20.7703 19.291C20.7544 19.2424 20.781 19.1913 20.8282 19.1753C20.8768 19.1594 20.9292 19.1861 20.9452 19.2347Z" fill="#C4FF1C"/>
<path d="M20.4384 20.2125C20.4544 20.2611 20.4277 20.3121 20.3778 20.328C20.3292 20.344 20.2795 20.3174 20.2636 20.2688C20.2476 20.2202 20.2743 20.1691 20.3215 20.1531C20.3714 20.1386 20.4225 20.1639 20.4384 20.2125Z" fill="#C4FF1C"/>
<path d="M18.0826 19.0432C18.0958 19.0917 18.0692 19.1428 18.022 19.1587C17.9734 19.1747 17.9237 19.1481 17.9078 19.0995C17.8918 19.0509 17.9185 18.9999 17.9657 18.9839C18.0143 18.9679 18.0667 18.9946 18.0826 19.0432Z" fill="#C4FF1C"/>
<path d="M16.4229 3.47007C16.4389 3.51866 16.4122 3.56971 16.365 3.58571C16.3164 3.60165 16.264 3.57496 16.2508 3.52648C16.2348 3.47789 16.2615 3.42683 16.3087 3.41083C16.3573 3.39489 16.4097 3.42159 16.4229 3.47007Z" fill="#C4FF1C"/>
<path d="M10.8973 10.7591C10.9219 10.8313 10.8806 10.9092 10.807 10.9324C10.7362 10.9557 10.6596 10.9157 10.635 10.8435C10.6104 10.7713 10.6518 10.6934 10.7253 10.6702C10.7961 10.6469 10.8754 10.6869 10.8973 10.7591Z" fill="#C4FF1C"/>
<path d="M18.1725 8.00399C18.1971 8.07621 18.1558 8.15274 18.0822 8.17732C18.0114 8.20063 17.932 8.16056 17.9102 8.08844C17.8855 8.01622 17.9269 7.93831 17.9977 7.915C18.0713 7.8918 18.1478 7.93176 18.1725 8.00399Z" fill="#C4FF1C"/>
<path d="M14.4023 7.83977C14.4206 7.89941 14.3879 7.96394 14.3269 7.98352C14.2672 8.00314 14.2013 7.97045 14.1831 7.90943C14.1635 7.84974 14.1975 7.78526 14.2558 7.76558C14.3169 7.746 14.3814 7.77865 14.401 7.83971L14.4023 7.83977Z" fill="#C4FF1C"/>
<path d="M9.26867 12.532C9.33344 12.7359 9.22082 12.955 9.01541 13.0211C8.80727 13.0871 8.58956 12.9745 8.5221 12.7691C8.45596 12.565 8.56995 12.346 8.77536 12.2799C8.98077 12.2138 9.20121 12.3265 9.26867 12.532Z" fill="#C4FF1C"/>
<path d="M9.58648 10.2198C9.6061 10.2795 9.57209 10.344 9.51103 10.3636C9.45133 10.3832 9.38822 10.3493 9.36722 10.2895C9.3476 10.2298 9.38161 10.1653 9.44267 10.1458C9.50237 10.1261 9.56553 10.1587 9.58648 10.2198Z" fill="#C4FF1C"/>
<path d="M5.67186 11.7102C5.69012 11.7698 5.65748 11.8343 5.59641 11.8539C5.53672 11.8735 5.47087 11.8395 5.45261 11.7798C5.43298 11.7201 5.46699 11.6557 5.52532 11.636C5.58638 11.6164 5.65092 11.649 5.67049 11.7101L5.67186 11.7102Z" fill="#C4FF1C"/>
<path d="M4.78411 8.05447C4.80374 8.11417 4.76972 8.17864 4.70866 8.19822C4.64896 8.21784 4.58585 8.18388 4.56485 8.12414C4.54523 8.06444 4.57924 7.99996 4.63757 7.98028C4.69863 7.96071 4.76311 7.99472 4.78274 8.05442L4.78411 8.05447Z" fill="#C4FF1C"/>
<path d="M6.07913 7.88012C6.09876 7.93981 6.06475 8.00429 6.00642 8.02397C5.94535 8.04355 5.88082 8.0109 5.86125 7.94984C5.84299 7.8902 5.87563 7.82566 5.9367 7.80609C5.99639 7.78646 6.06229 7.81916 6.0805 7.88017L6.07913 7.88012Z" fill="#C4FF1C"/>
<path d="M5.20547 14.309C5.23968 14.4172 5.18039 14.5328 5.07211 14.5684C4.96251 14.6025 4.84829 14.5433 4.81135 14.435C4.77714 14.3267 4.8378 14.2112 4.94471 14.1756C5.05431 14.1414 5.17127 14.2007 5.20547 14.309Z" fill="#C4FF1C"/>
<path d="M8.47439 16.9653C8.49402 17.025 8.46 17.0895 8.40167 17.1092C8.34061 17.1288 8.27613 17.0947 8.2565 17.035C8.23825 16.9754 8.27089 16.9109 8.33196 16.8913C8.39165 16.8717 8.4575 16.9057 8.47575 16.9654L8.47439 16.9653Z" fill="#C4FF1C"/>
<path d="M12.0631 17.9104C12.079 17.959 12.0524 18.01 12.0051 18.026C11.9565 18.042 11.9041 18.0153 11.8882 17.9667C11.875 17.9182 11.9016 17.8671 11.9488 17.8511C11.9974 17.8352 12.0498 17.8619 12.0631 17.9104Z" fill="#C4FF1C"/>
<path d="M9.7713 17.3924C9.78725 17.441 9.76061 17.4921 9.71339 17.5081C9.66343 17.524 9.61237 17.4973 9.59643 17.4487C9.58185 17.4002 9.60986 17.3492 9.65708 17.3332C9.70567 17.3173 9.75536 17.3438 9.7713 17.3924Z" fill="#C4FF1C"/>
<path d="M11.9102 14.8829C11.9262 14.9315 11.8995 14.9826 11.8523 14.9986C11.8037 15.0145 11.7513 14.9878 11.7353 14.9392C11.7221 14.8908 11.7488 14.8397 11.796 14.8237C11.8446 14.8078 11.8943 14.8344 11.9102 14.8829Z" fill="#C4FF1C"/>
<path d="M19.7189 7.48813C19.7321 7.53661 19.7054 7.58767 19.6582 7.60366C19.6096 7.61961 19.5599 7.59302 19.544 7.54443C19.528 7.49584 19.5547 7.44478 19.6019 7.42879C19.6505 7.41284 19.7029 7.43954 19.7189 7.48813Z" fill="#C4FF1C"/>
<path d="M19.2121 8.46702C19.2281 8.5156 19.2014 8.56666 19.1515 8.58255C19.1029 8.5985 19.0532 8.57191 19.0373 8.52332C19.0213 8.47473 19.048 8.42367 19.0952 8.40768C19.1451 8.39179 19.1962 8.41843 19.2121 8.46702Z" fill="#C4FF1C"/>
<path d="M16.8563 7.29651C16.8695 7.34499 16.8429 7.39605 16.7957 7.41204C16.7471 7.42799 16.6974 7.4014 16.6814 7.35281C16.6655 7.30422 16.6921 7.25316 16.7394 7.23717C16.7879 7.22122 16.8404 7.24792 16.8563 7.29651Z" fill="#C4FF1C"/>
<path d="M5.82188 16.9711C5.84651 17.0433 5.80512 17.1212 5.73158 17.1444C5.66078 17.1677 5.58146 17.1276 5.55957 17.0555C5.53494 16.9833 5.57627 16.9068 5.64986 16.8822C5.72067 16.8589 5.79999 16.8989 5.82188 16.9711Z" fill="#C4FF1C"/>
<path d="M13.0971 14.216C13.1218 14.2882 13.0804 14.3661 13.0068 14.3893C12.9333 14.4125 12.8567 14.3726 12.8348 14.3004C12.8102 14.2282 12.8516 14.1503 12.9224 14.127C12.9959 14.1038 13.0725 14.1438 13.0971 14.216Z" fill="#C4FF1C"/>
<path d="M9.32469 14.0519C9.34295 14.1115 9.31031 14.1761 9.24924 14.1956C9.18955 14.2153 9.1237 14.1812 9.10544 14.1216C9.08581 14.0619 9.11982 13.9974 9.17815 13.9777C9.23922 13.9581 9.30375 13.9908 9.32332 14.0518L9.32469 14.0519Z" fill="#C4FF1C"/>
</svg>
