<svg width="62" height="62" viewBox="0 0 62 62" fill="none" xmlns="http://www.w3.org/2000/svg">
<path d="M49.2494 19.6393C47.8723 20.2281 46.3956 20.6285 44.8368 20.8228C46.4249 19.8866 47.6438 18.4087 48.2122 16.6542C46.7296 17.5256 45.0829 18.1497 43.3366 18.4794C41.9361 17.0192 39.9437 16.1007 37.7403 16.1007C33.5035 16.1007 30.0636 19.4744 30.0636 23.643C30.0636 24.2318 30.1339 24.8088 30.2629 25.3623C23.8871 25.0326 18.2322 22.0416 14.4466 17.4902C13.7844 18.603 13.4094 19.8866 13.4094 21.2761C13.4094 23.8844 14.763 26.1925 16.8258 27.5526C15.5659 27.4996 14.3821 27.1699 13.3449 26.5987V26.7047C13.3449 30.3552 15.9936 33.3933 19.498 34.0881C18.8533 34.2647 18.1736 34.3472 17.4762 34.3472C16.9781 34.3472 16.4976 34.2942 16.0288 34.2059C17.0074 37.1969 19.8437 39.3872 23.1956 39.4343C20.5703 41.4656 17.2653 42.6667 13.6672 42.6667C13.046 42.6667 12.4366 42.6314 11.8389 42.5607C15.2318 44.698 19.2636 45.9345 23.6 45.9345C37.7169 45.9345 45.4345 34.4649 45.4345 24.5086C45.4345 24.1788 45.4287 23.8491 45.417 23.5371C46.9171 22.4773 48.2122 21.1407 49.2436 19.6452L49.2494 19.6393Z" fill="black"/>
<path d="M27.3408 45.1517C27.152 44.628 27.4228 44.0473 27.95 43.8549C28.4773 43.6625 29.0615 43.9333 29.2575 44.4605C29.4499 44.9842 29.1756 45.5649 28.6483 45.7573C28.121 45.9497 27.5368 45.6789 27.3408 45.1517Z" fill="black"/>
<path d="M26.753 51.1902C26.696 51.037 26.7779 50.866 26.9347 50.809C27.0879 50.752 27.2553 50.8304 27.3159 50.9871C27.3729 51.1403 27.2909 51.3113 27.1342 51.3683C26.981 51.4253 26.8136 51.3469 26.753 51.1902Z" fill="black"/>
<path d="M47.6619 9.27608C47.6049 9.12289 47.6869 8.95188 47.8436 8.89488C47.9968 8.83788 48.1643 8.91982 48.2248 9.07301C48.2818 9.2262 48.1999 9.3972 48.0431 9.4542C47.8899 9.5112 47.7225 9.42927 47.6619 9.27608Z" fill="black"/>
<path d="M44.3075 9.85883C44.2505 9.70564 44.3324 9.53465 44.4821 9.47764C44.6388 9.42064 44.8098 9.50258 44.8668 9.65577C44.9203 9.80896 44.8419 9.97996 44.6851 10.037C44.532 10.094 44.3574 10.012 44.3039 9.85883H44.3075Z" fill="black"/>
<path d="M37.7302 40.122C37.6305 39.8441 37.7694 39.5377 38.0508 39.4344C38.3323 39.3346 38.6351 39.4771 38.742 39.755C38.8417 40.0329 38.6957 40.3393 38.4213 40.4426C38.1399 40.5423 37.83 40.3998 37.7302 40.122Z" fill="black"/>
<path d="M19.5388 31.4526C19.4925 31.3279 19.5566 31.1925 19.6777 31.1462C19.8024 31.0999 19.9413 31.164 19.9805 31.2887C20.0268 31.4134 19.9627 31.5487 19.8416 31.5951C19.7169 31.6414 19.578 31.5772 19.5388 31.4526Z" fill="black"/>
<path d="M25.5473 32.5685C25.501 32.4438 25.5651 32.3084 25.6863 32.2621C25.811 32.2158 25.9499 32.2799 25.9962 32.4046C26.039 32.5293 25.9713 32.6647 25.8501 32.711C25.7255 32.7573 25.5936 32.6932 25.5473 32.5685Z" fill="black"/>
<path d="M20.2458 39.2992C20.1995 39.1745 20.2636 39.0392 20.3847 38.9928C20.5094 38.9465 20.6484 39.0107 20.6947 39.1353C20.7339 39.26 20.6698 39.3954 20.5486 39.4417C20.4239 39.4845 20.285 39.4239 20.2458 39.2992Z" fill="black"/>
<path d="M8.89479 12.2429C8.8556 12.1183 8.91973 11.9829 9.04085 11.9366C9.16554 11.8903 9.29736 11.9544 9.34367 12.0791C9.38999 12.2038 9.32585 12.3391 9.20473 12.3854C9.08004 12.4318 8.9411 12.3676 8.89479 12.2429Z" fill="black"/>
<path d="M10.1139 9.65079C10.0676 9.5261 10.1317 9.39072 10.26 9.34441C10.3847 9.29809 10.5165 9.36223 10.5628 9.48692C10.6091 9.61161 10.545 9.74698 10.4238 9.79329C10.2956 9.83604 10.1602 9.77548 10.1139 9.65079Z" fill="black"/>
<path d="M16.3543 12.4534C16.3151 12.3287 16.3792 12.1933 16.5003 12.147C16.625 12.1007 16.7568 12.1648 16.8031 12.2895C16.8495 12.4142 16.7853 12.5496 16.6642 12.5959C16.5395 12.6422 16.4006 12.5781 16.3543 12.4534Z" fill="black"/>
<path d="M22.2299 52.7641C22.1836 52.6394 22.2478 52.504 22.3689 52.4577C22.4936 52.4114 22.6325 52.4755 22.6717 52.6002C22.718 52.7249 22.6539 52.8603 22.5328 52.9066C22.4081 52.9529 22.2691 52.8888 22.2299 52.7641Z" fill="black"/>
<path d="M35.8607 33.2647C35.7895 33.0794 35.8892 32.8728 36.078 32.8051C36.2597 32.7374 36.4628 32.8336 36.534 33.0189C36.6053 33.2041 36.5055 33.4108 36.3167 33.4785C36.135 33.5461 35.9248 33.45 35.8607 33.2647Z" fill="black"/>
<path d="M17.2277 41.1552C17.1564 40.9699 17.2562 40.7669 17.445 40.6956C17.6267 40.6279 17.8368 40.7241 17.901 40.9094C17.9722 41.0946 17.8725 41.3013 17.6908 41.369C17.502 41.4366 17.2989 41.3405 17.2277 41.1552Z" fill="black"/>
<path d="M27.0433 41.2038C26.9899 41.0507 27.0683 40.8796 27.225 40.8226C27.3782 40.7656 27.5528 40.844 27.6062 41.0008C27.6632 41.154 27.5813 41.325 27.4317 41.382C27.2749 41.439 27.1039 41.3606 27.0469 41.2038H27.0433Z" fill="black"/>
<path d="M39.916 28.4933C39.7272 27.9696 39.998 27.3889 40.5252 27.1966C41.0596 27.0042 41.6367 27.2749 41.8327 27.8022C42.0251 28.3259 41.7508 28.9066 41.2235 29.099C40.6962 29.2913 40.112 29.0206 39.916 28.4933Z" fill="black"/>
<path d="M39.3218 34.5347C39.2648 34.3816 39.3468 34.2105 39.5035 34.1535C39.6567 34.0965 39.8242 34.1785 39.8847 34.3317C39.9417 34.4849 39.8598 34.6559 39.703 34.7129C39.5499 34.7699 39.3824 34.6915 39.3218 34.5347Z" fill="black"/>
<path d="M49.347 30.2686C49.2936 30.1154 49.372 29.9444 49.5287 29.8874C49.6819 29.8304 49.8565 29.9124 49.9099 30.0656C49.9669 30.2188 49.885 30.3898 49.7354 30.4468C49.5786 30.5038 49.4076 30.4254 49.3506 30.2686H49.347Z" fill="black"/>
<path d="M52.0211 39.6812C51.9641 39.528 52.046 39.357 52.2028 39.3C52.3559 39.243 52.5234 39.325 52.584 39.4782C52.641 39.6313 52.559 39.8023 52.4094 39.8593C52.2526 39.9163 52.0816 39.8344 52.0246 39.6812H52.0211Z" fill="black"/>
<path d="M48.6727 40.2643C48.6157 40.1111 48.6977 39.9401 48.8473 39.8831C49.0041 39.8261 49.1751 39.9044 49.2321 40.0612C49.2855 40.2144 49.2071 40.3854 49.0504 40.4424C48.8972 40.4994 48.7226 40.421 48.6692 40.2643H48.6727Z" fill="black"/>
<path d="M50.2987 23.4672C50.1989 23.1893 50.3414 22.8829 50.6193 22.7796C50.9007 22.6799 51.2035 22.8224 51.3104 23.1002C51.4102 23.3781 51.2641 23.6845 50.9898 23.7878C50.7083 23.8876 50.3984 23.7451 50.2987 23.4672Z" fill="black"/>
<path d="M41.536 16.8906C41.479 16.7374 41.561 16.5664 41.7106 16.5094C41.8674 16.4524 42.0384 16.5343 42.0954 16.6875C42.1488 16.8407 42.0704 17.0117 41.9137 17.0687C41.7605 17.1257 41.5859 17.0438 41.5325 16.8906H41.536Z" fill="black"/>
<path d="M32.1137 14.7943C32.0674 14.6697 32.1315 14.5343 32.2527 14.488C32.3774 14.4416 32.5163 14.5058 32.5626 14.6305C32.6018 14.7552 32.5377 14.8905 32.4166 14.9368C32.2919 14.9832 32.1529 14.919 32.1137 14.7943Z" fill="black"/>
<path d="M38.1223 15.9107C38.076 15.786 38.1401 15.6506 38.2612 15.6043C38.3895 15.558 38.5249 15.6221 38.5712 15.7468C38.6139 15.8715 38.5462 16.0069 38.4251 16.0532C38.3004 16.0995 38.1686 16.0354 38.1223 15.9107Z" fill="black"/>
<path d="M32.8144 22.6477C32.7681 22.5231 32.8322 22.3877 32.9534 22.3414C33.078 22.295 33.217 22.3592 33.2633 22.4839C33.3025 22.6085 33.2384 22.7439 33.1172 22.7902C32.9925 22.8366 32.8607 22.7724 32.8144 22.6477Z" fill="black"/>
<path d="M13.2603 42.6509C13.2211 42.5262 13.2852 42.3908 13.4063 42.3445C13.531 42.2982 13.6628 42.3624 13.7092 42.487C13.7555 42.6117 13.6913 42.7471 13.5702 42.7934C13.4455 42.8397 13.3066 42.7756 13.2603 42.6509Z" fill="black"/>
<path d="M14.4791 40.0558C14.4328 39.9311 14.4969 39.7958 14.6252 39.7494C14.7499 39.7031 14.8817 39.7672 14.928 39.8919C14.9743 40.0166 14.9102 40.152 14.7891 40.1983C14.6608 40.2446 14.5254 40.1805 14.4791 40.0558Z" fill="black"/>
<path d="M20.7195 42.8619C20.6803 42.7372 20.7444 42.6018 20.8656 42.5555C20.9902 42.5092 21.1221 42.5733 21.1684 42.698C21.2147 42.8227 21.1506 42.958 21.0294 43.0044C20.9047 43.0507 20.7658 42.9865 20.7195 42.8619Z" fill="black"/>
<path d="M48.4296 16.6097C48.3583 16.4244 48.4581 16.2178 48.6469 16.1501C48.8286 16.0824 49.0388 16.1786 49.1029 16.3639C49.1741 16.5491 49.0744 16.7522 48.8856 16.8234C48.7039 16.8911 48.4937 16.7949 48.4296 16.6097Z" fill="black"/>
<path d="M29.7963 24.5002C29.725 24.3149 29.8248 24.1083 30.0136 24.0406C30.2024 23.9729 30.4055 24.0691 30.4696 24.2544C30.5408 24.4396 30.4411 24.6462 30.2594 24.7139C30.0706 24.7816 29.8675 24.6854 29.7963 24.5002Z" fill="black"/>
<path d="M39.618 24.5485C39.5646 24.3953 39.643 24.2243 39.7997 24.1673C39.9529 24.1103 40.1275 24.1923 40.1809 24.3455C40.2379 24.4987 40.156 24.6697 40.0064 24.7267C39.8496 24.7837 39.6786 24.7053 39.6216 24.5485H39.618Z" fill="black"/>
</svg>
