<svg width="62" height="62" viewBox="0 0 62 62" fill="none" xmlns="http://www.w3.org/2000/svg">
<path d="M24.2266 14.6801C19.2321 14.6801 15.1536 18.8766 15.1536 24.028V37.5447C15.1536 42.6794 19.2267 46.8816 24.2266 46.8816H37.3458C42.3294 46.8816 46.408 42.685 46.408 37.5336V24.028C46.408 18.8822 42.3348 14.6801 37.335 14.6801H24.2266ZM24.2266 17.1558H37.335C41.0364 17.1558 43.9996 20.2144 43.9996 24.0224V37.5281C43.9996 41.3416 41.031 44.3947 37.3404 44.3947H24.2212C20.5198 44.3947 17.5565 41.3361 17.5565 37.5336V24.0169C17.5565 20.2033 20.5252 17.1503 24.2212 17.1503L24.2266 17.1558ZM40.3952 19.6316C39.7271 19.6316 39.1938 20.1811 39.1938 20.8694C39.1938 21.5578 39.7271 22.1073 40.3952 22.1073C41.0633 22.1073 41.5967 21.5578 41.5967 20.8694C41.5967 20.1811 41.0633 19.6316 40.3952 19.6316ZM30.7781 22.1073C26.15 22.1073 22.3624 26.0041 22.3624 30.778C22.3624 35.5519 26.1446 39.4487 30.7781 39.4487C35.4115 39.4487 39.1938 35.5519 39.1938 30.778C39.1938 26.0041 35.4115 22.1073 30.7781 22.1073ZM30.7781 24.5831C34.1131 24.5831 36.7854 27.3419 36.7854 30.7725C36.7854 34.203 34.1077 36.9619 30.7781 36.9619C27.4484 36.9619 24.7707 34.203 24.7707 30.7725C24.7707 27.3419 27.4484 24.5831 30.7781 24.5831Z" fill="black"/>
<path d="M27.4551 44.7989C27.2663 44.2752 27.537 43.6945 28.0643 43.5021C28.5916 43.3097 29.1758 43.5805 29.3717 44.1077C29.5641 44.6314 29.2898 45.2121 28.7626 45.4045C28.2353 45.5969 27.651 45.3261 27.4551 44.7989Z" fill="black"/>
<path d="M26.8673 50.8373C26.8103 50.6841 26.8922 50.5131 27.049 50.4561C27.2021 50.3991 27.3696 50.4774 27.4301 50.6342C27.4871 50.7874 27.4052 50.9584 27.2485 51.0154C27.0953 51.0724 26.9278 50.994 26.8673 50.8373Z" fill="black"/>
<path d="M47.7762 8.92342C47.7192 8.77023 47.8011 8.59922 47.9579 8.54222C48.1111 8.48522 48.2785 8.56716 48.3391 8.72035C48.3961 8.87354 48.3141 9.04454 48.1574 9.10154C48.0042 9.15854 47.8368 9.07661 47.7762 8.92342Z" fill="black"/>
<path d="M44.4218 9.50592C44.3648 9.35273 44.4467 9.18174 44.5963 9.12474C44.7531 9.06774 44.9241 9.14968 44.9811 9.30287C45.0345 9.45606 44.9562 9.62705 44.7994 9.68405C44.6462 9.74105 44.4716 9.65911 44.4182 9.50592H44.4218Z" fill="black"/>
<path d="M37.8445 39.7693C37.7447 39.4914 37.8836 39.185 38.1651 39.0817C38.4465 38.982 38.7493 39.1245 38.8562 39.4024C38.956 39.6802 38.8099 39.9866 38.5356 40.0899C38.2542 40.1897 37.9442 40.0472 37.8445 39.7693Z" fill="black"/>
<path d="M19.653 31.0996C19.6067 30.975 19.6709 30.8396 19.792 30.7933C19.9167 30.7469 20.0556 30.8111 20.0948 30.9358C20.1411 31.0604 20.077 31.1958 19.9559 31.2421C19.8312 31.2885 19.6922 31.2243 19.653 31.0996Z" fill="black"/>
<path d="M25.6613 32.2157C25.615 32.091 25.6792 31.9557 25.8003 31.9093C25.925 31.863 26.0639 31.9272 26.1102 32.0518C26.153 32.1765 26.0853 32.3119 25.9642 32.3582C25.8395 32.4045 25.7077 32.3404 25.6613 32.2157Z" fill="black"/>
<path d="M20.3598 38.9464C20.3135 38.8218 20.3776 38.6864 20.4988 38.6401C20.6235 38.5937 20.7624 38.6579 20.8087 38.7826C20.8479 38.9073 20.7838 39.0426 20.6626 39.0889C20.538 39.1317 20.399 39.0711 20.3598 38.9464Z" fill="black"/>
<path d="M9.00904 11.89C8.96986 11.7654 9.03398 11.63 9.15511 11.5837C9.2798 11.5374 9.41162 11.6015 9.45793 11.7262C9.50424 11.8509 9.44011 11.9862 9.31899 12.0325C9.1943 12.0789 9.05536 12.0147 9.00904 11.89Z" fill="black"/>
<path d="M10.2282 9.29789C10.1818 9.1732 10.246 9.03781 10.3742 8.9915C10.4989 8.94519 10.6307 9.00932 10.677 9.13401C10.7233 9.2587 10.6592 9.39407 10.5381 9.44039C10.4098 9.48314 10.2745 9.42258 10.2282 9.29789Z" fill="black"/>
<path d="M16.4685 12.1005C16.4293 11.9758 16.4935 11.8404 16.6146 11.7941C16.7393 11.7478 16.8711 11.8119 16.9174 11.9366C16.9637 12.0613 16.8996 12.1967 16.7785 12.243C16.6538 12.2893 16.5148 12.2252 16.4685 12.1005Z" fill="black"/>
<path d="M22.3442 52.4113C22.2979 52.2866 22.362 52.1512 22.4831 52.1049C22.6078 52.0586 22.7468 52.1227 22.786 52.2474C22.8323 52.3721 22.7681 52.5075 22.647 52.5538C22.5223 52.6001 22.3834 52.536 22.3442 52.4113Z" fill="black"/>
<path d="M35.975 32.9119C35.9037 32.7267 36.0035 32.52 36.1923 32.4523C36.374 32.3847 36.577 32.4808 36.6483 32.6661C36.7196 32.8514 36.6198 33.058 36.431 33.1257C36.2493 33.1934 36.0391 33.0972 35.975 32.9119Z" fill="black"/>
<path d="M17.3419 40.8023C17.2707 40.617 17.3704 40.414 17.5592 40.3427C17.7409 40.275 17.9511 40.3712 18.0152 40.5565C18.0865 40.7417 17.9867 40.9484 17.805 41.0161C17.6162 41.0837 17.4132 40.9875 17.3419 40.8023Z" fill="black"/>
<path d="M27.1576 40.8509C27.1042 40.6977 27.1825 40.5267 27.3393 40.4697C27.4925 40.4127 27.667 40.4911 27.7205 40.6479C27.7775 40.8011 27.6955 40.9721 27.5459 41.0291C27.3892 41.0861 27.2182 41.0077 27.1612 40.8509H27.1576Z" fill="black"/>
<path d="M40.03 28.1404C39.8412 27.6167 40.112 27.036 40.6392 26.8437C41.1736 26.6513 41.7508 26.922 41.9467 27.4493C42.1391 27.973 41.8648 28.5537 41.3375 28.7461C40.8102 28.9384 40.226 28.6677 40.03 28.1404Z" fill="black"/>
<path d="M39.4361 34.182C39.3791 34.0288 39.461 33.8578 39.6178 33.8008C39.771 33.7438 39.9384 33.8257 39.999 33.9789C40.056 34.1321 39.9741 34.3031 39.8173 34.3601C39.6641 34.4171 39.4967 34.3387 39.4361 34.182Z" fill="black"/>
<path d="M49.4613 29.9158C49.4079 29.7627 49.4862 29.5917 49.643 29.5347C49.7962 29.4777 49.9707 29.5596 50.0242 29.7128C50.0812 29.866 49.9992 30.037 49.8496 30.094C49.6929 30.151 49.5219 30.0726 49.4649 29.9158H49.4613Z" fill="black"/>
<path d="M52.1353 39.3284C52.0783 39.1752 52.1603 39.0042 52.317 38.9472C52.4702 38.8902 52.6376 38.9722 52.6982 39.1254C52.7552 39.2786 52.6733 39.4496 52.5236 39.5066C52.3669 39.5636 52.1959 39.4816 52.1389 39.3284H52.1353Z" fill="black"/>
<path d="M48.787 39.9115C48.73 39.7583 48.8119 39.5873 48.9616 39.5303C49.1183 39.4733 49.2893 39.5517 49.3463 39.7084C49.3998 39.8616 49.3214 40.0326 49.1646 40.0896C49.0114 40.1466 48.8369 40.0682 48.7834 39.9115H48.787Z" fill="black"/>
<path d="M50.4127 23.1143C50.3129 22.8364 50.4554 22.53 50.7333 22.4267C51.0147 22.327 51.3176 22.4695 51.4244 22.7473C51.5242 23.0252 51.3781 23.3316 51.1038 23.4349C50.8224 23.5347 50.5124 23.3922 50.4127 23.1143Z" fill="black"/>
<path d="M41.65 16.5378C41.593 16.3846 41.675 16.2136 41.8246 16.1566C41.9814 16.0996 42.1524 16.1815 42.2094 16.3347C42.2628 16.4879 42.1844 16.6589 42.0277 16.7159C41.8745 16.7729 41.6999 16.691 41.6465 16.5378H41.65Z" fill="black"/>
<path d="M32.228 14.4414C32.1817 14.3168 32.2458 14.1814 32.3669 14.1351C32.4916 14.0887 32.6306 14.1529 32.6769 14.2776C32.7161 14.4023 32.6519 14.5376 32.5308 14.5839C32.4061 14.6303 32.2672 14.5661 32.228 14.4414Z" fill="black"/>
<path d="M38.2365 15.5578C38.1902 15.4331 38.2543 15.2977 38.3755 15.2514C38.5037 15.2051 38.6391 15.2692 38.6854 15.3939C38.7282 15.5186 38.6605 15.654 38.5394 15.7003C38.4147 15.7466 38.2829 15.6825 38.2365 15.5578Z" fill="black"/>
<path d="M32.9287 22.2948C32.8824 22.1701 32.9465 22.0348 33.0676 21.9885C33.1923 21.9421 33.3312 22.0063 33.3775 22.131C33.4167 22.2556 33.3526 22.391 33.2315 22.4373C33.1068 22.4836 32.975 22.4195 32.9287 22.2948Z" fill="black"/>
<path d="M13.3745 42.2981C13.3353 42.1734 13.3995 42.0381 13.5206 41.9917C13.6453 41.9454 13.7771 42.0096 13.8234 42.1343C13.8697 42.2589 13.8056 42.3943 13.6845 42.4406C13.5598 42.4869 13.4208 42.4228 13.3745 42.2981Z" fill="black"/>
<path d="M14.5931 39.703C14.5468 39.5784 14.611 39.443 14.7392 39.3967C14.8639 39.3503 14.9957 39.4145 15.042 39.5392C15.0883 39.6638 15.0242 39.7992 14.9031 39.8455C14.7748 39.8919 14.6395 39.8277 14.5931 39.703Z" fill="black"/>
<path d="M20.8338 42.5091C20.7946 42.3844 20.8587 42.249 20.9798 42.2027C21.1045 42.1564 21.2363 42.2205 21.2826 42.3452C21.329 42.4699 21.2648 42.6053 21.1437 42.6516C21.019 42.6979 20.8801 42.6338 20.8338 42.5091Z" fill="black"/>
<path d="M48.5438 16.2568C48.4726 16.0715 48.5723 15.8649 48.7611 15.7972C48.9428 15.7295 49.153 15.8257 49.2171 16.0109C49.2884 16.1962 49.1886 16.3993 48.9998 16.4705C48.8181 16.5382 48.6079 16.442 48.5438 16.2568Z" fill="black"/>
<path d="M29.9105 24.1473C29.8393 23.962 29.939 23.7554 30.1278 23.6877C30.3167 23.62 30.5197 23.7162 30.5838 23.9014C30.6551 24.0867 30.5553 24.2933 30.3737 24.361C30.1848 24.4287 29.9818 24.3325 29.9105 24.1473Z" fill="black"/>
<path d="M39.7323 24.1956C39.6789 24.0424 39.7572 23.8714 39.914 23.8144C40.0672 23.7574 40.2417 23.8394 40.2952 23.9926C40.3522 24.1458 40.2702 24.3168 40.1206 24.3738C39.9639 24.4308 39.7929 24.3524 39.7359 24.1956H39.7323Z" fill="black"/>
</svg>
