<svg width="25" height="24" viewBox="0 0 25 24" fill="none" xmlns="http://www.w3.org/2000/svg">
<path d="M17.7582 7.59216C16.8389 7.19021 15.8562 6.90487 14.8296 6.73615C14.7028 6.94953 14.5565 7.22991 14.4541 7.45818C13.3616 7.30434 12.2789 7.30434 11.2084 7.45818C11.106 7.22991 10.9548 6.94953 10.828 6.73615C9.79892 6.90239 8.81621 7.19021 7.89689 7.59216C6.04361 10.1925 5.54128 12.7233 5.79245 15.2219C7.02146 16.0779 8.21389 16.5915 9.38438 16.9315C9.67456 16.5642 9.93061 16.1697 10.155 15.7554C9.73065 15.609 9.32586 15.4204 8.94301 15.207C9.04543 15.14 9.14297 15.0656 9.24051 14.9936C11.5766 16.0035 14.1151 16.0035 16.4244 14.9936C16.5219 15.0681 16.6219 15.14 16.7219 15.207C16.3366 15.4204 15.9318 15.609 15.5075 15.7554C15.7294 16.1697 15.9854 16.5642 16.2781 16.9315C17.451 16.5965 18.6434 16.0754 19.8724 15.2219C20.1675 12.3288 19.3677 9.81533 17.7607 7.59216H17.7582ZM10.472 13.686C9.76966 13.686 9.19661 13.0781 9.19661 12.3437C9.19661 11.6093 9.75991 10.9939 10.472 10.9939C11.184 10.9939 11.7595 11.6018 11.7497 12.3437C11.7497 13.0781 11.1864 13.686 10.472 13.686ZM15.1905 13.686C14.4882 13.686 13.9151 13.0781 13.9151 12.3437C13.9151 11.6093 14.4784 10.9939 15.1905 10.9939C15.9025 10.9939 16.4805 11.6018 16.4683 12.3437C16.4683 13.0781 15.905 13.686 15.1905 13.686Z" fill="#C4FF1C"/>
<path d="M11.5539 17.3588C11.4813 17.1575 11.5854 16.9342 11.7881 16.8603C11.9908 16.7863 12.2154 16.8904 12.2907 17.0931C12.3647 17.2944 12.2592 17.5177 12.0565 17.5917C11.8538 17.6656 11.6292 17.5615 11.5539 17.3588Z" fill="#C4FF1C"/>
<path d="M11.3279 19.6803C11.306 19.6214 11.3375 19.5557 11.3977 19.5338C11.4566 19.5119 11.521 19.542 11.5443 19.6023C11.5662 19.6612 11.5347 19.7269 11.4744 19.7488C11.4156 19.7707 11.3512 19.7406 11.3279 19.6803Z" fill="#C4FF1C"/>
<path d="M19.3663 3.56629C19.3444 3.50739 19.3759 3.44165 19.4362 3.41974C19.4951 3.39782 19.5595 3.42932 19.5828 3.48822C19.6047 3.54711 19.5732 3.61286 19.5129 3.63477C19.454 3.65669 19.3896 3.62518 19.3663 3.56629Z" fill="#C4FF1C"/>
<path d="M18.0767 3.79031C18.0548 3.73142 18.0863 3.66568 18.1438 3.64377C18.2041 3.62185 18.2698 3.65335 18.2917 3.71225C18.3123 3.77114 18.2821 3.83688 18.2219 3.8588C18.163 3.88071 18.0959 3.84921 18.0753 3.79031H18.0767Z" fill="#C4FF1C"/>
<path d="M15.548 15.4251C15.5097 15.3183 15.5631 15.2005 15.6713 15.1608C15.7795 15.1224 15.8959 15.1772 15.937 15.2841C15.9754 15.3909 15.9192 15.5087 15.8137 15.5484C15.7055 15.5867 15.5864 15.532 15.548 15.4251Z" fill="#C4FF1C"/>
<path d="M8.55439 12.0921C8.53658 12.0442 8.56124 11.9921 8.60781 11.9743C8.65574 11.9565 8.70916 11.9812 8.72422 12.0291C8.74203 12.077 8.71738 12.1291 8.67081 12.1469C8.62287 12.1647 8.56946 12.1401 8.55439 12.0921Z" fill="#C4FF1C"/>
<path d="M10.8642 12.5212C10.8464 12.4732 10.8711 12.4212 10.9176 12.4034C10.9656 12.3856 11.019 12.4102 11.0368 12.4582C11.0532 12.5061 11.0272 12.5581 10.9806 12.5759C10.9327 12.5938 10.882 12.5691 10.8642 12.5212Z" fill="#C4FF1C"/>
<path d="M8.82612 15.1088C8.80831 15.0609 8.83296 15.0088 8.87953 14.991C8.92747 14.9732 8.98088 14.9979 8.99869 15.0458C9.01376 15.0937 8.98911 15.1458 8.94254 15.1636C8.8946 15.18 8.84118 15.1567 8.82612 15.1088Z" fill="#C4FF1C"/>
<path d="M4.46218 4.70689C4.44711 4.65895 4.47177 4.60691 4.51834 4.5891C4.56627 4.5713 4.61695 4.59595 4.63476 4.64389C4.65256 4.69183 4.62791 4.74387 4.58134 4.76168C4.5334 4.77948 4.47998 4.75483 4.46218 4.70689Z" fill="#C4FF1C"/>
<path d="M4.93082 3.71031C4.91302 3.66238 4.93767 3.61033 4.98698 3.59252C5.03492 3.57472 5.08559 3.59937 5.1034 3.64731C5.1212 3.69525 5.09655 3.74729 5.04998 3.7651C5.00068 3.78153 4.94863 3.75825 4.93082 3.71031Z" fill="#C4FF1C"/>
<path d="M7.32998 4.78779C7.31491 4.73986 7.33957 4.68781 7.38613 4.67001C7.43407 4.6522 7.48475 4.67685 7.50255 4.72479C7.52036 4.77273 7.4957 4.82477 7.44914 4.84258C7.4012 4.86038 7.34778 4.83573 7.32998 4.78779Z" fill="#C4FF1C"/>
<path d="M9.58894 20.2854C9.57113 20.2375 9.59579 20.1855 9.64235 20.1677C9.69029 20.1499 9.7437 20.1745 9.75877 20.2224C9.77657 20.2704 9.75192 20.3224 9.70536 20.3402C9.65742 20.358 9.604 20.3334 9.58894 20.2854Z" fill="#C4FF1C"/>
<path d="M14.8293 12.7888C14.8019 12.7176 14.8403 12.6381 14.9129 12.6121C14.9827 12.5861 15.0608 12.6231 15.0882 12.6943C15.1156 12.7655 15.0772 12.8449 15.0046 12.871C14.9348 12.897 14.854 12.86 14.8293 12.7888Z" fill="#C4FF1C"/>
<path d="M7.66585 15.8223C7.63846 15.7511 7.67681 15.6731 7.7494 15.6457C7.81925 15.6196 7.90006 15.6566 7.92471 15.7278C7.9521 15.7991 7.91375 15.8785 7.8439 15.9045C7.77131 15.9306 7.69324 15.8936 7.66585 15.8223Z" fill="#C4FF1C"/>
<path d="M11.4394 15.841C11.4189 15.7821 11.449 15.7164 11.5093 15.6945C11.5682 15.6726 11.6353 15.7027 11.6558 15.763C11.6777 15.8219 11.6462 15.8876 11.5887 15.9095C11.5284 15.9314 11.4627 15.9013 11.4408 15.841H11.4394Z" fill="#C4FF1C"/>
<path d="M16.3883 10.9544C16.3157 10.7531 16.4198 10.5298 16.6225 10.4559C16.828 10.3819 17.0499 10.486 17.1252 10.6887C17.1992 10.8901 17.0937 11.1133 16.891 11.1873C16.6883 11.2612 16.4637 11.1571 16.3883 10.9544Z" fill="#C4FF1C"/>
<path d="M16.1599 13.2771C16.138 13.2182 16.1695 13.1524 16.2298 13.1305C16.2887 13.1086 16.353 13.1401 16.3763 13.199C16.3982 13.2579 16.3667 13.3236 16.3065 13.3456C16.2476 13.3675 16.1832 13.3373 16.1599 13.2771Z" fill="#C4FF1C"/>
<path d="M20.0142 11.637C19.9937 11.5781 20.0238 11.5123 20.0841 11.4904C20.143 11.4685 20.2101 11.5 20.2306 11.5589C20.2526 11.6178 20.2211 11.6835 20.1635 11.7054C20.1033 11.7274 20.0375 11.6972 20.0156 11.637H20.0142Z" fill="#C4FF1C"/>
<path d="M21.0423 15.2556C21.0203 15.1968 21.0518 15.131 21.1121 15.1091C21.171 15.0872 21.2354 15.1187 21.2587 15.1776C21.2806 15.2365 21.2491 15.3022 21.1915 15.3241C21.1313 15.346 21.0655 15.3145 21.0436 15.2556H21.0423Z" fill="#C4FF1C"/>
<path d="M19.7549 15.4798C19.733 15.4209 19.7645 15.3552 19.822 15.3333C19.8823 15.3114 19.948 15.3415 19.97 15.4018C19.9905 15.4607 19.9604 15.5264 19.9001 15.5483C19.8412 15.5702 19.7741 15.5401 19.7536 15.4798H19.7549Z" fill="#C4FF1C"/>
<path d="M20.38 9.02208C20.3417 8.91525 20.3965 8.79746 20.5033 8.75774C20.6115 8.71939 20.7279 8.77418 20.769 8.88101C20.8074 8.98784 20.7512 9.10563 20.6457 9.14535C20.5375 9.1837 20.4184 9.12891 20.38 9.02208Z" fill="#C4FF1C"/>
<path d="M17.0112 6.49369C16.9892 6.43479 17.0207 6.36905 17.0783 6.34714C17.1385 6.32522 17.2043 6.35672 17.2262 6.41562C17.2467 6.47451 17.2166 6.54026 17.1563 6.56217C17.0974 6.58408 17.0303 6.55258 17.0098 6.49369H17.0112Z" fill="#C4FF1C"/>
<path d="M13.3887 5.68776C13.3709 5.63982 13.3956 5.58777 13.4422 5.56997C13.4901 5.55216 13.5435 5.57682 13.5613 5.62476C13.5764 5.6727 13.5517 5.72474 13.5052 5.74254C13.4572 5.76035 13.4038 5.7357 13.3887 5.68776Z" fill="#C4FF1C"/>
<path d="M15.6988 6.11693C15.681 6.06899 15.7056 6.01694 15.7522 5.99914C15.8015 5.98133 15.8536 6.00599 15.8714 6.05392C15.8878 6.10186 15.8618 6.15391 15.8152 6.17171C15.7673 6.18952 15.7166 6.16487 15.6988 6.11693Z" fill="#C4FF1C"/>
<path d="M13.6581 8.70705C13.6403 8.65911 13.665 8.60706 13.7116 8.58926C13.7595 8.57145 13.8129 8.5961 13.8307 8.64404C13.8458 8.69198 13.8211 8.74403 13.7746 8.76183C13.7266 8.77964 13.676 8.75499 13.6581 8.70705Z" fill="#C4FF1C"/>
<path d="M6.1404 16.3974C6.12534 16.3495 6.14999 16.2974 6.19656 16.2796C6.2445 16.2618 6.29517 16.2865 6.31298 16.3344C6.33078 16.3824 6.30613 16.4344 6.25956 16.4522C6.21162 16.47 6.15821 16.4454 6.1404 16.3974Z" fill="#C4FF1C"/>
<path d="M6.60905 15.3997C6.59124 15.3517 6.6159 15.2997 6.6652 15.2819C6.71314 15.2641 6.76381 15.2887 6.78162 15.3367C6.79942 15.3846 6.77477 15.4367 6.72821 15.4545C6.6789 15.4723 6.62685 15.4476 6.60905 15.3997Z" fill="#C4FF1C"/>
<path d="M9.0082 16.4785C8.99313 16.4305 9.01779 16.3785 9.06436 16.3607C9.11229 16.3429 9.16297 16.3675 9.18078 16.4155C9.19858 16.4634 9.17393 16.5154 9.12736 16.5333C9.07942 16.5511 9.02601 16.5264 9.0082 16.4785Z" fill="#C4FF1C"/>
<path d="M19.6615 6.3857C19.6341 6.31448 19.6724 6.23504 19.745 6.20902C19.8149 6.183 19.8957 6.21998 19.9203 6.2912C19.9477 6.36242 19.9094 6.44049 19.8368 6.46788C19.7669 6.49391 19.6861 6.45692 19.6615 6.3857Z" fill="#C4FF1C"/>
<path d="M12.4979 9.41924C12.4705 9.34802 12.5088 9.26858 12.5814 9.24256C12.654 9.21653 12.7321 9.25351 12.7567 9.32474C12.7841 9.39596 12.7458 9.4754 12.6759 9.50142C12.6033 9.52744 12.5253 9.49046 12.4979 9.41924Z" fill="#C4FF1C"/>
<path d="M16.2739 9.43781C16.2533 9.37892 16.2835 9.31317 16.3437 9.29126C16.4026 9.26934 16.4697 9.30084 16.4903 9.35974C16.5122 9.41863 16.4807 9.48438 16.4232 9.50629C16.3629 9.52821 16.2972 9.49807 16.2753 9.43781H16.2739Z" fill="#C4FF1C"/>
</svg>
