<svg width="24" height="24" viewBox="0 0 24 24" fill="none" xmlns="http://www.w3.org/2000/svg">
<path d="M9.49865 5.64377C7.57851 5.64377 6.0105 7.25716 6.0105 9.23762V14.4342C6.0105 16.4083 7.57644 18.0238 9.49865 18.0238H14.5424C16.4584 18.0238 18.0264 16.4104 18.0264 14.4299V9.23762C18.0264 7.2593 16.4605 5.64377 14.5382 5.64377H9.49865ZM9.49865 6.59559H14.5382C15.9613 6.59559 17.1005 7.77148 17.1005 9.23549V14.4278C17.1005 15.8939 15.9592 17.0677 14.5403 17.0677H9.49658C8.07356 17.0677 6.93432 15.8918 6.93432 14.4299V9.23336C6.93432 7.76722 8.07563 6.59345 9.49658 6.59345L9.49865 6.59559ZM15.7148 7.5474C15.4579 7.5474 15.2529 7.75868 15.2529 8.02331C15.2529 8.28794 15.4579 8.49922 15.7148 8.49922C15.9716 8.49922 16.1767 8.28794 16.1767 8.02331C16.1767 7.75868 15.9716 7.5474 15.7148 7.5474ZM12.0174 8.49922C10.2381 8.49922 8.78197 9.99737 8.78197 11.8327C8.78197 13.6681 10.2361 15.1662 12.0174 15.1662C13.7988 15.1662 15.2529 13.6681 15.2529 11.8327C15.2529 9.99737 13.7988 8.49922 12.0174 8.49922ZM12.0174 9.45104C13.2996 9.45104 14.327 10.5117 14.327 11.8306C14.327 13.1495 13.2975 14.2101 12.0174 14.2101C10.7373 14.2101 9.70786 13.1495 9.70786 11.8306C9.70786 10.5117 10.7373 9.45104 12.0174 9.45104Z" fill="#C4FF1C"/>
<path d="M10.7398 17.2231C10.6672 17.0218 10.7713 16.7985 10.974 16.7246C11.1767 16.6506 11.4013 16.7547 11.4766 16.9574C11.5506 17.1587 11.4451 17.382 11.2424 17.4559C11.0397 17.5299 10.8151 17.4258 10.7398 17.2231Z" fill="#C4FF1C"/>
<path d="M10.5138 19.5446C10.4919 19.4857 10.5234 19.42 10.5837 19.3981C10.6426 19.3762 10.7069 19.4063 10.7302 19.4666C10.7521 19.5254 10.7206 19.5912 10.6604 19.6131C10.6015 19.635 10.5371 19.6049 10.5138 19.5446Z" fill="#C4FF1C"/>
<path d="M18.5524 3.43061C18.5305 3.37171 18.562 3.30597 18.6222 3.28406C18.6811 3.26214 18.7455 3.29364 18.7688 3.35254C18.7907 3.41143 18.7592 3.47718 18.6989 3.49909C18.64 3.521 18.5757 3.4895 18.5524 3.43061Z" fill="#C4FF1C"/>
<path d="M17.2627 3.6546C17.2408 3.59571 17.2723 3.52997 17.3298 3.50805C17.3901 3.48614 17.4559 3.51764 17.4778 3.57654C17.4983 3.63543 17.4682 3.70117 17.4079 3.72308C17.349 3.745 17.2819 3.7135 17.2614 3.6546H17.2627Z" fill="#C4FF1C"/>
<path d="M14.7341 15.2894C14.6957 15.1826 14.7491 15.0648 14.8573 15.0251C14.9655 14.9868 15.0819 15.0415 15.123 15.1484C15.1614 15.2552 15.1052 15.373 14.9998 15.4127C14.8916 15.4511 14.7724 15.3963 14.7341 15.2894Z" fill="#C4FF1C"/>
<path d="M7.7403 11.9564C7.7225 11.9085 7.74715 11.8564 7.79372 11.8386C7.84166 11.8208 7.89507 11.8455 7.91014 11.8934C7.92794 11.9413 7.90329 11.9934 7.85672 12.0112C7.80879 12.029 7.75537 12.0043 7.7403 11.9564Z" fill="#C4FF1C"/>
<path d="M10.0502 12.3854C10.0324 12.3375 10.0571 12.2855 10.1037 12.2677C10.1516 12.2499 10.205 12.2745 10.2228 12.3224C10.2393 12.3704 10.2132 12.4224 10.1667 12.4402C10.1187 12.458 10.068 12.4334 10.0502 12.3854Z" fill="#C4FF1C"/>
<path d="M8.01203 14.9731C7.99423 14.9252 8.01888 14.8731 8.06545 14.8553C8.11338 14.8375 8.1668 14.8622 8.1846 14.9101C8.19967 14.958 8.17502 15.0101 8.12845 15.0279C8.08051 15.0443 8.0271 15.021 8.01203 14.9731Z" fill="#C4FF1C"/>
<path d="M3.64809 4.57115C3.63303 4.52321 3.65768 4.47117 3.70425 4.45336C3.75219 4.43556 3.80286 4.46021 3.82067 4.50815C3.83847 4.55608 3.81382 4.60813 3.76725 4.62593C3.71931 4.64374 3.6659 4.61909 3.64809 4.57115Z" fill="#C4FF1C"/>
<path d="M4.11674 3.5746C4.09893 3.52666 4.12359 3.47461 4.17289 3.45681C4.22083 3.439 4.2715 3.46366 4.28931 3.5116C4.30712 3.55954 4.28246 3.61158 4.2359 3.62939C4.18659 3.64582 4.13454 3.62254 4.11674 3.5746Z" fill="#C4FF1C"/>
<path d="M6.51589 4.65208C6.50082 4.60414 6.52548 4.5521 6.57205 4.53429C6.61998 4.51649 6.67066 4.54114 6.68847 4.58908C6.70627 4.63702 6.68162 4.68906 6.63505 4.70687C6.58711 4.72467 6.5337 4.70002 6.51589 4.65208Z" fill="#C4FF1C"/>
<path d="M8.77485 20.1497C8.75704 20.1018 8.7817 20.0497 8.82827 20.0319C8.8762 20.0141 8.92962 20.0388 8.94468 20.0867C8.96249 20.1347 8.93784 20.1867 8.89127 20.2045C8.84333 20.2223 8.78991 20.1977 8.77485 20.1497Z" fill="#C4FF1C"/>
<path d="M14.0153 12.6531C13.9879 12.5819 14.0263 12.5024 14.0989 12.4764C14.1687 12.4504 14.2468 12.4874 14.2742 12.5586C14.3016 12.6298 14.2632 12.7093 14.1907 12.7353C14.1208 12.7613 14.04 12.7243 14.0153 12.6531Z" fill="#C4FF1C"/>
<path d="M6.85176 15.6866C6.82437 15.6154 6.86272 15.5373 6.93531 15.5099C7.00516 15.4839 7.08597 15.5209 7.11062 15.5921C7.13802 15.6633 7.09967 15.7428 7.02982 15.7688C6.95723 15.7948 6.87916 15.7578 6.85176 15.6866Z" fill="#C4FF1C"/>
<path d="M10.6253 15.7053C10.6048 15.6464 10.6349 15.5807 10.6952 15.5588C10.7541 15.5369 10.8212 15.567 10.8417 15.6273C10.8636 15.6862 10.8321 15.7519 10.7746 15.7738C10.7144 15.7957 10.6486 15.7656 10.6267 15.7053H10.6253Z" fill="#C4FF1C"/>
<path d="M15.5744 10.8187C15.5018 10.6174 15.6059 10.3941 15.8086 10.3202C16.014 10.2462 16.2359 10.3503 16.3112 10.553C16.3852 10.7543 16.2797 10.9776 16.077 11.0516C15.8743 11.1255 15.6497 11.0214 15.5744 10.8187Z" fill="#C4FF1C"/>
<path d="M15.346 13.1414C15.324 13.0825 15.3556 13.0168 15.4158 12.9948C15.4747 12.9729 15.5391 13.0044 15.5624 13.0633C15.5843 13.1222 15.5528 13.188 15.4925 13.2099C15.4336 13.2318 15.3692 13.2017 15.346 13.1414Z" fill="#C4FF1C"/>
<path d="M19.2002 11.5013C19.1796 11.4424 19.2097 11.3766 19.27 11.3547C19.3289 11.3328 19.396 11.3643 19.4166 11.4232C19.4385 11.4821 19.407 11.5479 19.3494 11.5698C19.2892 11.5917 19.2234 11.5616 19.2015 11.5013H19.2002Z" fill="#C4FF1C"/>
<path d="M20.2282 15.12C20.2062 15.0611 20.2378 14.9953 20.298 14.9734C20.3569 14.9515 20.4213 14.983 20.4446 15.0419C20.4665 15.1008 20.435 15.1665 20.3775 15.1884C20.3172 15.2104 20.2514 15.1789 20.2295 15.12H20.2282Z" fill="#C4FF1C"/>
<path d="M18.941 15.3442C18.919 15.2853 18.9505 15.2195 19.0081 15.1976C19.0683 15.1757 19.1341 15.2058 19.156 15.2661C19.1765 15.325 19.1464 15.3907 19.0861 15.4126C19.0272 15.4345 18.9601 15.4044 18.9396 15.3442H18.941Z" fill="#C4FF1C"/>
<path d="M19.5659 8.88637C19.5276 8.77954 19.5824 8.66175 19.6892 8.62203C19.7974 8.58368 19.9138 8.63847 19.9549 8.7453C19.9933 8.85213 19.9371 8.96992 19.8317 9.00964C19.7234 9.04799 19.6043 8.9932 19.5659 8.88637Z" fill="#C4FF1C"/>
<path d="M16.1972 6.35801C16.1753 6.29911 16.2068 6.23337 16.2643 6.21145C16.3246 6.18954 16.3903 6.22104 16.4122 6.27994C16.4328 6.33883 16.4026 6.40457 16.3424 6.42649C16.2835 6.4484 16.2164 6.4169 16.1958 6.35801H16.1972Z" fill="#C4FF1C"/>
<path d="M12.5747 5.55205C12.5568 5.50411 12.5815 5.45206 12.6281 5.43426C12.676 5.41645 12.7294 5.44111 12.7472 5.48905C12.7623 5.53698 12.7376 5.58903 12.6911 5.60683C12.6431 5.62464 12.5897 5.59999 12.5747 5.55205Z" fill="#C4FF1C"/>
<path d="M14.8847 5.98122C14.8669 5.93328 14.8916 5.88123 14.9381 5.86343C14.9874 5.84562 15.0395 5.87027 15.0573 5.91821C15.0737 5.96615 15.0477 6.0182 15.0011 6.036C14.9532 6.05381 14.9025 6.02916 14.8847 5.98122Z" fill="#C4FF1C"/>
<path d="M12.8441 8.57131C12.8263 8.52337 12.8509 8.47132 12.8975 8.45351C12.9454 8.43571 12.9988 8.46036 13.0166 8.5083C13.0317 8.55624 13.0071 8.60828 12.9605 8.62609C12.9125 8.6439 12.8619 8.61924 12.8441 8.57131Z" fill="#C4FF1C"/>
<path d="M5.32644 16.2617C5.31137 16.2138 5.33603 16.1617 5.38259 16.1439C5.43053 16.1261 5.48121 16.1508 5.49901 16.1987C5.51682 16.2467 5.49216 16.2987 5.4456 16.3165C5.39766 16.3343 5.34424 16.3097 5.32644 16.2617Z" fill="#C4FF1C"/>
<path d="M5.79496 15.264C5.77716 15.2161 5.80181 15.164 5.85112 15.1462C5.89905 15.1284 5.94973 15.1531 5.96753 15.201C5.98534 15.249 5.96069 15.301 5.91412 15.3188C5.86481 15.3366 5.81277 15.312 5.79496 15.264Z" fill="#C4FF1C"/>
<path d="M8.19424 16.3428C8.17917 16.2949 8.20382 16.2428 8.25039 16.225C8.29833 16.2072 8.34901 16.2319 8.36681 16.2798C8.38462 16.3278 8.35996 16.3798 8.31339 16.3976C8.26546 16.4154 8.21204 16.3908 8.19424 16.3428Z" fill="#C4FF1C"/>
<path d="M18.8475 6.24999C18.8201 6.17877 18.8584 6.09933 18.931 6.07331C19.0009 6.04728 19.0817 6.08426 19.1064 6.15549C19.1337 6.22671 19.0954 6.30478 19.0228 6.33217C18.953 6.35819 18.8721 6.32121 18.8475 6.24999Z" fill="#C4FF1C"/>
<path d="M11.6838 9.28353C11.6564 9.21231 11.6948 9.13287 11.7673 9.10685C11.8399 9.08082 11.918 9.1178 11.9427 9.18902C11.9701 9.26025 11.9317 9.33969 11.8619 9.36571C11.7893 9.39173 11.7112 9.35475 11.6838 9.28353Z" fill="#C4FF1C"/>
<path d="M15.4598 9.3021C15.4393 9.2432 15.4694 9.17746 15.5296 9.15555C15.5885 9.13363 15.6557 9.16513 15.6762 9.22403C15.6981 9.28292 15.6666 9.34867 15.6091 9.37058C15.5488 9.39249 15.4831 9.36236 15.4612 9.3021H15.4598Z" fill="#C4FF1C"/>
</svg>
