<svg width="25" height="24" viewBox="0 0 25 24" fill="none" xmlns="http://www.w3.org/2000/svg">
<g clip-path="url(#clip0_130_447)">
<path fill-rule="evenodd" clip-rule="evenodd" d="M9.40322 15.1109C11.2669 15.1109 12.7784 13.6026 12.7784 11.7406C12.7784 9.8787 11.2669 8.37466 9.40322 8.37466C7.53949 8.37466 6.02588 9.88296 6.02588 11.7406C6.02588 13.5983 7.53736 15.1109 9.40322 15.1109ZM15.0307 14.8318C15.9636 14.8318 16.7194 13.4492 16.7194 11.7406C16.7194 10.0321 15.9636 8.65587 15.0307 8.65587C14.0978 8.65587 13.342 10.0385 13.342 11.7406C13.342 13.4428 14.0978 14.8318 15.0307 14.8318ZM18.408 11.7406C18.408 13.2937 18.1561 14.5506 17.8444 14.5506C17.5327 14.5506 17.2808 13.2937 17.2808 11.7406C17.2808 10.1876 17.5327 8.93495 17.8444 8.93495C18.1561 8.93495 18.408 10.1919 18.408 11.7406Z" fill="#C4FF1C"/>
</g>
<path d="M10.9373 17.7693C10.8647 17.5679 10.9688 17.3447 11.1715 17.2707C11.3742 17.1968 11.5988 17.3009 11.6741 17.5036C11.7481 17.7049 11.6426 17.9282 11.4399 18.0021C11.2372 18.0761 11.0126 17.972 10.9373 17.7693Z" fill="#C4FF1C"/>
<path d="M10.7112 20.0908C10.6893 20.0319 10.7208 19.9661 10.781 19.9442C10.8399 19.9223 10.9043 19.9524 10.9276 20.0127C10.9495 20.0716 10.918 20.1373 10.8577 20.1592C10.7989 20.1812 10.7345 20.151 10.7112 20.0908Z" fill="#C4FF1C"/>
<path d="M18.7498 3.97672C18.7279 3.91783 18.7594 3.85208 18.8196 3.83017C18.8785 3.80825 18.9429 3.83975 18.9662 3.89865C18.9881 3.95754 18.9566 4.02329 18.8963 4.0452C18.8374 4.06712 18.7731 4.03561 18.7498 3.97672Z" fill="#C4FF1C"/>
<path d="M17.4601 4.20071C17.4382 4.14182 17.4697 4.07608 17.5272 4.05417C17.5875 4.03225 17.6532 4.06375 17.6752 4.12265C17.6957 4.18154 17.6656 4.24728 17.6053 4.2692C17.5464 4.29111 17.4793 4.25961 17.4588 4.20071H17.4601Z" fill="#C4FF1C"/>
<path d="M14.9314 15.8356C14.8931 15.7288 14.9465 15.611 15.0547 15.5712C15.1629 15.5329 15.2793 15.5877 15.3204 15.6945C15.3588 15.8013 15.3026 15.9191 15.1972 15.9589C15.089 15.9972 14.9698 15.9424 14.9314 15.8356Z" fill="#C4FF1C"/>
<path d="M7.93769 12.5026C7.91988 12.4546 7.94454 12.4026 7.99111 12.3848C8.03905 12.367 8.09246 12.3916 8.10752 12.4396C8.12533 12.4875 8.10068 12.5396 8.05411 12.5574C8.00617 12.5752 7.95276 12.5505 7.93769 12.5026Z" fill="#C4FF1C"/>
<path d="M10.2476 12.9316C10.2298 12.8837 10.2545 12.8316 10.301 12.8138C10.349 12.796 10.4024 12.8207 10.4202 12.8686C10.4366 12.9165 10.4106 12.9686 10.364 12.9864C10.3161 13.0042 10.2654 12.9795 10.2476 12.9316Z" fill="#C4FF1C"/>
<path d="M8.20954 15.5193C8.19174 15.4714 8.21639 15.4193 8.26295 15.4015C8.31089 15.3837 8.36431 15.4084 8.38211 15.4563C8.39718 15.5042 8.37253 15.5563 8.32596 15.5741C8.27802 15.5905 8.22461 15.5672 8.20954 15.5193Z" fill="#C4FF1C"/>
<path d="M3.8456 5.11729C3.83054 5.06935 3.85519 5.01731 3.90176 4.9995C3.9497 4.9817 4.00037 5.00635 4.01818 5.05429C4.03598 5.10223 4.01133 5.15427 3.96476 5.17208C3.91682 5.18988 3.86341 5.16523 3.8456 5.11729Z" fill="#C4FF1C"/>
<path d="M4.31425 4.12071C4.29644 4.07278 4.3211 4.02073 4.3704 4.00292C4.41834 3.98512 4.46901 4.00977 4.48682 4.05771C4.50462 4.10565 4.47997 4.15769 4.43341 4.1755C4.3841 4.19193 4.33205 4.16865 4.31425 4.12071Z" fill="#C4FF1C"/>
<path d="M6.7134 5.19825C6.69833 5.15032 6.72299 5.09827 6.76956 5.08047C6.81749 5.06266 6.86817 5.08731 6.88598 5.13525C6.90378 5.18319 6.87913 5.23523 6.83256 5.25304C6.78462 5.27084 6.73121 5.24619 6.7134 5.19825Z" fill="#C4FF1C"/>
<path d="M8.97236 20.6958C8.95455 20.6479 8.97921 20.5959 9.02578 20.5781C9.07371 20.5603 9.12713 20.5849 9.14219 20.6328C9.16 20.6808 9.13535 20.7328 9.08878 20.7506C9.04084 20.7684 8.98742 20.7438 8.97236 20.6958Z" fill="#C4FF1C"/>
<path d="M14.2128 13.1992C14.1855 13.128 14.2238 13.0485 14.2964 13.0225C14.3662 12.9965 14.4443 13.0335 14.4717 13.1047C14.4991 13.1759 14.4608 13.2554 14.3882 13.2814C14.3183 13.3074 14.2375 13.2704 14.2128 13.1992Z" fill="#C4FF1C"/>
<path d="M7.04927 16.2327C7.02188 16.1615 7.06023 16.0835 7.13282 16.0561C7.20267 16.03 7.28348 16.067 7.30813 16.1382C7.33553 16.2095 7.29718 16.2889 7.22733 16.3149C7.15474 16.341 7.07667 16.304 7.04927 16.2327Z" fill="#C4FF1C"/>
<path d="M10.8228 16.2515C10.8023 16.1926 10.8324 16.1268 10.8927 16.1049C10.9516 16.083 11.0187 16.1131 11.0392 16.1734C11.0612 16.2323 11.0297 16.298 10.9721 16.32C10.9119 16.3419 10.8461 16.3117 10.8242 16.2515H10.8228Z" fill="#C4FF1C"/>
<path d="M15.7718 11.3649C15.6992 11.1635 15.8033 10.9403 16.006 10.8663C16.2114 10.7924 16.4333 10.8965 16.5086 11.0992C16.5826 11.3005 16.4771 11.5238 16.2744 11.5977C16.0717 11.6717 15.8471 11.5676 15.7718 11.3649Z" fill="#C4FF1C"/>
<path d="M15.5435 13.6875C15.5216 13.6286 15.5531 13.5629 15.6133 13.541C15.6722 13.519 15.7366 13.5505 15.7599 13.6094C15.7818 13.6683 15.7503 13.7341 15.69 13.756C15.6311 13.7779 15.5668 13.7478 15.5435 13.6875Z" fill="#C4FF1C"/>
<path d="M19.3977 12.0474C19.3771 11.9885 19.4072 11.9227 19.4675 11.9008C19.5264 11.8789 19.5935 11.9104 19.6141 11.9693C19.636 12.0282 19.6045 12.0939 19.547 12.1159C19.4867 12.1378 19.4209 12.1076 19.399 12.0474H19.3977Z" fill="#C4FF1C"/>
<path d="M20.4257 15.6661C20.4038 15.6072 20.4353 15.5415 20.4955 15.5196C20.5544 15.4976 20.6188 15.5291 20.6421 15.588C20.664 15.6469 20.6325 15.7127 20.575 15.7346C20.5147 15.7565 20.449 15.725 20.427 15.6661H20.4257Z" fill="#C4FF1C"/>
<path d="M19.1385 15.8903C19.1166 15.8314 19.1481 15.7657 19.2056 15.7437C19.2658 15.7218 19.3316 15.752 19.3535 15.8122C19.374 15.8711 19.3439 15.9369 19.2837 15.9588C19.2248 15.9807 19.1576 15.9506 19.1371 15.8903H19.1385Z" fill="#C4FF1C"/>
<path d="M19.7634 9.43251C19.7251 9.32568 19.7799 9.20789 19.8867 9.16817C19.9949 9.12982 20.1113 9.18461 20.1524 9.29144C20.1908 9.39827 20.1346 9.51606 20.0292 9.55578C19.921 9.59413 19.8018 9.53935 19.7634 9.43251Z" fill="#C4FF1C"/>
<path d="M16.3946 6.90415C16.3727 6.84525 16.4042 6.77951 16.4617 6.7576C16.522 6.73568 16.5877 6.76718 16.6096 6.82608C16.6302 6.88497 16.6 6.95072 16.5398 6.97263C16.4809 6.99455 16.4138 6.96304 16.3932 6.90415H16.3946Z" fill="#C4FF1C"/>
<path d="M12.7722 6.09816C12.7544 6.05022 12.779 5.99817 12.8256 5.98037C12.8735 5.96256 12.9269 5.98722 12.9447 6.03516C12.9598 6.0831 12.9352 6.13514 12.8886 6.15295C12.8406 6.17075 12.7872 6.1461 12.7722 6.09816Z" fill="#C4FF1C"/>
<path d="M15.0822 6.52739C15.0644 6.47945 15.0891 6.4274 15.1356 6.4096C15.1849 6.39179 15.237 6.41645 15.2548 6.46438C15.2712 6.51232 15.2452 6.56437 15.1986 6.58218C15.1507 6.59998 15.1 6.57533 15.0822 6.52739Z" fill="#C4FF1C"/>
<path d="M13.0417 9.11748C13.0239 9.06954 13.0485 9.01749 13.0951 8.99969C13.143 8.98188 13.1965 9.00653 13.2143 9.05447C13.2293 9.10241 13.2047 9.15446 13.1581 9.17226C13.1102 9.19007 13.0595 9.16542 13.0417 9.11748Z" fill="#C4FF1C"/>
<path d="M5.52383 16.8078C5.50876 16.7599 5.53341 16.7079 5.57998 16.6901C5.62792 16.6723 5.6786 16.6969 5.6964 16.7448C5.71421 16.7928 5.68955 16.8448 5.64298 16.8626C5.59505 16.8804 5.54163 16.8558 5.52383 16.8078Z" fill="#C4FF1C"/>
<path d="M5.99247 15.8101C5.97467 15.7622 5.99932 15.7102 6.04863 15.6923C6.09656 15.6745 6.14724 15.6992 6.16504 15.7471C6.18285 15.7951 6.1582 15.8471 6.11163 15.8649C6.06232 15.8827 6.01028 15.8581 5.99247 15.8101Z" fill="#C4FF1C"/>
<path d="M8.39175 16.8889C8.37668 16.841 8.40133 16.7889 8.4479 16.7711C8.49584 16.7533 8.54652 16.778 8.56432 16.8259C8.58213 16.8739 8.55747 16.9259 8.5109 16.9437C8.46297 16.9615 8.40955 16.9369 8.39175 16.8889Z" fill="#C4FF1C"/>
<path d="M19.0449 6.79616C19.0175 6.72494 19.0558 6.6455 19.1284 6.61948C19.1983 6.59346 19.2791 6.63044 19.3037 6.70166C19.3311 6.77288 19.2928 6.85095 19.2202 6.87834C19.1503 6.90437 19.0695 6.86739 19.0449 6.79616Z" fill="#C4FF1C"/>
<path d="M11.8813 9.8297C11.8539 9.75848 11.8923 9.67904 11.9649 9.65302C12.0374 9.627 12.1155 9.66398 12.1402 9.7352C12.1676 9.80642 12.1292 9.88586 12.0594 9.91188C11.9868 9.93791 11.9087 9.90092 11.8813 9.8297Z" fill="#C4FF1C"/>
<path d="M15.6573 9.84824C15.6368 9.78935 15.6669 9.7236 15.7272 9.70169C15.7861 9.67977 15.8532 9.71128 15.8737 9.77017C15.8956 9.82906 15.8641 9.89481 15.8066 9.91672C15.7463 9.93864 15.6806 9.90851 15.6587 9.84824H15.6573Z" fill="#C4FF1C"/>
<defs>
<clipPath id="clip0_130_447">
<rect width="12.38" height="6.73619" fill="white" transform="translate(6.02588 8.37466)"/>
</clipPath>
</defs>
</svg>
