<svg width="678" height="1464" viewBox="0 0 678 1464" fill="none" xmlns="http://www.w3.org/2000/svg">
<path d="M444.275 1296.57C450.088 1294.63 476.972 1288.89 490.293 1284.44C501.193 1280.8 499.349 1285.92 497.56 1294.14C495.77 1302.37 491.716 1344.68 490.293 1357.21C488.503 1372.98 489.082 1371.77 481.816 1374.19C468.972 1378.48 443.696 1384.84 430.954 1389.96C422.477 1393.37 424.013 1387.7 425.478 1376.89C427.321 1363.28 430.954 1335.65 433.376 1310.18C434.439 1298.99 437.009 1298.99 444.275 1296.57Z" fill="url(#paint0_linear_215_65)" fill-opacity="0.3"/>
<path d="M179.065 921.786C175.424 928.643 178.019 936.854 184.074 936.854C193.556 936.854 197.885 930.024 215.396 933.772L348.771 962.324C328.992 977.283 282.445 1010.3 275.946 1015.18C271.102 1018.82 268.68 1018.82 268.68 1026.09C268.68 1033.37 264.096 1092.88 262.625 1106.14C261.414 1117.06 263 1113.8 271.102 1117.06C287.891 1123.83 366.533 1153.15 406.9 1167.3C362.416 1175.8 151.385 1212.06 73.7076 1225.01C59.1755 1227.43 59.6702 1229.24 58.1295 1238.35C56.5888 1247.46 48.4414 1323.07 48.4414 1331.56C48.4414 1340.05 48.4414 1340.05 58.1295 1338.83C67.8175 1337.62 572.808 1229.16 580.074 1226.73C587.34 1224.31 590.973 1224.31 592.184 1217.03C593.077 1211.67 604.129 1161.94 606.551 1154.66C608.849 1147.76 609.138 1144.26 598.239 1139.41C589.52 1135.52 453.322 1082.8 386.313 1056.93L488.037 989.008C502.569 979.305 507.413 982.943 506.202 968.389C504.991 953.834 498.936 899.254 496.514 891.977C494.092 884.7 491.389 887.568 479.56 884.7C462.441 880.548 234.937 831.333 222.827 826.481C210.716 821.63 210.05 825.403 208.294 831.333C204.496 844.161 192.221 897.015 179.065 921.786Z" fill="url(#paint1_linear_215_65)" fill-opacity="0.3"/>
<path d="M115.046 5.36417C119.89 8.27509 239.615 78.8375 246.881 82.4762C254.147 86.1148 251.725 87.3277 248.092 92.1793C241.838 100.531 220.239 141.908 209.34 160.101C204.98 167.378 205.756 166.471 198.44 162.527C158.734 141.114 119.405 119.269 78.7155 99.9694C64.2846 91.8395 47.0645 94.605 49.4865 87.3277C54.3305 72.7731 70.6345 95.9908 83.6289 55.7927C89.31 38.2184 95.4718 19.3991 98.0916 10.2157C102.936 -6.76468 108.991 1.72551 115.046 5.36417Z" fill="url(#paint2_linear_215_65)" fill-opacity="0.3"/>
<path d="M105.357 454.132C109.232 456.073 262.385 505.773 341.504 531.244C347.559 533.193 351.192 531.244 349.981 540.947C348.77 550.65 343.926 602.104 341.504 611.807C339.082 621.51 341.504 626.362 329.394 623.936C320.145 622.083 179.934 580.292 101.56 556.807C68.8626 547.009 72.4992 553.076 80.9727 530.031C83.1066 524.227 97.9268 474.238 97.9268 460.896C97.9268 447.555 100.513 451.706 105.357 454.132Z" fill="url(#paint3_linear_215_65)" fill-opacity="0.3"/>
<path d="M406.734 550.65C419.328 555.501 453.724 566.526 467.449 570.569C472.293 572.006 477.138 570.271 474.55 585.824C473.339 593.101 469.706 631.913 467.284 659.81C466.445 669.476 462.44 667.179 457.596 665.874C451.749 664.299 418.844 654.958 404.312 650.106C386.197 644.059 367.982 646.468 367.982 640.403C367.982 631.913 382.073 639.19 383.725 620.997C384.936 607.656 390.991 569.543 390.991 553.076C390.991 542.16 390.991 544.585 406.734 550.65Z" fill="url(#paint4_linear_215_65)" fill-opacity="0.3"/>
<path d="M526.624 720.454C526.624 722.88 526.998 722.754 523.155 722.18C519.313 721.605 196.183 649.406 184.073 644.555C169.773 638.826 160.899 639.19 160.899 650.106C160.899 661.022 160.157 668.646 158.003 674.877C154.367 685.396 149.445 701.04 146.531 714.902C141.687 737.947 124.569 731.37 124.569 739.86C124.569 747.137 139.101 743.499 155.009 746.437C157.012 746.807 214.496 761.603 288.219 779.185C389.802 803.411 516.84 832.359 523.155 833.765C532.679 835.885 530.812 833.765 531.468 842.955C532.679 859.936 534.936 888.532 536.312 919.367C537.173 938.666 539.945 943.625 519.358 943.625C510.881 943.625 507.248 952.115 520.569 952.115C553.823 952.115 587.559 953.328 621.082 953.328C631.981 953.328 633.192 955.754 633.192 941.712C633.192 922.306 628.513 798.591 627.302 768.269L627.19 765.482C625.235 716.521 623.298 668.016 621.082 616.146C620.564 604.017 620.033 604.017 607.909 604.017L607.761 604.017C590.807 604.017 554.477 606.443 533.89 606.443C523.903 606.443 521.944 605.23 521.944 616.146C521.944 627.062 526.624 697.409 526.624 720.454Z" fill="url(#paint5_linear_215_65)" fill-opacity="0.3"/>
<path d="M128.366 665.174C132.242 660.322 137.247 663.152 139.265 665.174C146.532 667.684 139.265 674.877 131.999 674.877C124.733 674.877 123.522 671.238 128.366 665.174Z" fill="url(#paint6_linear_215_65)" fill-opacity="0.3"/>
<path d="M200.863 245.002C168.892 288.666 130.954 337.693 125.945 342.545C120.936 347.396 113.055 349.822 89.4502 349.822L15.7431 349.822C6.21948 349.822 6.37233e-05 350.307 6.34264e-05 357.1C6.30553e-05 365.59 24.0557 360.738 44.6429 360.738L93.0832 360.738C107.443 360.738 121.848 362.857 134.257 371.142C137.891 373.568 196.183 412.892 202.239 421.382C208.294 429.873 210.061 424.215 214.349 417.744C250.514 363.164 277.156 316.563 311.229 268.559C315.909 287.453 336.705 353.107 353.319 388.123C376.526 437.033 415.335 493.682 480.77 514.775C586.128 548.735 655.156 471.111 668.477 433.511C681.798 395.912 683.009 353.461 660 263.707C643.836 200.658 628.818 143.34 619.872 113.134C616.082 100.34 616.239 101.882 613.817 90.9659C612.766 86.2299 612.606 86.1144 607.762 86.1144C601.707 86.1144 547.211 88.5401 539.945 88.5401C532.679 88.5401 534.995 89.8273 537.523 98.2432C539.083 103.437 586.129 283.114 599.45 335.268C612.771 387.422 585.963 425.722 548.422 433C510.881 440.277 495.303 428.66 469.707 401.464C444.11 374.269 418.844 308.584 402.055 258.856C409.725 261.686 430.393 269.772 451.707 279.475C478.349 291.604 508.651 304.9 514.679 308.584C521.78 312.924 521.389 310.882 521.78 303.221C522.991 279.475 525.413 237.725 528 224.895C528.934 220.262 529.046 221.23 521.78 218.319C497.56 208.616 300.166 110.372 294.111 106.733C288.055 103.095 290.526 105.86 288.055 109.159C284.806 113.499 240.826 190.423 200.863 245.002Z" fill="url(#paint7_linear_215_65)" fill-opacity="0.3"/>
<path d="M101.56 329.904C96.2098 329.904 91.8723 327.986 91.8723 322.627C91.8723 317.268 96.2098 312.924 101.56 312.924C106.911 312.924 111.248 317.268 111.248 322.627C111.248 327.986 106.911 329.904 101.56 329.904Z" fill="url(#paint8_linear_215_65)" fill-opacity="0.3"/>
<path d="M332.456 414.68C332.138 411.289 333.091 408.426 336.477 408.107C339.862 407.788 342.865 410.278 343.184 413.669C343.503 417.06 341.017 420.067 337.631 420.386C334.245 420.706 332.775 418.071 332.456 414.68Z" fill="url(#paint9_linear_215_65)" fill-opacity="0.3"/>
<path d="M154.845 1377.83C150.832 1377.83 147.579 1376.46 147.579 1372.63C147.579 1368.81 150.832 1365.7 154.845 1365.7C158.858 1365.7 162.111 1368.81 162.111 1372.63C162.111 1376.46 158.858 1377.83 154.845 1377.83Z" fill="url(#paint10_linear_215_65)" fill-opacity="0.3"/>
<path d="M93.084 1198.32C87.0646 1198.32 82.1849 1196.41 82.1849 1191.05C82.1849 1185.69 87.0646 1181.34 93.084 1181.34C99.1034 1181.34 103.983 1185.69 103.983 1191.05C103.983 1196.41 99.1034 1198.32 93.084 1198.32Z" fill="url(#paint11_linear_215_65)" fill-opacity="0.3"/>
<path d="M586.506 1098C584.674 1101.57 581.971 1103.85 578.571 1102.1C575.171 1100.35 573.9 1096.04 575.732 1092.46C577.565 1088.88 581.807 1087.4 585.207 1089.15C588.607 1090.9 588.339 1094.42 586.506 1098Z" fill="url(#paint12_linear_215_65)" fill-opacity="0.3"/>
<path d="M192.877 1356.04C197.766 1354.22 319.307 1326.24 381.794 1313.59C393.967 1311.12 393.704 1312.37 392.202 1324.46C390.7 1336.56 387.358 1376.62 385.427 1390C383.695 1402 387.828 1399.7 373.509 1404.55C363.78 1407.84 255.642 1435.15 194.256 1449.87C181.842 1452.84 184.4 1454.28 179.556 1460.35C174.712 1466.41 171.18 1465.27 172.29 1454.28C173.879 1438.55 181.776 1386.36 183.189 1370.59C184.271 1358.51 186.765 1358.32 192.877 1356.04Z" fill="url(#paint13_linear_215_65)" fill-opacity="0.3"/>
<defs>
<linearGradient id="paint0_linear_215_65" x1="406.898" y1="1391.28" x2="163.06" y2="1385.43" gradientUnits="userSpaceOnUse">
<stop stop-color="#47FEFE"/>
<stop offset="1" stop-color="#B9FF57"/>
</linearGradient>
<linearGradient id="paint1_linear_215_65" x1="406.898" y1="1391.28" x2="163.06" y2="1385.43" gradientUnits="userSpaceOnUse">
<stop stop-color="#47FEFE"/>
<stop offset="1" stop-color="#B9FF57"/>
</linearGradient>
<linearGradient id="paint2_linear_215_65" x1="406.898" y1="1391.28" x2="163.06" y2="1385.43" gradientUnits="userSpaceOnUse">
<stop stop-color="#47FEFE"/>
<stop offset="1" stop-color="#B9FF57"/>
</linearGradient>
<linearGradient id="paint3_linear_215_65" x1="406.898" y1="1391.28" x2="163.06" y2="1385.43" gradientUnits="userSpaceOnUse">
<stop stop-color="#47FEFE"/>
<stop offset="1" stop-color="#B9FF57"/>
</linearGradient>
<linearGradient id="paint4_linear_215_65" x1="406.898" y1="1391.28" x2="163.06" y2="1385.43" gradientUnits="userSpaceOnUse">
<stop stop-color="#47FEFE"/>
<stop offset="1" stop-color="#B9FF57"/>
</linearGradient>
<linearGradient id="paint5_linear_215_65" x1="406.898" y1="1391.28" x2="163.06" y2="1385.43" gradientUnits="userSpaceOnUse">
<stop stop-color="#47FEFE"/>
<stop offset="1" stop-color="#B9FF57"/>
</linearGradient>
<linearGradient id="paint6_linear_215_65" x1="406.898" y1="1391.28" x2="163.06" y2="1385.43" gradientUnits="userSpaceOnUse">
<stop stop-color="#47FEFE"/>
<stop offset="1" stop-color="#B9FF57"/>
</linearGradient>
<linearGradient id="paint7_linear_215_65" x1="406.898" y1="1391.28" x2="163.06" y2="1385.43" gradientUnits="userSpaceOnUse">
<stop stop-color="#47FEFE"/>
<stop offset="1" stop-color="#B9FF57"/>
</linearGradient>
<linearGradient id="paint8_linear_215_65" x1="406.898" y1="1391.28" x2="163.06" y2="1385.43" gradientUnits="userSpaceOnUse">
<stop stop-color="#47FEFE"/>
<stop offset="1" stop-color="#B9FF57"/>
</linearGradient>
<linearGradient id="paint9_linear_215_65" x1="406.898" y1="1391.28" x2="163.06" y2="1385.43" gradientUnits="userSpaceOnUse">
<stop stop-color="#47FEFE"/>
<stop offset="1" stop-color="#B9FF57"/>
</linearGradient>
<linearGradient id="paint10_linear_215_65" x1="406.898" y1="1391.28" x2="163.06" y2="1385.43" gradientUnits="userSpaceOnUse">
<stop stop-color="#47FEFE"/>
<stop offset="1" stop-color="#B9FF57"/>
</linearGradient>
<linearGradient id="paint11_linear_215_65" x1="406.898" y1="1391.28" x2="163.06" y2="1385.43" gradientUnits="userSpaceOnUse">
<stop stop-color="#47FEFE"/>
<stop offset="1" stop-color="#B9FF57"/>
</linearGradient>
<linearGradient id="paint12_linear_215_65" x1="406.898" y1="1391.28" x2="163.06" y2="1385.43" gradientUnits="userSpaceOnUse">
<stop stop-color="#47FEFE"/>
<stop offset="1" stop-color="#B9FF57"/>
</linearGradient>
<linearGradient id="paint13_linear_215_65" x1="406.898" y1="1391.28" x2="163.06" y2="1385.43" gradientUnits="userSpaceOnUse">
<stop stop-color="#47FEFE"/>
<stop offset="1" stop-color="#B9FF57"/>
</linearGradient>
</defs>
</svg>
