<svg width="1833" height="849" viewBox="0 0 1833 849" fill="none" xmlns="http://www.w3.org/2000/svg">
<path d="M1623.37 292.673C1620.94 285.394 1613.75 251.729 1608.18 235.049C1603.63 221.4 1610.03 223.708 1620.33 225.95C1630.63 228.191 1683.61 233.267 1699.3 235.048C1719.04 237.29 1717.52 236.565 1720.56 245.664C1725.93 261.748 1733.89 293.398 1740.3 309.354C1744.56 319.969 1737.47 318.046 1723.93 316.211C1706.89 313.903 1672.3 309.354 1640.41 306.321C1626.41 304.99 1626.41 301.772 1623.37 292.673Z" fill="url(#paint0_linear_210_30)" fill-opacity="0.3"/>
<path d="M1154.12 624.772C1162.71 629.332 1172.99 626.082 1172.99 618.5C1172.99 606.627 1164.44 601.205 1169.13 579.279L1204.88 412.264C1223.61 437.033 1264.94 495.319 1271.05 503.457C1275.61 509.523 1275.61 512.556 1284.72 512.556C1293.83 512.556 1368.35 518.296 1384.95 520.138C1398.61 521.654 1394.53 519.668 1398.61 509.523C1407.08 488.499 1443.8 390.023 1461.52 339.475C1472.16 395.178 1517.55 659.434 1533.77 756.702C1536.8 774.9 1539.07 774.28 1550.47 776.21C1561.88 778.139 1656.54 788.341 1667.17 788.341C1677.8 788.341 1677.8 788.341 1676.28 776.21C1674.77 764.078 1538.97 131.723 1535.93 122.624C1532.89 113.526 1532.89 108.976 1523.78 107.46C1517.07 106.342 1454.8 92.5022 1445.69 89.4693C1437.05 86.5921 1432.67 86.2298 1426.59 99.8777C1421.73 110.796 1355.72 281.345 1323.33 365.255L1238.29 237.874C1226.14 219.676 1230.69 213.611 1212.47 215.127C1194.25 216.644 1125.91 224.226 1116.8 227.259C1107.69 230.291 1111.28 233.677 1107.69 248.489C1102.49 269.925 1040.87 554.809 1034.8 569.974C1028.72 585.138 1033.45 585.973 1040.87 588.171C1056.93 592.927 1123.11 608.298 1154.12 624.772Z" fill="url(#paint1_linear_210_30)" fill-opacity="0.3"/>
<path d="M6.71623 704.938C10.3609 698.873 98.7085 548.951 103.264 539.853C107.82 530.754 109.339 533.787 115.413 538.336C125.87 546.168 177.675 573.215 200.454 586.862C209.566 592.322 208.43 591.35 203.491 600.51C176.682 650.232 149.33 699.479 125.167 750.432C114.988 768.502 118.45 790.065 109.339 787.032C91.1155 780.967 120.185 760.551 69.8552 744.279C47.8513 737.165 24.2886 729.449 12.7906 726.169C-8.46969 720.103 2.16046 712.521 6.71623 704.938Z" fill="url(#paint2_linear_210_30)" fill-opacity="0.3"/>
<path d="M568.596 717.07C571.025 712.218 633.253 520.439 665.143 421.365C667.584 413.783 665.143 409.233 677.292 410.75C689.441 412.266 753.864 418.332 766.013 421.365C778.161 424.398 784.236 421.365 781.198 436.529C778.879 448.11 726.554 623.684 697.149 721.826C684.882 762.769 692.478 758.216 663.625 747.605C656.358 744.933 593.769 726.375 577.065 726.375C560.36 726.375 565.558 723.136 568.596 717.07Z" fill="url(#paint3_linear_210_30)" fill-opacity="0.3"/>
<path d="M689.441 339.683C695.515 323.912 709.318 280.841 714.38 263.655C716.18 257.589 714.007 251.521 733.48 254.762C742.591 256.279 791.186 260.828 826.114 263.861C838.217 264.912 835.341 269.927 833.707 275.992C831.735 283.314 820.04 324.518 813.965 342.716C806.393 365.4 809.41 388.209 801.817 388.209C791.186 388.209 800.298 370.563 777.519 368.495C760.815 366.979 713.096 359.397 692.478 359.397C678.811 359.397 681.848 359.397 689.441 339.683Z" fill="url(#paint4_linear_210_30)" fill-opacity="0.3"/>
<path d="M902.044 189.555C905.081 189.555 904.924 189.086 904.204 193.898C903.485 198.71 813.089 603.337 807.015 618.502C799.842 636.408 800.298 647.52 813.965 647.52C827.633 647.52 837.178 648.45 844.979 651.147C858.149 655.699 877.737 661.863 895.093 665.511C923.946 671.577 915.711 693.013 926.341 693.013C935.453 693.013 930.897 674.816 934.576 654.896C935.04 652.388 953.565 580.406 975.578 488.088C1005.91 360.885 1042.15 201.807 1043.91 193.898C1046.57 181.973 1043.91 184.31 1055.42 183.49C1076.68 181.973 1112.49 179.146 1151.09 177.424C1175.26 176.346 1181.46 172.874 1181.46 198.654C1181.46 209.269 1192.09 213.818 1192.09 197.138C1192.09 155.495 1193.61 113.252 1193.61 71.273C1193.61 57.6251 1196.65 56.1086 1179.07 56.1086C1154.77 56.1086 999.876 61.9686 961.911 63.485L958.421 63.6244C897.12 66.0729 836.388 68.4986 771.445 71.273C756.259 71.9218 756.259 72.5865 756.259 87.7686V87.9539C756.259 109.184 759.296 154.677 759.296 180.457C759.296 192.962 757.777 195.415 771.445 195.415C785.112 195.415 873.19 189.555 902.044 189.555Z" fill="url(#paint5_linear_210_30)" fill-opacity="0.3"/>
<path d="M832.831 688.258C826.756 683.405 830.3 677.137 832.831 674.61C835.973 665.511 844.979 674.61 844.979 683.709C844.979 692.807 840.424 694.324 832.831 688.258Z" fill="url(#paint6_linear_210_30)" fill-opacity="0.3"/>
<path d="M306.755 597.477C361.424 637.511 422.809 685.018 428.883 691.29C434.957 697.562 437.995 707.431 437.995 736.989V829.286C437.995 841.212 438.602 849 447.106 849C457.736 849 451.662 818.877 451.662 793.098V732.44C451.662 714.459 454.314 696.421 464.689 680.881C467.726 676.332 516.961 603.337 527.591 595.754C538.222 588.172 531.138 585.959 523.036 580.59C454.699 535.303 396.352 501.941 336.249 459.275C359.906 453.415 442.108 427.374 485.949 406.569C547.187 377.509 618.115 328.912 644.523 246.974C687.044 115.044 589.854 28.6058 542.777 11.9249C495.701 -4.75588 442.55 -6.27232 330.175 22.54C251.233 42.78 179.469 61.5858 141.649 72.7891C125.631 77.5341 127.561 77.3384 113.894 80.3713C107.964 81.6871 107.819 81.8877 107.819 87.9535C107.819 95.5357 110.857 163.775 110.857 172.874C110.857 181.973 112.468 179.073 123.005 175.907C129.509 173.953 354.472 115.043 419.772 98.3617C485.071 81.6809 533.025 115.249 542.137 162.259C551.248 209.269 536.703 228.775 502.653 260.828C468.604 292.88 386.363 324.518 324.1 345.541C327.644 335.937 337.768 310.057 349.916 283.367C365.102 250.006 381.75 212.06 386.363 204.512C391.796 195.621 389.239 196.11 379.648 195.621C349.916 194.104 297.643 191.071 281.58 187.832C275.779 186.663 276.991 186.522 273.346 195.621C261.197 225.949 138.191 473.129 133.636 480.711C129.08 488.293 132.542 485.2 136.673 488.293C142.106 492.362 238.418 547.434 306.755 597.477Z" fill="url(#paint7_linear_210_30)" fill-opacity="0.3"/>
<path d="M413.056 721.825C413.056 728.525 410.654 733.956 403.945 733.956C397.235 733.956 391.796 728.525 391.796 721.825C391.796 715.125 397.235 709.693 403.945 709.693C410.654 709.693 413.056 715.125 413.056 721.825Z" fill="url(#paint8_linear_210_30)" fill-opacity="0.3"/>
<path d="M519.2 432.694C514.955 433.093 511.37 431.899 510.97 427.66C510.571 423.42 513.688 419.66 517.934 419.261C522.179 418.862 525.945 421.975 526.344 426.214C526.744 430.454 523.446 432.295 519.2 432.694Z" fill="url(#paint9_linear_210_30)" fill-opacity="0.3"/>
<path d="M1725.11 655.102C1725.11 660.127 1723.4 664.2 1718.6 664.2C1713.81 664.2 1709.93 660.127 1709.93 655.102C1709.93 650.077 1713.81 646.003 1718.6 646.003C1723.4 646.003 1725.11 650.077 1725.11 655.102Z" fill="url(#paint10_linear_210_30)" fill-opacity="0.3"/>
<path d="M1500.36 732.439C1500.36 739.977 1497.96 746.087 1491.25 746.087C1484.54 746.087 1479.1 739.977 1479.1 732.439C1479.1 724.902 1484.54 718.791 1491.25 718.791C1497.96 718.791 1500.36 724.902 1500.36 732.439Z" fill="url(#paint11_linear_210_30)" fill-opacity="0.3"/>
<path d="M1374.75 114.57C1379.22 116.864 1382.07 120.249 1379.88 124.506C1377.69 128.764 1372.29 130.355 1367.81 128.061C1363.34 125.766 1361.48 120.454 1363.67 116.197C1365.86 111.939 1370.27 112.275 1374.75 114.57Z" fill="url(#paint12_linear_210_30)" fill-opacity="0.3"/>
<path d="M1697.83 607.477C1695.55 601.355 1660.52 449.159 1644.68 370.913C1641.59 355.67 1643.15 355.999 1658.29 357.88C1673.44 359.76 1723.59 363.946 1740.35 366.364C1755.38 368.532 1752.5 363.357 1758.56 381.288C1762.68 393.47 1796.88 528.882 1815.3 605.75C1819.03 621.296 1820.83 618.092 1828.43 624.158C1836.02 630.224 1834.6 634.647 1820.83 633.257C1801.14 631.267 1735.79 621.377 1716.05 619.609C1700.93 618.254 1700.68 615.13 1697.83 607.477Z" fill="url(#paint13_linear_210_30)" fill-opacity="0.3"/>
<defs>
<linearGradient id="paint0_linear_210_30" x1="1741.95" y1="339.477" x2="1734.62" y2="644.815" gradientUnits="userSpaceOnUse">
<stop stop-color="#47FEFE"/>
<stop offset="1" stop-color="#B9FF57"/>
</linearGradient>
<linearGradient id="paint1_linear_210_30" x1="1741.95" y1="339.477" x2="1734.62" y2="644.815" gradientUnits="userSpaceOnUse">
<stop stop-color="#47FEFE"/>
<stop offset="1" stop-color="#B9FF57"/>
</linearGradient>
<linearGradient id="paint2_linear_210_30" x1="1741.95" y1="339.477" x2="1734.62" y2="644.815" gradientUnits="userSpaceOnUse">
<stop stop-color="#47FEFE"/>
<stop offset="1" stop-color="#B9FF57"/>
</linearGradient>
<linearGradient id="paint3_linear_210_30" x1="1741.95" y1="339.477" x2="1734.62" y2="644.815" gradientUnits="userSpaceOnUse">
<stop stop-color="#47FEFE"/>
<stop offset="1" stop-color="#B9FF57"/>
</linearGradient>
<linearGradient id="paint4_linear_210_30" x1="1741.95" y1="339.477" x2="1734.62" y2="644.815" gradientUnits="userSpaceOnUse">
<stop stop-color="#47FEFE"/>
<stop offset="1" stop-color="#B9FF57"/>
</linearGradient>
<linearGradient id="paint5_linear_210_30" x1="1741.95" y1="339.477" x2="1734.62" y2="644.815" gradientUnits="userSpaceOnUse">
<stop stop-color="#47FEFE"/>
<stop offset="1" stop-color="#B9FF57"/>
</linearGradient>
<linearGradient id="paint6_linear_210_30" x1="1741.95" y1="339.477" x2="1734.62" y2="644.815" gradientUnits="userSpaceOnUse">
<stop stop-color="#47FEFE"/>
<stop offset="1" stop-color="#B9FF57"/>
</linearGradient>
<linearGradient id="paint7_linear_210_30" x1="1741.95" y1="339.477" x2="1734.62" y2="644.815" gradientUnits="userSpaceOnUse">
<stop stop-color="#47FEFE"/>
<stop offset="1" stop-color="#B9FF57"/>
</linearGradient>
<linearGradient id="paint8_linear_210_30" x1="1741.95" y1="339.477" x2="1734.62" y2="644.815" gradientUnits="userSpaceOnUse">
<stop stop-color="#47FEFE"/>
<stop offset="1" stop-color="#B9FF57"/>
</linearGradient>
<linearGradient id="paint9_linear_210_30" x1="1741.95" y1="339.477" x2="1734.62" y2="644.815" gradientUnits="userSpaceOnUse">
<stop stop-color="#47FEFE"/>
<stop offset="1" stop-color="#B9FF57"/>
</linearGradient>
<linearGradient id="paint10_linear_210_30" x1="1741.95" y1="339.477" x2="1734.62" y2="644.815" gradientUnits="userSpaceOnUse">
<stop stop-color="#47FEFE"/>
<stop offset="1" stop-color="#B9FF57"/>
</linearGradient>
<linearGradient id="paint11_linear_210_30" x1="1741.95" y1="339.477" x2="1734.62" y2="644.815" gradientUnits="userSpaceOnUse">
<stop stop-color="#47FEFE"/>
<stop offset="1" stop-color="#B9FF57"/>
</linearGradient>
<linearGradient id="paint12_linear_210_30" x1="1741.95" y1="339.477" x2="1734.62" y2="644.815" gradientUnits="userSpaceOnUse">
<stop stop-color="#47FEFE"/>
<stop offset="1" stop-color="#B9FF57"/>
</linearGradient>
<linearGradient id="paint13_linear_210_30" x1="1741.95" y1="339.477" x2="1734.62" y2="644.815" gradientUnits="userSpaceOnUse">
<stop stop-color="#47FEFE"/>
<stop offset="1" stop-color="#B9FF57"/>
</linearGradient>
</defs>
</svg>
