<svg width="62" height="62" viewBox="0 0 62 62" fill="none" xmlns="http://www.w3.org/2000/svg">
<path d="M43.5931 19.7481C41.2018 18.7025 38.6457 17.9603 35.9754 17.5215C35.6456 18.0765 35.265 18.8058 34.9986 19.3996C32.157 18.9994 29.3408 18.9994 26.5563 19.3996C26.2899 18.8058 25.8967 18.0765 25.5669 17.5215C22.8902 17.9539 20.3341 18.7025 17.9428 19.7481C13.1223 26.5117 11.8157 33.0946 12.469 39.5937C15.6658 41.8202 18.7674 43.1562 21.8119 44.0404C22.5667 43.0852 23.2327 42.059 23.8163 40.9812C22.7126 40.6005 21.6597 40.11 20.6639 39.5549C20.9303 39.3807 21.184 39.1871 21.4377 38.9999C27.5141 41.6266 34.1169 41.6266 40.1236 38.9999C40.3773 39.1935 40.6373 39.3807 40.8974 39.5549C39.8952 40.11 38.8423 40.6005 37.7387 40.9812C38.3159 42.059 38.9819 43.0852 39.743 44.0404C42.7939 43.1691 45.8955 41.8138 49.0923 39.5937C49.8597 32.0685 47.7793 25.5307 43.5994 19.7481H43.5931ZM24.6408 35.5987C22.8141 35.5987 21.3235 34.0175 21.3235 32.1072C21.3235 30.1969 22.7887 28.5963 24.6408 28.5963C26.4929 28.5963 27.9898 30.1775 27.9644 32.1072C27.9644 34.0175 26.4993 35.5987 24.6408 35.5987ZM36.9141 35.5987C35.0874 35.5987 33.5968 34.0175 33.5968 32.1072C33.5968 30.1969 35.062 28.5963 36.9141 28.5963C38.7662 28.5963 40.2694 30.1775 40.2377 32.1072C40.2377 34.0175 38.7726 35.5987 36.9141 35.5987Z" fill="black"/>
<path d="M27.4551 45.1517C27.2663 44.628 27.537 44.0473 28.0643 43.8549C28.5916 43.6625 29.1758 43.9333 29.3717 44.4605C29.5641 44.9842 29.2898 45.5649 28.7626 45.7573C28.2353 45.9497 27.651 45.6789 27.4551 45.1517Z" fill="black"/>
<path d="M26.8673 51.1902C26.8103 51.037 26.8922 50.866 27.049 50.809C27.2021 50.752 27.3696 50.8304 27.4301 50.9871C27.4871 51.1403 27.4052 51.3113 27.2485 51.3683C27.0953 51.4253 26.9278 51.3469 26.8673 51.1902Z" fill="black"/>
<path d="M47.7762 9.27608C47.7192 9.12289 47.8011 8.95188 47.9579 8.89488C48.1111 8.83788 48.2785 8.91982 48.3391 9.07301C48.3961 9.2262 48.3141 9.3972 48.1574 9.4542C48.0042 9.5112 47.8368 9.42927 47.7762 9.27608Z" fill="black"/>
<path d="M44.4218 9.85883C44.3648 9.70564 44.4467 9.53465 44.5963 9.47764C44.7531 9.42064 44.9241 9.50258 44.9811 9.65577C45.0345 9.80896 44.9562 9.97996 44.7994 10.037C44.6462 10.094 44.4716 10.012 44.4182 9.85883H44.4218Z" fill="black"/>
<path d="M37.8445 40.122C37.7447 39.8441 37.8836 39.5377 38.1651 39.4344C38.4465 39.3346 38.7493 39.4771 38.8562 39.755C38.956 40.0329 38.8099 40.3393 38.5356 40.4426C38.2542 40.5423 37.9442 40.3998 37.8445 40.122Z" fill="black"/>
<path d="M19.653 31.4526C19.6067 31.3279 19.6709 31.1925 19.792 31.1462C19.9167 31.0999 20.0556 31.164 20.0948 31.2887C20.1411 31.4134 20.077 31.5487 19.9559 31.5951C19.8312 31.6414 19.6922 31.5772 19.653 31.4526Z" fill="black"/>
<path d="M25.6613 32.5685C25.615 32.4438 25.6792 32.3084 25.8003 32.2621C25.925 32.2158 26.0639 32.2799 26.1102 32.4046C26.153 32.5293 26.0853 32.6647 25.9642 32.711C25.8395 32.7573 25.7077 32.6932 25.6613 32.5685Z" fill="black"/>
<path d="M20.3598 39.2992C20.3135 39.1745 20.3776 39.0392 20.4988 38.9928C20.6235 38.9465 20.7624 39.0107 20.8087 39.1353C20.8479 39.26 20.7838 39.3954 20.6626 39.4417C20.538 39.4845 20.399 39.4239 20.3598 39.2992Z" fill="black"/>
<path d="M9.00904 12.2429C8.96986 12.1183 9.03398 11.9829 9.15511 11.9366C9.2798 11.8903 9.41162 11.9544 9.45793 12.0791C9.50424 12.2038 9.44011 12.3391 9.31899 12.3854C9.1943 12.4318 9.05536 12.3676 9.00904 12.2429Z" fill="black"/>
<path d="M10.2282 9.65079C10.1818 9.5261 10.246 9.39072 10.3742 9.34441C10.4989 9.29809 10.6307 9.36223 10.677 9.48692C10.7233 9.61161 10.6592 9.74698 10.5381 9.79329C10.4098 9.83604 10.2745 9.77548 10.2282 9.65079Z" fill="black"/>
<path d="M16.4685 12.4534C16.4293 12.3287 16.4935 12.1933 16.6146 12.147C16.7393 12.1007 16.8711 12.1648 16.9174 12.2895C16.9637 12.4142 16.8996 12.5496 16.7785 12.5959C16.6538 12.6422 16.5148 12.5781 16.4685 12.4534Z" fill="black"/>
<path d="M22.3442 52.7641C22.2979 52.6394 22.362 52.504 22.4831 52.4577C22.6078 52.4114 22.7468 52.4755 22.786 52.6002C22.8323 52.7249 22.7681 52.8603 22.647 52.9066C22.5223 52.9529 22.3834 52.8888 22.3442 52.7641Z" fill="black"/>
<path d="M35.975 33.2647C35.9037 33.0794 36.0035 32.8728 36.1923 32.8051C36.374 32.7374 36.577 32.8336 36.6483 33.0189C36.7196 33.2041 36.6198 33.4108 36.431 33.4785C36.2493 33.5461 36.0391 33.45 35.975 33.2647Z" fill="black"/>
<path d="M17.3419 41.1552C17.2707 40.9699 17.3704 40.7669 17.5592 40.6956C17.7409 40.6279 17.9511 40.7241 18.0152 40.9094C18.0865 41.0946 17.9867 41.3013 17.805 41.369C17.6162 41.4366 17.4132 41.3405 17.3419 41.1552Z" fill="black"/>
<path d="M27.1576 41.2038C27.1042 41.0507 27.1825 40.8796 27.3393 40.8226C27.4925 40.7656 27.667 40.844 27.7205 41.0008C27.7775 41.154 27.6955 41.325 27.5459 41.382C27.3892 41.439 27.2182 41.3606 27.1612 41.2038H27.1576Z" fill="black"/>
<path d="M40.03 28.4933C39.8412 27.9696 40.112 27.3889 40.6392 27.1966C41.1736 27.0042 41.7508 27.2749 41.9467 27.8022C42.1391 28.3259 41.8648 28.9066 41.3375 29.099C40.8102 29.2913 40.226 29.0206 40.03 28.4933Z" fill="black"/>
<path d="M39.4361 34.5347C39.3791 34.3816 39.461 34.2105 39.6178 34.1535C39.771 34.0965 39.9384 34.1785 39.999 34.3317C40.056 34.4849 39.9741 34.6559 39.8173 34.7129C39.6641 34.7699 39.4967 34.6915 39.4361 34.5347Z" fill="black"/>
<path d="M49.4613 30.2686C49.4079 30.1154 49.4862 29.9444 49.643 29.8874C49.7962 29.8304 49.9707 29.9124 50.0242 30.0656C50.0812 30.2188 49.9992 30.3898 49.8496 30.4468C49.6929 30.5038 49.5219 30.4254 49.4649 30.2686H49.4613Z" fill="black"/>
<path d="M52.1353 39.6812C52.0783 39.528 52.1603 39.357 52.317 39.3C52.4702 39.243 52.6376 39.325 52.6982 39.4782C52.7552 39.6313 52.6733 39.8023 52.5236 39.8593C52.3669 39.9163 52.1959 39.8344 52.1389 39.6812H52.1353Z" fill="black"/>
<path d="M48.787 40.2643C48.73 40.1111 48.8119 39.9401 48.9616 39.8831C49.1183 39.8261 49.2893 39.9044 49.3463 40.0612C49.3998 40.2144 49.3214 40.3854 49.1646 40.4424C49.0114 40.4994 48.8369 40.421 48.7834 40.2643H48.787Z" fill="black"/>
<path d="M50.4127 23.4672C50.3129 23.1893 50.4554 22.8829 50.7333 22.7796C51.0147 22.6799 51.3176 22.8224 51.4244 23.1002C51.5242 23.3781 51.3781 23.6845 51.1038 23.7878C50.8224 23.8876 50.5124 23.7451 50.4127 23.4672Z" fill="black"/>
<path d="M41.65 16.8906C41.593 16.7374 41.675 16.5664 41.8246 16.5094C41.9814 16.4524 42.1524 16.5343 42.2094 16.6875C42.2628 16.8407 42.1844 17.0117 42.0277 17.0687C41.8745 17.1257 41.6999 17.0438 41.6465 16.8906H41.65Z" fill="black"/>
<path d="M32.228 14.7943C32.1817 14.6697 32.2458 14.5343 32.3669 14.488C32.4916 14.4416 32.6306 14.5058 32.6769 14.6305C32.7161 14.7552 32.6519 14.8905 32.5308 14.9368C32.4061 14.9832 32.2672 14.919 32.228 14.7943Z" fill="black"/>
<path d="M38.2365 15.9107C38.1902 15.786 38.2543 15.6506 38.3755 15.6043C38.5037 15.558 38.6391 15.6221 38.6854 15.7468C38.7282 15.8715 38.6605 16.0069 38.5394 16.0532C38.4147 16.0995 38.2829 16.0354 38.2365 15.9107Z" fill="black"/>
<path d="M32.9287 22.6477C32.8824 22.5231 32.9465 22.3877 33.0676 22.3414C33.1923 22.295 33.3312 22.3592 33.3775 22.4839C33.4167 22.6085 33.3526 22.7439 33.2315 22.7902C33.1068 22.8366 32.975 22.7724 32.9287 22.6477Z" fill="black"/>
<path d="M13.3743 42.6509C13.3351 42.5262 13.3992 42.3908 13.5203 42.3445C13.645 42.2982 13.7769 42.3624 13.8232 42.487C13.8695 42.6117 13.8053 42.7471 13.6842 42.7934C13.5595 42.8397 13.4206 42.7756 13.3743 42.6509Z" fill="black"/>
<path d="M14.5931 40.0558C14.5468 39.9311 14.611 39.7958 14.7392 39.7494C14.8639 39.7031 14.9957 39.7672 15.042 39.8919C15.0883 40.0166 15.0242 40.152 14.9031 40.1983C14.7748 40.2446 14.6395 40.1805 14.5931 40.0558Z" fill="black"/>
<path d="M20.8338 42.8619C20.7946 42.7372 20.8587 42.6018 20.9798 42.5555C21.1045 42.5092 21.2363 42.5733 21.2826 42.698C21.329 42.8227 21.2648 42.958 21.1437 43.0044C21.019 43.0507 20.8801 42.9865 20.8338 42.8619Z" fill="black"/>
<path d="M48.5438 16.6097C48.4726 16.4244 48.5723 16.2178 48.7611 16.1501C48.9428 16.0824 49.153 16.1786 49.2171 16.3639C49.2884 16.5491 49.1886 16.7522 48.9998 16.8234C48.8181 16.8911 48.6079 16.7949 48.5438 16.6097Z" fill="black"/>
<path d="M29.9105 24.5002C29.8393 24.3149 29.939 24.1083 30.1278 24.0406C30.3167 23.9729 30.5197 24.0691 30.5838 24.2544C30.6551 24.4396 30.5553 24.6462 30.3737 24.7139C30.1848 24.7816 29.9818 24.6854 29.9105 24.5002Z" fill="black"/>
<path d="M39.7323 24.5485C39.6789 24.3953 39.7572 24.2243 39.914 24.1673C40.0672 24.1103 40.2417 24.1923 40.2952 24.3455C40.3522 24.4987 40.2702 24.6697 40.1206 24.7267C39.9639 24.7837 39.7929 24.7053 39.7359 24.5485H39.7323Z" fill="black"/>
</svg>
