<svg width="62" height="62" viewBox="0 0 62 62" fill="none" xmlns="http://www.w3.org/2000/svg">
<path d="M30.5415 15.1641V36.9745C30.5415 40.2682 27.8832 42.9209 24.5942 42.9209C21.3051 42.9209 18.6468 40.263 18.6468 36.9745C18.6468 33.686 21.3051 31.0281 24.5942 31.0281C25.3083 31.0281 25.9442 31.148 26.5749 31.3825V27.2601C25.939 27.1403 25.2666 27.0569 24.5942 27.0569C19.1211 27.0569 14.6802 31.4971 14.6802 36.9693C14.6802 42.4414 19.1211 46.8816 24.5942 46.8816C30.0672 46.8816 34.5082 42.4414 34.5082 36.9693V23.9247C35.1649 24.4772 35.6601 25.2954 36.4159 25.6341C39.7206 27.1351 43.437 27.0517 46.4081 27.0517V23.0857C43.4318 23.0857 40.2053 23.0023 38.0578 22.0225C35.9103 21.0427 34.5082 19.5783 34.5082 15.1537H30.5415V15.1641Z" fill="black"/>
<path d="M34.6916 16.7886C34.8601 17.3191 34.5671 17.889 34.0328 18.0609C33.4985 18.2328 32.9252 17.9397 32.7497 17.4053C32.5777 16.8746 32.8742 16.3049 33.4084 16.133C33.9427 15.9611 34.5161 16.2541 34.6916 16.7886Z" fill="black"/>
<path d="M35.5117 10.7773C35.5627 10.9326 35.4743 11.1003 35.3154 11.1512C35.1602 11.2023 34.9959 11.1175 34.9414 10.9585C34.8903 10.8033 34.9788 10.6355 35.1377 10.5846C35.2929 10.5336 35.4572 10.6184 35.5117 10.7773Z" fill="black"/>
<path d="M13.0024 51.8539C13.0535 52.0092 12.965 52.1769 12.8061 52.2278C12.6509 52.2789 12.4867 52.1905 12.4321 52.0351C12.3811 51.8798 12.4695 51.7121 12.6284 51.6612C12.7836 51.6101 12.9478 51.6985 13.0024 51.8539Z" fill="black"/>
<path d="M16.3768 51.401C16.4279 51.5563 16.3394 51.724 16.1877 51.7752C16.0289 51.8261 15.8612 51.7376 15.8101 51.5824C15.7626 51.4272 15.8475 51.2594 16.0064 51.2085C16.1616 51.1574 16.3329 51.246 16.3804 51.4012L16.3768 51.401Z" fill="black"/>
<path d="M24.1162 21.4138C24.2051 21.6953 24.0545 21.9961 23.7693 22.0885C23.4842 22.1773 23.1871 22.0233 23.091 21.7415C23.002 21.46 23.1598 21.1595 23.4379 21.0668C23.723 20.978 24.0272 21.1323 24.1162 21.4138Z" fill="black"/>
<path d="M41.9597 30.7783C42.0012 30.9047 41.9319 31.0375 41.8091 31.0791C41.6827 31.1206 41.5463 31.0511 41.512 30.925C41.4705 30.7987 41.5398 30.6658 41.6626 30.6242C41.789 30.5828 41.9254 30.6522 41.9597 30.7783Z" fill="black"/>
<path d="M35.9988 29.4314C36.0402 29.5578 35.9709 29.6906 35.8481 29.7322C35.7217 29.7737 35.5854 29.7042 35.5439 29.5778C35.506 29.4516 35.5788 29.3189 35.7017 29.2773C35.8281 29.2358 35.9573 29.305 35.9988 29.4314Z" fill="black"/>
<path d="M41.5559 22.9101C41.5974 23.0365 41.5281 23.1693 41.4053 23.2109C41.2789 23.2524 41.1425 23.183 41.101 23.0566C41.0667 22.9305 41.136 22.7977 41.2588 22.7561C41.385 22.7182 41.5215 22.784 41.5559 22.9101Z" fill="black"/>
<path d="M51.8552 50.384C51.8895 50.5102 51.8202 50.643 51.6974 50.6846C51.571 50.726 51.4418 50.6569 51.4003 50.5305C51.3588 50.4041 51.4281 50.2713 51.5509 50.2297C51.6773 50.1882 51.8137 50.2577 51.8552 50.384Z" fill="black"/>
<path d="M50.5372 52.9272C50.5786 53.0536 50.5093 53.1864 50.3794 53.2278C50.253 53.2692 50.1238 53.2001 50.0823 53.0737C50.0408 52.9473 50.1101 52.8145 50.233 52.7729C50.3628 52.7351 50.4957 52.8009 50.5372 52.9272Z" fill="black"/>
<path d="M44.4094 49.886C44.4437 50.0121 44.3744 50.1449 44.2516 50.1865C44.1252 50.228 43.996 50.1588 43.9545 50.0324C43.913 49.9061 43.9823 49.7733 44.1051 49.7317C44.2315 49.6902 44.3679 49.7596 44.4094 49.886Z" fill="black"/>
<path d="M40.0923 9.37878C40.1337 9.50516 40.0644 9.63796 39.9416 9.67957C39.8152 9.72104 39.6789 9.65161 39.6445 9.5255C39.6031 9.39912 39.6724 9.26631 39.7952 9.2247C39.9216 9.18323 40.0579 9.25267 40.0923 9.37878Z" fill="black"/>
<path d="M25.7196 28.3383C25.7837 28.5261 25.676 28.7288 25.4847 28.7891C25.3006 28.8498 25.1014 28.7458 25.0373 28.558C24.9733 28.3701 25.0809 28.1675 25.2722 28.1071C25.4564 28.0465 25.6627 28.1507 25.7196 28.3383Z" fill="black"/>
<path d="M44.6432 21.172C44.7073 21.3599 44.5998 21.559 44.4083 21.6229C44.2242 21.6835 44.0178 21.5793 43.9609 21.3917C43.8969 21.2038 44.0045 21.0012 44.1887 20.9406C44.38 20.8802 44.5792 20.9842 44.6432 21.172Z" fill="black"/>
<path d="M34.8368 20.745C34.8843 20.9002 34.7994 21.068 34.6406 21.1189C34.4853 21.17 34.3139 21.0849 34.2665 20.9262C34.2155 20.771 34.304 20.6033 34.4557 20.5521C34.6145 20.5011 34.7824 20.5861 34.8333 20.7449L34.8368 20.745Z" fill="black"/>
<path d="M21.4838 32.9497C21.6523 33.4803 21.3594 34.0501 20.8251 34.222C20.2837 34.3936 19.7174 34.1008 19.5419 33.5664C19.3699 33.0357 19.6664 32.466 20.2007 32.2941C20.735 32.1222 21.3083 32.4153 21.4838 32.9497Z" fill="black"/>
<path d="M22.3103 26.9356C22.3613 27.0908 22.2728 27.2585 22.114 27.3095C21.9587 27.3605 21.7946 27.2722 21.74 27.1168C21.6889 26.9615 21.7774 26.7938 21.9362 26.7429C22.0915 26.6918 22.2558 26.7766 22.3103 26.9356Z" fill="black"/>
<path d="M12.1278 30.8121C12.1753 30.9672 12.0904 31.1351 11.9316 31.186C11.7763 31.237 11.605 31.1484 11.5575 30.9933C11.5065 30.838 11.595 30.6703 11.7467 30.6191C11.9055 30.5682 12.0734 30.6531 12.1243 30.8119L12.1278 30.8121Z" fill="black"/>
<path d="M9.81881 21.3034C9.86986 21.4586 9.78139 21.6263 9.62255 21.6773C9.46728 21.7283 9.30312 21.64 9.24851 21.4846C9.19746 21.3293 9.28593 21.1616 9.43765 21.1104C9.59648 21.0595 9.76419 21.148 9.81525 21.3032L9.81881 21.3034Z" fill="black"/>
<path d="M13.1872 20.8498C13.2382 21.0051 13.1497 21.1728 12.998 21.224C12.8392 21.2749 12.6713 21.19 12.6204 21.0312C12.5729 20.876 12.6578 20.7082 12.8167 20.6573C12.972 20.6062 13.1434 20.6913 13.1907 20.85L13.1872 20.8498Z" fill="black"/>
<path d="M10.9149 37.5718C11.0039 37.8533 10.8497 38.154 10.568 38.2465C10.2829 38.3353 9.98582 38.1813 9.88974 37.8995C9.80077 37.6179 9.95854 37.3174 10.2366 37.2248C10.5217 37.1359 10.8259 37.2903 10.9149 37.5718Z" fill="black"/>
<path d="M19.4176 44.4813C19.4687 44.6366 19.3802 44.8043 19.2285 44.8555C19.0696 44.9064 18.9019 44.818 18.8509 44.6627C18.8034 44.5075 18.8883 44.3397 19.0471 44.2888C19.2024 44.2377 19.3737 44.3263 19.4212 44.4815L19.4176 44.4813Z" fill="black"/>
<path d="M28.7519 46.9394C28.7934 47.0658 28.7241 47.1986 28.6013 47.2402C28.4749 47.2817 28.3386 47.2123 28.2971 47.0859C28.2627 46.9598 28.332 46.827 28.4548 46.7854C28.5812 46.7439 28.7176 46.8133 28.7519 46.9394Z" fill="black"/>
<path d="M22.7908 45.5923C22.8322 45.7187 22.7629 45.8515 22.6401 45.8931C22.5102 45.9344 22.3774 45.8651 22.3359 45.7387C22.298 45.6125 22.3708 45.4798 22.4937 45.4382C22.62 45.3967 22.7493 45.4659 22.7908 45.5923Z" fill="black"/>
<path d="M28.3545 39.0647C28.396 39.1911 28.3267 39.3239 28.2038 39.3655C28.0775 39.407 27.9411 39.3375 27.8996 39.2111C27.8653 39.085 27.9346 38.9522 28.0574 38.9106C28.1838 38.8691 28.313 38.9383 28.3545 39.0647Z" fill="black"/>
<path d="M48.6655 19.8303C48.6998 19.9564 48.6305 20.0892 48.5077 20.1309C48.3813 20.1723 48.2521 20.1032 48.2106 19.9768C48.1691 19.8504 48.2384 19.7176 48.3613 19.676C48.4876 19.6345 48.624 19.7039 48.6655 19.8303Z" fill="black"/>
<path d="M47.3475 22.3765C47.3889 22.5028 47.3197 22.6356 47.1897 22.677C47.0633 22.7185 46.9341 22.6493 46.8926 22.5229C46.8511 22.3965 46.9204 22.2637 47.0433 22.2221C47.1732 22.1808 47.306 22.2501 47.3475 22.3765Z" fill="black"/>
<path d="M41.2197 19.3319C41.254 19.458 41.1847 19.5908 41.0619 19.6324C40.9355 19.6739 40.8063 19.6047 40.7648 19.4784C40.7233 19.352 40.7926 19.2192 40.9154 19.1776C41.0418 19.1361 41.1782 19.2055 41.2197 19.3319Z" fill="black"/>
<path d="M12.5182 44.4962C12.5823 44.6841 12.4746 44.8867 12.2833 44.9471C12.0992 45.0077 11.8928 44.9035 11.8359 44.7159C11.7719 44.5281 11.8794 44.329 12.0708 44.2651C12.2549 44.2044 12.4613 44.3087 12.5182 44.4962Z" fill="black"/>
<path d="M31.4418 37.33C31.5058 37.5178 31.3982 37.7205 31.2069 37.7808C31.0156 37.8412 30.8164 37.7372 30.7595 37.5497C30.6954 37.3618 30.8031 37.1592 30.9872 37.0985C31.1785 37.0382 31.3777 37.1421 31.4418 37.33Z" fill="black"/>
<path d="M21.6291 36.9031C21.6765 37.0583 21.5916 37.2261 21.4328 37.277C21.2775 37.3281 21.1063 37.2395 21.0588 37.0844C21.0077 36.9291 21.0962 36.7614 21.2479 36.7102C21.4067 36.6593 21.5746 36.7442 21.6255 36.903L21.6291 36.9031Z" fill="black"/>
</svg>
