<svg width="62" height="62" viewBox="0 0 62 62" fill="none" xmlns="http://www.w3.org/2000/svg">
<path d="M15.8464 17.5215C13.642 17.5215 11.8389 19.3484 11.8389 21.5698V40.4656C11.8389 42.6924 13.6473 44.5139 15.8464 44.5139H45.2419C47.4356 44.5139 49.2494 42.687 49.2494 40.4656V21.5698C49.2494 19.343 47.441 17.5215 45.2419 17.5215H15.8464ZM15.8464 20.2186H45.2419C45.991 20.2186 46.5795 20.8077 46.5795 21.5698V40.4656C46.5795 41.2223 45.9963 41.8168 45.2419 41.8168H15.8464C15.0973 41.8168 14.5088 41.2277 14.5088 40.4656V21.5698C14.5088 20.8131 15.092 20.2186 15.8464 20.2186ZM25.2311 22.867V39.1143L38.5913 30.9853L25.2311 22.867ZM27.901 27.6342L33.412 30.9853L27.901 34.3364V27.6288V27.6342Z" fill="black"/>
<path d="M34.8058 16.4357C34.9743 16.9662 34.6814 17.5361 34.1471 17.708C33.6128 17.8799 33.0394 17.5868 32.864 17.0524C32.6919 16.5217 32.9884 15.952 33.5227 15.7801C34.057 15.6082 34.6304 15.9012 34.8058 16.4357Z" fill="black"/>
<path d="M35.626 10.4244C35.677 10.5797 35.5885 10.7474 35.4297 10.7983C35.2744 10.8494 35.1101 10.7646 35.0557 10.6056C35.0046 10.4504 35.0931 10.2826 35.2519 10.2317C35.4072 10.1807 35.5715 10.2654 35.626 10.4244Z" fill="black"/>
<path d="M13.1167 51.501C13.1677 51.6563 13.0792 51.824 12.9204 51.8749C12.7651 51.9259 12.601 51.8376 12.5464 51.6822C12.4953 51.5269 12.5838 51.3592 12.7426 51.3083C12.8979 51.2572 13.062 51.3456 13.1167 51.501Z" fill="black"/>
<path d="M16.4911 51.0482C16.5422 51.2035 16.4537 51.3712 16.302 51.4224C16.1431 51.4733 15.9754 51.3849 15.9244 51.2296C15.8769 51.0744 15.9618 50.9066 16.1206 50.8557C16.2759 50.8046 16.4472 50.8932 16.4947 51.0484L16.4911 51.0482Z" fill="black"/>
<path d="M24.2304 21.061C24.3194 21.3426 24.1687 21.6434 23.8835 21.7357C23.5984 21.8246 23.3013 21.6705 23.2053 21.3887C23.1163 21.1072 23.2741 20.8067 23.5522 20.714C23.8372 20.6252 24.1415 20.7795 24.2304 21.061Z" fill="black"/>
<path d="M42.074 30.4254C42.1154 30.5518 42.0461 30.6846 41.9233 30.7262C41.7969 30.7677 41.6606 30.6982 41.6262 30.5721C41.5848 30.4458 41.654 30.3129 41.7769 30.2713C41.9032 30.2299 42.0396 30.2993 42.074 30.4254Z" fill="black"/>
<path d="M36.113 29.0786C36.1545 29.205 36.0852 29.3378 35.9624 29.3794C35.836 29.4209 35.6996 29.3514 35.6582 29.2251C35.6202 29.0988 35.6931 28.9661 35.8159 28.9245C35.9423 28.8831 36.0716 28.9522 36.113 29.0786Z" fill="black"/>
<path d="M41.6702 22.5574C41.7116 22.6837 41.6423 22.8166 41.5195 22.8582C41.3931 22.8996 41.2568 22.8302 41.2153 22.7038C41.1809 22.5777 41.2502 22.4449 41.3731 22.4033C41.4993 22.3654 41.6358 22.4313 41.6702 22.5574Z" fill="black"/>
<path d="M51.9694 50.0313C52.0038 50.1574 51.9345 50.2902 51.8117 50.3318C51.6853 50.3733 51.556 50.3041 51.5146 50.1777C51.4731 50.0513 51.5424 49.9185 51.6652 49.8769C51.7916 49.8354 51.9279 49.9049 51.9694 50.0313Z" fill="black"/>
<path d="M50.6514 52.5745C50.6929 52.7008 50.6236 52.8336 50.4937 52.875C50.3673 52.9165 50.238 52.8473 50.1966 52.7209C50.1551 52.5945 50.2244 52.4617 50.3472 52.4201C50.477 52.3823 50.61 52.4481 50.6514 52.5745Z" fill="black"/>
<path d="M44.5236 49.5332C44.558 49.6593 44.4887 49.7921 44.3659 49.8337C44.2395 49.8752 44.1102 49.806 44.0688 49.6797C44.0273 49.5533 44.0966 49.4205 44.2194 49.3789C44.3458 49.3374 44.4821 49.4068 44.5236 49.5332Z" fill="black"/>
<path d="M40.2065 9.02612C40.248 9.1525 40.1787 9.2853 40.0559 9.32691C39.9295 9.36838 39.7931 9.29895 39.7588 9.17284C39.7173 9.04646 39.7866 8.91365 39.9094 8.87204C40.0358 8.83057 40.1722 8.90001 40.2065 9.02612Z" fill="black"/>
<path d="M25.8339 27.9854C25.8979 28.1732 25.7903 28.3759 25.599 28.4362C25.4148 28.4969 25.2156 28.3929 25.1516 28.2051C25.0875 28.0172 25.1952 27.8146 25.3865 27.7542C25.5706 27.6936 25.7769 27.7978 25.8339 27.9854Z" fill="black"/>
<path d="M44.7572 20.8191C44.8213 21.007 44.7138 21.2061 44.5224 21.27C44.3382 21.3306 44.1319 21.2264 44.0749 21.0388C44.0109 20.8509 44.1185 20.6483 44.3027 20.5877C44.494 20.5273 44.6932 20.6313 44.7572 20.8191Z" fill="black"/>
<path d="M34.9511 20.3921C34.9986 20.5473 34.9137 20.7151 34.7548 20.766C34.5996 20.8171 34.4282 20.732 34.3808 20.5733C34.3298 20.4181 34.4182 20.2503 34.5699 20.1992C34.7288 20.1482 34.8966 20.2332 34.9475 20.392L34.9511 20.3921Z" fill="black"/>
<path d="M21.5978 32.5968C21.7663 33.1274 21.4734 33.6972 20.9391 33.8691C20.3977 34.0407 19.8314 33.7479 19.6559 33.2135C19.4839 32.6828 19.7804 32.1131 20.3147 31.9412C20.849 31.7693 21.4224 32.0624 21.5978 32.5968Z" fill="black"/>
<path d="M22.4243 26.5829C22.4753 26.7382 22.3869 26.9059 22.228 26.9568C22.0727 27.0079 21.9086 26.9195 21.854 26.7641C21.8029 26.6088 21.8914 26.4411 22.0502 26.3902C22.2055 26.3392 22.3698 26.4239 22.4243 26.5829Z" fill="black"/>
<path d="M12.2421 30.4593C12.2896 30.6144 12.2047 30.7823 12.0458 30.8332C11.8906 30.8843 11.7193 30.7956 11.6718 30.6405C11.6208 30.4852 11.7092 30.3175 11.8609 30.2663C12.0198 30.2154 12.1876 30.3003 12.2385 30.4592L12.2421 30.4593Z" fill="black"/>
<path d="M9.93307 20.9505C9.98412 21.1057 9.89564 21.2734 9.73681 21.3244C9.58154 21.3754 9.41738 21.2871 9.36277 21.1317C9.31171 20.9764 9.40019 20.8087 9.55191 20.7575C9.71074 20.7066 9.87845 20.795 9.9295 20.9503L9.93307 20.9505Z" fill="black"/>
<path d="M13.3014 20.497C13.3525 20.6523 13.264 20.82 13.1123 20.8712C12.9535 20.9221 12.7856 20.8372 12.7347 20.6784C12.6872 20.5233 12.7721 20.3554 12.9309 20.3045C13.0862 20.2534 13.2576 20.3385 13.305 20.4972L13.3014 20.497Z" fill="black"/>
<path d="M11.0292 37.219C11.1181 37.5005 10.9639 37.8012 10.6823 37.8937C10.3972 37.9825 10.1001 37.8285 10.004 37.5467C9.91503 37.2652 10.0728 36.9646 10.3509 36.872C10.636 36.7832 10.9402 36.9375 11.0292 37.219Z" fill="black"/>
<path d="M19.5316 44.1284C19.5827 44.2837 19.4942 44.4514 19.3425 44.5026C19.1837 44.5535 19.0159 44.4651 18.9649 44.3098C18.9174 44.1546 19.0023 43.9868 19.1611 43.9359C19.3164 43.8848 19.4877 43.9734 19.5352 44.1286L19.5316 44.1284Z" fill="black"/>
<path d="M28.8662 46.5865C28.9077 46.7129 28.8384 46.8457 28.7156 46.8873C28.5892 46.9288 28.4528 46.8594 28.4113 46.733C28.377 46.6069 28.4463 46.4741 28.5691 46.4325C28.6955 46.391 28.8318 46.4604 28.8662 46.5865Z" fill="black"/>
<path d="M22.905 45.2394C22.9465 45.3657 22.8772 45.4986 22.7544 45.5402C22.6244 45.5815 22.4916 45.5122 22.4501 45.3858C22.4122 45.2596 22.4851 45.1269 22.6079 45.0853C22.7343 45.0438 22.8635 45.113 22.905 45.2394Z" fill="black"/>
<path d="M28.4687 38.7119C28.5102 38.8383 28.4409 38.9711 28.3181 39.0127C28.1917 39.0542 28.0554 38.9847 28.0139 38.8584C27.9795 38.7323 28.0488 38.5994 28.1716 38.5578C28.298 38.5164 28.4273 38.5855 28.4687 38.7119Z" fill="black"/>
<path d="M48.7797 19.4774C48.8141 19.6035 48.7448 19.7363 48.622 19.7779C48.4956 19.8194 48.3663 19.7503 48.3249 19.6239C48.2834 19.4975 48.3527 19.3647 48.4755 19.3231C48.6019 19.2816 48.7383 19.351 48.7797 19.4774Z" fill="black"/>
<path d="M47.4617 22.0235C47.5032 22.1499 47.4339 22.2827 47.304 22.3241C47.1776 22.3655 47.0483 22.2964 47.0069 22.17C46.9654 22.0436 47.0347 21.9108 47.1575 21.8692C47.2875 21.8279 47.4203 21.8972 47.4617 22.0235Z" fill="black"/>
<path d="M41.3339 18.979C41.3683 19.1051 41.299 19.2379 41.1762 19.2795C41.0498 19.321 40.9205 19.2518 40.8791 19.1255C40.8376 18.9991 40.9069 18.8663 41.0297 18.8247C41.1561 18.7832 41.2925 18.8526 41.3339 18.979Z" fill="black"/>
<path d="M12.6325 44.1433C12.6965 44.3312 12.5889 44.5338 12.3976 44.5942C12.2134 44.6548 12.0071 44.5506 11.9502 44.363C11.8861 44.1752 11.9936 43.9761 12.185 43.9122C12.3692 43.8515 12.5755 43.9558 12.6325 44.1433Z" fill="black"/>
<path d="M31.5558 36.9772C31.6199 37.1651 31.5122 37.3677 31.3209 37.4281C31.1296 37.4884 30.9304 37.3845 30.8735 37.1969C30.8094 37.009 30.9171 36.8064 31.1013 36.7457C31.2925 36.6854 31.4918 36.7893 31.5558 36.9772Z" fill="black"/>
<path d="M21.7433 36.5504C21.7908 36.7055 21.7059 36.8734 21.5471 36.9243C21.3918 36.9753 21.2205 36.8867 21.173 36.7316C21.122 36.5763 21.2104 36.4086 21.3622 36.3574C21.521 36.3065 21.6888 36.3914 21.7398 36.5502L21.7433 36.5504Z" fill="black"/>
</svg>
