<svg width="62" height="62" viewBox="0 0 62 62" fill="none" xmlns="http://www.w3.org/2000/svg">
<g clip-path="url(#clip0_1_937)">
<path fill-rule="evenodd" clip-rule="evenodd" d="M23.4649 39.3049C28.3126 39.3049 32.2441 35.3817 32.2441 30.5386C32.2441 25.6956 28.3126 21.7834 23.4649 21.7834C18.6172 21.7834 14.6802 25.7066 14.6802 30.5386C14.6802 35.3706 18.6117 39.3049 23.4649 39.3049ZM38.1025 38.5789C40.5291 38.5789 42.4949 34.9827 42.4949 30.5386C42.4949 26.0945 40.5291 22.5149 38.1025 22.5149C35.6758 22.5149 33.7101 26.1112 33.7101 30.5386C33.7101 34.9661 35.6758 38.5789 38.1025 38.5789ZM46.8872 30.5386C46.8872 34.5782 46.232 37.8475 45.4213 37.8475C44.6105 37.8475 43.9553 34.5782 43.9553 30.5386C43.9553 26.499 44.6105 23.2408 45.4213 23.2408C46.232 23.2408 46.8872 26.5101 46.8872 30.5386Z" fill="black"/>
</g>
<path d="M27.4551 46.2195C27.2663 45.6958 27.537 45.1151 28.0643 44.9228C28.5916 44.7304 29.1758 45.0011 29.3717 45.5284C29.5641 46.0521 29.2898 46.6328 28.7626 46.8252C28.2353 47.0175 27.651 46.7468 27.4551 46.2195Z" fill="black"/>
<path d="M26.8673 52.2579C26.8103 52.1047 26.8922 51.9337 27.049 51.8767C27.2021 51.8197 27.3696 51.8981 27.4301 52.0549C27.4871 52.208 27.4052 52.379 27.2485 52.436C27.0953 52.493 26.9278 52.4147 26.8673 52.2579Z" fill="black"/>
<path d="M47.7762 10.3439C47.7192 10.1908 47.8011 10.0198 47.9579 9.96275C48.1111 9.90575 48.2785 9.98769 48.3391 10.1409C48.3961 10.2941 48.3141 10.4651 48.1574 10.5221C48.0042 10.5791 47.8368 10.4971 47.7762 10.3439Z" fill="black"/>
<path d="M44.4218 10.9266C44.3648 10.7734 44.4467 10.6024 44.5963 10.5454C44.7531 10.4884 44.9241 10.5703 44.9811 10.7235C45.0345 10.8767 44.9562 11.0477 44.7994 11.1047C44.6462 11.1617 44.4716 11.0798 44.4182 10.9266H44.4218Z" fill="black"/>
<path d="M37.8445 41.1898C37.7447 40.912 37.8836 40.6056 38.1651 40.5023C38.4465 40.4025 38.7493 40.545 38.8562 40.8229C38.956 41.1008 38.8099 41.4072 38.5356 41.5105C38.2542 41.6102 37.9442 41.4677 37.8445 41.1898Z" fill="black"/>
<path d="M19.653 32.5204C19.6067 32.3957 19.6709 32.2604 19.792 32.214C19.9167 32.1677 20.0556 32.2318 20.0948 32.3565C20.1411 32.4812 20.077 32.6166 19.9559 32.6629C19.8312 32.7092 19.6922 32.6451 19.653 32.5204Z" fill="black"/>
<path d="M25.6613 33.6364C25.615 33.5117 25.6792 33.3763 25.8003 33.33C25.925 33.2837 26.0639 33.3478 26.1102 33.4725C26.153 33.5972 26.0853 33.7326 25.9642 33.7789C25.8395 33.8252 25.7077 33.7611 25.6613 33.6364Z" fill="black"/>
<path d="M20.3601 40.3671C20.3138 40.2424 20.3779 40.107 20.499 40.0607C20.6237 40.0144 20.7626 40.0785 20.8089 40.2032C20.8481 40.3279 20.784 40.4633 20.6629 40.5096C20.5382 40.5524 20.3993 40.4918 20.3601 40.3671Z" fill="black"/>
<path d="M9.00904 13.3107C8.96986 13.186 9.03398 13.0506 9.15511 13.0043C9.2798 12.958 9.41162 13.0221 9.45793 13.1468C9.50424 13.2715 9.44011 13.4069 9.31899 13.4532C9.1943 13.4995 9.05536 13.4354 9.00904 13.3107Z" fill="black"/>
<path d="M10.2282 10.7185C10.1818 10.5939 10.246 10.4585 10.3742 10.4122C10.4989 10.3658 10.6307 10.43 10.677 10.5547C10.7233 10.6794 10.6592 10.8147 10.5381 10.861C10.4098 10.9038 10.2745 10.8432 10.2282 10.7185Z" fill="black"/>
<path d="M16.4685 13.5213C16.4293 13.3966 16.4935 13.2612 16.6146 13.2149C16.7393 13.1686 16.8711 13.2327 16.9174 13.3574C16.9637 13.4821 16.8996 13.6175 16.7785 13.6638C16.6538 13.7101 16.5148 13.646 16.4685 13.5213Z" fill="black"/>
<path d="M22.3442 53.8318C22.2979 53.7071 22.362 53.5718 22.4831 53.5254C22.6078 53.4791 22.7468 53.5432 22.786 53.6679C22.8323 53.7926 22.7681 53.928 22.647 53.9743C22.5223 54.0206 22.3834 53.9565 22.3442 53.8318Z" fill="black"/>
<path d="M35.975 34.3324C35.9037 34.1472 36.0035 33.9406 36.1923 33.8729C36.374 33.8052 36.577 33.9014 36.6483 34.0866C36.7196 34.2719 36.6198 34.4785 36.431 34.5462C36.2493 34.6139 36.0391 34.5177 35.975 34.3324Z" fill="black"/>
<path d="M17.3419 42.223C17.2707 42.0377 17.3704 41.8346 17.5592 41.7634C17.7409 41.6957 17.9511 41.7919 18.0152 41.9771C18.0865 42.1624 17.9867 42.369 17.805 42.4367C17.6162 42.5044 17.4132 42.4082 17.3419 42.223Z" fill="black"/>
<path d="M27.1576 42.2716C27.1042 42.1184 27.1825 41.9474 27.3393 41.8904C27.4925 41.8334 27.667 41.9118 27.7205 42.0685C27.7775 42.2217 27.6955 42.3927 27.5459 42.4497C27.3892 42.5067 27.2182 42.4283 27.1612 42.2716H27.1576Z" fill="black"/>
<path d="M40.03 29.5612C39.8412 29.0375 40.112 28.4568 40.6392 28.2644C41.1736 28.0721 41.7508 28.3428 41.9467 28.8701C42.1391 29.3938 41.8648 29.9745 41.3375 30.1668C40.8102 30.3592 40.226 30.0885 40.03 29.5612Z" fill="black"/>
<path d="M39.4361 35.6026C39.3791 35.4494 39.461 35.2784 39.6178 35.2214C39.771 35.1644 39.9384 35.2464 39.999 35.3995C40.056 35.5527 39.9741 35.7237 39.8173 35.7807C39.6641 35.8377 39.4967 35.7594 39.4361 35.6026Z" fill="black"/>
<path d="M49.4613 31.3364C49.4079 31.1832 49.4862 31.0122 49.643 30.9552C49.7962 30.8982 49.9707 30.9801 50.0242 31.1333C50.0812 31.2865 49.9992 31.4575 49.8496 31.5145C49.6929 31.5715 49.5219 31.4931 49.4649 31.3364H49.4613Z" fill="black"/>
<path d="M52.1353 40.7491C52.0783 40.5959 52.1603 40.4249 52.317 40.3679C52.4702 40.3109 52.6376 40.3928 52.6982 40.546C52.7552 40.6992 52.6733 40.8702 52.5236 40.9272C52.3669 40.9842 52.1959 40.9023 52.1389 40.7491H52.1353Z" fill="black"/>
<path d="M48.787 41.3321C48.73 41.179 48.8119 41.0079 48.9616 40.9509C49.1183 40.8939 49.2893 40.9723 49.3463 41.1291C49.3998 41.2823 49.3214 41.4533 49.1646 41.5103C49.0114 41.5673 48.8369 41.4889 48.7834 41.3321H48.787Z" fill="black"/>
<path d="M50.4129 24.5349C50.3132 24.2571 50.4557 23.9507 50.7335 23.8474C51.015 23.7476 51.3178 23.8901 51.4247 24.168C51.5244 24.4459 51.3784 24.7522 51.104 24.8556C50.8226 24.9553 50.5127 24.8128 50.4129 24.5349Z" fill="black"/>
<path d="M41.65 17.9584C41.593 17.8053 41.675 17.6343 41.8246 17.5773C41.9814 17.5203 42.1524 17.6022 42.2094 17.7554C42.2628 17.9086 42.1844 18.0796 42.0277 18.1366C41.8745 18.1936 41.6999 18.1116 41.6465 17.9584H41.65Z" fill="black"/>
<path d="M32.228 15.8621C32.1817 15.7374 32.2458 15.602 32.3669 15.5557C32.4916 15.5094 32.6306 15.5735 32.6769 15.6982C32.7161 15.8229 32.6519 15.9583 32.5308 16.0046C32.4061 16.0509 32.2672 15.9868 32.228 15.8621Z" fill="black"/>
<path d="M38.2365 16.9786C38.1902 16.8539 38.2543 16.7185 38.3755 16.6722C38.5037 16.6259 38.6391 16.69 38.6854 16.8147C38.7282 16.9394 38.6605 17.0747 38.5394 17.1211C38.4147 17.1674 38.2829 17.1032 38.2365 16.9786Z" fill="black"/>
<path d="M32.9287 23.7156C32.8824 23.5909 32.9465 23.4555 33.0676 23.4092C33.1923 23.3629 33.3312 23.427 33.3775 23.5517C33.4167 23.6764 33.3526 23.8118 33.2315 23.8581C33.1068 23.9044 32.975 23.8403 32.9287 23.7156Z" fill="black"/>
<path d="M13.3745 43.7188C13.3353 43.5941 13.3995 43.4587 13.5206 43.4124C13.6453 43.3661 13.7771 43.4302 13.8234 43.5549C13.8697 43.6796 13.8056 43.815 13.6845 43.8613C13.5598 43.9076 13.4208 43.8435 13.3745 43.7188Z" fill="black"/>
<path d="M14.5931 41.1237C14.5468 40.999 14.611 40.8636 14.7392 40.8173C14.8639 40.771 14.9957 40.8351 15.042 40.9598C15.0883 41.0845 15.0242 41.2199 14.9031 41.2662C14.7748 41.3125 14.6395 41.2484 14.5931 41.1237Z" fill="black"/>
<path d="M20.8338 43.9297C20.7946 43.805 20.8587 43.6697 20.9798 43.6233C21.1045 43.577 21.2363 43.6412 21.2826 43.7658C21.329 43.8905 21.2648 44.0259 21.1437 44.0722C21.019 44.1185 20.8801 44.0544 20.8338 43.9297Z" fill="black"/>
<path d="M48.5438 17.6775C48.4726 17.4923 48.5723 17.2857 48.7611 17.218C48.9428 17.1503 49.153 17.2465 49.2171 17.4317C49.2884 17.617 49.1886 17.82 48.9998 17.8913C48.8181 17.959 48.6079 17.8628 48.5438 17.6775Z" fill="black"/>
<path d="M29.9105 25.568C29.8393 25.3828 29.939 25.1762 30.1278 25.1085C30.3167 25.0408 30.5197 25.137 30.5838 25.3222C30.6551 25.5075 30.5553 25.7141 30.3737 25.7818C30.1848 25.8495 29.9818 25.7533 29.9105 25.568Z" fill="black"/>
<path d="M39.7323 25.6163C39.6789 25.4631 39.7572 25.2921 39.914 25.2351C40.0672 25.1781 40.2417 25.26 40.2952 25.4132C40.3522 25.5664 40.2702 25.7374 40.1206 25.7944C39.9639 25.8514 39.7929 25.773 39.7359 25.6163H39.7323Z" fill="black"/>
<defs>
<clipPath id="clip0_1_937">
<rect width="32.2015" height="17.5214" fill="white" transform="translate(14.6802 21.7834)"/>
</clipPath>
</defs>
</svg>
